<svg width="175" height="45" viewBox="0 0 175 45" fill="none" xmlns="http://www.w3.org/2000/svg">
<path d="M63.534 3.59218C63.4647 4.30285 63.4127 4.99618 63.378 5.67218C63.3607 6.33085 63.352 6.83352 63.352 7.18018C63.352 7.50952 63.3607 7.83018 63.378 8.14218C63.3953 8.43685 63.4127 8.68818 63.43 8.89618H62.832C62.6933 7.70018 62.468 6.76418 62.156 6.08818C61.844 5.39485 61.4193 4.90952 60.882 4.63218C60.362 4.33751 59.6773 4.19018 58.828 4.19018H57.398C56.878 4.19018 56.4793 4.23352 56.202 4.32018C55.9247 4.40685 55.734 4.58885 55.63 4.86618C55.5433 5.14352 55.5 5.56818 55.5 6.14018V19.4522C55.5 20.0068 55.5433 20.4315 55.63 20.7262C55.734 21.0035 55.9247 21.1855 56.202 21.2722C56.4793 21.3588 56.878 21.4022 57.398 21.4022H58.88C59.764 21.4022 60.5007 21.2375 61.09 20.9082C61.6967 20.5788 62.182 20.0415 62.546 19.2962C62.91 18.5335 63.1787 17.4935 63.352 16.1762H63.95C63.898 16.7135 63.872 17.4068 63.872 18.2562C63.872 18.6202 63.8807 19.1488 63.898 19.8422C63.9327 20.5355 63.9847 21.2548 64.054 22.0002C63.17 21.9655 62.1733 21.9482 61.064 21.9482C59.9547 21.9308 58.9667 21.9222 58.1 21.9222C57.7013 21.9222 57.1727 21.9222 56.514 21.9222C55.8727 21.9222 55.1707 21.9308 54.408 21.9482C53.6627 21.9482 52.9 21.9568 52.12 21.9742C51.3573 21.9742 50.6293 21.9828 49.936 22.0002V21.4802C50.508 21.4455 50.9327 21.3762 51.21 21.2722C51.5047 21.1682 51.6953 20.9602 51.782 20.6482C51.886 20.3362 51.938 19.8682 51.938 19.2442V6.34818C51.938 5.70685 51.886 5.23885 51.782 4.94418C51.6953 4.63218 51.5047 4.42418 51.21 4.32018C50.9327 4.19885 50.508 4.12952 49.936 4.11218V3.59218C50.6293 3.60952 51.3573 3.62685 52.12 3.64418C52.9 3.64418 53.6627 3.65285 54.408 3.67018C55.1707 3.67018 55.8727 3.67018 56.514 3.67018C57.1727 3.67018 57.7013 3.67018 58.1 3.67018C58.8973 3.67018 59.7987 3.67018 60.804 3.67018C61.8267 3.65285 62.7367 3.62685 63.534 3.59218ZM59.348 12.4842C59.348 12.4842 59.348 12.5708 59.348 12.7442C59.348 12.9175 59.348 13.0042 59.348 13.0042H54.72C54.72 13.0042 54.72 12.9175 54.72 12.7442C54.72 12.5708 54.72 12.4842 54.72 12.4842H59.348ZM60.102 9.05218C60.0327 10.0402 59.998 10.7942 59.998 11.3142C60.0153 11.8342 60.024 12.3108 60.024 12.7442C60.024 13.1775 60.0327 13.6542 60.05 14.1742C60.0673 14.6942 60.1107 15.4482 60.18 16.4362H59.582C59.4953 15.8468 59.3567 15.2922 59.166 14.7722C58.9927 14.2348 58.7067 13.8102 58.308 13.4982C57.9267 13.1688 57.372 13.0042 56.644 13.0042V12.4842C57.1813 12.4842 57.6147 12.3715 57.944 12.1462C58.2907 11.9208 58.568 11.6348 58.776 11.2882C58.984 10.9242 59.14 10.5515 59.244 10.1702C59.3653 9.77152 59.452 9.39885 59.504 9.05218H60.102ZM74.428 3.59218C77.756 3.59218 80.2173 4.37218 81.812 5.93218C83.424 7.47485 84.23 9.69352 84.23 12.5882C84.23 14.4775 83.8313 16.1328 83.034 17.5542C82.254 18.9582 81.1187 20.0502 79.628 20.8302C78.1373 21.6102 76.326 22.0002 74.194 22.0002C73.934 22.0002 73.5787 21.9915 73.128 21.9742C72.6947 21.9568 72.2353 21.9482 71.75 21.9482C71.282 21.9308 70.8487 21.9222 70.45 21.9222C69.7393 21.9222 69.046 21.9308 68.37 21.9482C67.694 21.9482 67.1393 21.9655 66.706 22.0002V21.4802C67.278 21.4455 67.7027 21.3762 67.98 21.2722C68.2747 21.1682 68.4653 20.9602 68.552 20.6482C68.656 20.3362 68.708 19.8682 68.708 19.2442V6.34818C68.708 5.70685 68.656 5.23885 68.552 4.94418C68.4653 4.63218 68.2747 4.42418 67.98 4.32018C67.7027 4.19885 67.278 4.12952 66.706 4.11218V3.59218C67.1393 3.60952 67.694 3.63552 68.37 3.67018C69.046 3.68752 69.722 3.68752 70.398 3.67018C71.022 3.65285 71.724 3.63552 72.504 3.61818C73.284 3.60085 73.9253 3.59218 74.428 3.59218ZM74.194 4.06018C73.3967 4.06018 72.8767 4.20752 72.634 4.50218C72.3913 4.79685 72.27 5.39485 72.27 6.29618V19.2962C72.27 20.1975 72.3913 20.7955 72.634 21.0902C72.894 21.3848 73.4227 21.5322 74.22 21.5322C75.832 21.5322 77.0887 21.1942 77.99 20.5182C78.9087 19.8248 79.55 18.8195 79.914 17.5022C80.2953 16.1848 80.486 14.5815 80.486 12.6922C80.486 10.7508 80.278 9.14752 79.862 7.88218C79.4633 6.59952 78.8047 5.64618 77.886 5.02218C76.9673 4.38085 75.7367 4.06018 74.194 4.06018ZM103.105 3.59218V4.11218C102.551 4.16418 102.126 4.29418 101.831 4.50218C101.554 4.69285 101.363 5.00485 101.259 5.43818C101.155 5.85418 101.103 6.45218 101.103 7.23218V14.4342C101.103 15.5955 101.025 16.6355 100.869 17.5542C100.731 18.4728 100.453 19.2702 100.037 19.9462C99.6041 20.6742 98.9541 21.2635 98.0874 21.7142C97.2381 22.1475 96.1981 22.3642 94.9674 22.3642C94.1354 22.3642 93.3121 22.2688 92.4974 22.0782C91.7001 21.8875 90.9981 21.5322 90.3914 21.0122C89.8541 20.5615 89.4294 20.0502 89.1174 19.4782C88.8227 18.9062 88.6234 18.2215 88.5194 17.4242C88.4154 16.6095 88.3634 15.6388 88.3634 14.5122V6.34818C88.3634 5.70685 88.3114 5.23885 88.2074 4.94418C88.1207 4.63218 87.9301 4.42418 87.6354 4.32018C87.3581 4.19885 86.9334 4.12952 86.3614 4.11218V3.59218C86.7947 3.60952 87.3494 3.62685 88.0254 3.64418C88.7014 3.66152 89.4294 3.67018 90.2094 3.67018C90.9201 3.67018 91.6221 3.66152 92.3154 3.64418C93.0087 3.62685 93.5807 3.60952 94.0314 3.59218V4.11218C93.4421 4.12952 92.9914 4.19885 92.6794 4.32018C92.3847 4.42418 92.1854 4.63218 92.0814 4.94418C91.9774 5.23885 91.9254 5.70685 91.9254 6.34818V15.7602C91.9254 16.6268 91.9774 17.4155 92.0814 18.1262C92.2027 18.8195 92.3934 19.4175 92.6534 19.9202C92.9307 20.4228 93.3121 20.8042 93.7974 21.0642C94.3001 21.3242 94.9327 21.4542 95.6954 21.4542C96.9607 21.4542 97.9401 21.1682 98.6334 20.5962C99.3267 20.0242 99.8121 19.2268 100.089 18.2042C100.367 17.1815 100.505 16.0202 100.505 14.7202V7.44018C100.505 6.59085 100.445 5.94085 100.323 5.49018C100.202 5.03952 99.9594 4.71018 99.5954 4.50218C99.2487 4.29418 98.7287 4.16418 98.0354 4.11218V3.59218C98.3647 3.60952 98.7894 3.62685 99.3094 3.64418C99.8467 3.66152 100.341 3.67018 100.791 3.67018C101.225 3.67018 101.649 3.66152 102.065 3.64418C102.499 3.62685 102.845 3.60952 103.105 3.59218ZM105.096 3.59218C105.529 3.60952 106.084 3.62685 106.76 3.64418C107.436 3.66152 108.112 3.67018 108.788 3.67018C109.637 3.67018 110.443 3.66152 111.206 3.64418C111.968 3.62685 112.506 3.61818 112.818 3.61818C114.863 3.61818 116.388 3.99952 117.394 4.76218C118.416 5.52485 118.928 6.50418 118.928 7.70018C118.928 8.30685 118.763 8.91352 118.434 9.52018C118.122 10.1268 117.61 10.6728 116.9 11.1582C116.206 11.6435 115.296 12.0075 114.17 12.2502V12.3022C115.695 12.4408 116.9 12.7528 117.784 13.2382C118.685 13.7062 119.326 14.2695 119.708 14.9282C120.089 15.5695 120.28 16.2455 120.28 16.9562C120.28 18.0135 120.002 18.9235 119.448 19.6862C118.91 20.4315 118.13 21.0035 117.108 21.4022C116.085 21.8008 114.854 22.0002 113.416 22.0002C113.034 22.0002 112.454 21.9915 111.674 21.9742C110.894 21.9395 109.949 21.9222 108.84 21.9222C108.129 21.9222 107.436 21.9308 106.76 21.9482C106.084 21.9482 105.529 21.9655 105.096 22.0002V21.4802C105.668 21.4455 106.092 21.3762 106.37 21.2722C106.664 21.1682 106.855 20.9602 106.942 20.6482C107.046 20.3362 107.098 19.8682 107.098 19.2442V6.34818C107.098 5.70685 107.046 5.23885 106.942 4.94418C106.855 4.63218 106.664 4.42418 106.37 4.32018C106.092 4.19885 105.668 4.12952 105.096 4.11218V3.59218ZM112.376 4.11218C111.665 4.11218 111.197 4.25952 110.972 4.55418C110.764 4.84885 110.66 5.44685 110.66 6.34818V19.2442C110.66 19.8508 110.712 20.3102 110.816 20.6222C110.92 20.9342 111.102 21.1422 111.362 21.2462C111.622 21.3502 112.003 21.4022 112.506 21.4022C113.927 21.4022 114.95 21.0122 115.574 20.2322C116.215 19.4348 116.536 18.3082 116.536 16.8522C116.536 15.5175 116.189 14.4862 115.496 13.7582C114.82 13.0302 113.693 12.6662 112.116 12.6662H109.75C109.75 12.6662 109.75 12.5968 109.75 12.4582C109.75 12.3022 109.75 12.2242 109.75 12.2242H111.986C112.87 12.2242 113.554 12.0335 114.04 11.6522C114.525 11.2535 114.854 10.7335 115.028 10.0922C115.201 9.43352 115.288 8.73152 115.288 7.98618C115.288 6.70352 115.062 5.74152 114.612 5.10018C114.161 4.44152 113.416 4.11218 112.376 4.11218ZM131.805 3.22818C133.573 3.22818 135.124 3.60085 136.459 4.34618C137.793 5.09152 138.825 6.16618 139.553 7.57018C140.298 8.95685 140.671 10.6468 140.671 12.6402C140.671 14.5815 140.289 16.2802 139.527 17.7362C138.781 19.1922 137.733 20.3275 136.381 21.1422C135.046 21.9568 133.512 22.3642 131.779 22.3642C130.011 22.3642 128.459 21.9915 127.125 21.2462C125.79 20.5008 124.75 19.4262 124.005 18.0222C123.277 16.6182 122.913 14.9282 122.913 12.9522C122.913 11.0108 123.294 9.31218 124.057 7.85618C124.819 6.40018 125.868 5.26485 127.203 4.45018C128.537 3.63552 130.071 3.22818 131.805 3.22818ZM131.701 3.69618C130.678 3.69618 129.785 4.08618 129.023 4.86618C128.277 5.64618 127.697 6.72085 127.281 8.09018C126.865 9.45952 126.657 11.0455 126.657 12.8482C126.657 14.6855 126.891 16.2888 127.359 17.6582C127.827 19.0102 128.459 20.0588 129.257 20.8042C130.054 21.5322 130.929 21.8962 131.883 21.8962C132.905 21.8962 133.789 21.5062 134.535 20.7262C135.297 19.9462 135.887 18.8715 136.303 17.5022C136.719 16.1155 136.927 14.5295 136.927 12.7442C136.927 10.8895 136.693 9.28618 136.225 7.93418C135.757 6.58218 135.124 5.54218 134.327 4.81418C133.547 4.06885 132.671 3.69618 131.701 3.69618ZM149.521 3.28018C150.492 3.28018 151.237 3.38418 151.757 3.59218C152.277 3.80018 152.728 4.02552 153.109 4.26818C153.317 4.38952 153.482 4.48485 153.603 4.55418C153.742 4.60618 153.872 4.63218 153.993 4.63218C154.166 4.63218 154.288 4.53685 154.357 4.34618C154.444 4.15552 154.513 3.86952 154.565 3.48818H155.163C155.146 3.81752 155.12 4.19885 155.085 4.63218C155.068 5.06552 155.05 5.64618 155.033 6.37418C155.033 7.08485 155.033 8.02952 155.033 9.20818H154.435C154.383 8.32418 154.184 7.47485 153.837 6.66018C153.508 5.84552 153.031 5.17818 152.407 4.65818C151.8 4.12085 151.02 3.85218 150.067 3.85218C149.218 3.85218 148.507 4.10352 147.935 4.60618C147.38 5.10885 147.103 5.78485 147.103 6.63418C147.103 7.36218 147.285 7.97752 147.649 8.48018C148.013 8.96552 148.524 9.44218 149.183 9.91018C149.859 10.3608 150.656 10.8808 151.575 11.4702C152.424 12.0248 153.187 12.5795 153.863 13.1342C154.539 13.6715 155.068 14.2695 155.449 14.9282C155.848 15.5868 156.047 16.3928 156.047 17.3462C156.047 18.4728 155.77 19.4088 155.215 20.1542C154.66 20.8995 153.915 21.4542 152.979 21.8182C152.043 22.1822 151.02 22.3642 149.911 22.3642C148.888 22.3642 148.074 22.2602 147.467 22.0522C146.878 21.8442 146.366 21.6275 145.933 21.4022C145.552 21.1595 145.257 21.0382 145.049 21.0382C144.876 21.0382 144.746 21.1335 144.659 21.3242C144.59 21.5148 144.529 21.8008 144.477 22.1822H143.879C143.914 21.7835 143.931 21.3155 143.931 20.7782C143.948 20.2408 143.957 19.5475 143.957 18.6982C143.974 17.8315 143.983 16.7395 143.983 15.4222H144.581C144.65 16.5315 144.841 17.5715 145.153 18.5422C145.482 19.4955 145.976 20.2668 146.635 20.8562C147.311 21.4455 148.204 21.7402 149.313 21.7402C149.92 21.7402 150.466 21.6362 150.951 21.4282C151.454 21.2028 151.852 20.8648 152.147 20.4142C152.442 19.9462 152.589 19.3568 152.589 18.6462C152.589 17.9355 152.424 17.3115 152.095 16.7742C151.766 16.2368 151.306 15.7342 150.717 15.2662C150.128 14.7982 149.434 14.3215 148.637 13.8362C147.822 13.3162 147.06 12.7875 146.349 12.2502C145.638 11.7128 145.066 11.1062 144.633 10.4302C144.217 9.73685 144.009 8.90485 144.009 7.93418C144.009 6.85952 144.269 5.98418 144.789 5.30818C145.309 4.61485 145.985 4.10352 146.817 3.77418C147.666 3.44485 148.568 3.28018 149.521 3.28018ZM173.996 3.59218C173.926 4.38952 173.874 5.16952 173.84 5.93218C173.822 6.67752 173.814 7.24952 173.814 7.64818C173.814 8.04685 173.822 8.41952 173.84 8.76618C173.857 9.11285 173.874 9.41618 173.892 9.67618H173.294C173.051 8.28952 172.756 7.20618 172.41 6.42618C172.063 5.62885 171.604 5.05685 171.032 4.71018C170.477 4.36352 169.74 4.19018 168.822 4.19018H167.99V19.0102C167.99 19.7208 168.05 20.2495 168.172 20.5962C168.31 20.9428 168.579 21.1768 168.978 21.2982C169.376 21.4022 169.957 21.4628 170.72 21.4802V22.0002C170.2 21.9655 169.524 21.9482 168.692 21.9482C167.86 21.9308 167.01 21.9222 166.144 21.9222C165.242 21.9222 164.393 21.9308 163.596 21.9482C162.816 21.9482 162.183 21.9655 161.698 22.0002V21.4802C162.443 21.4628 163.015 21.4022 163.414 21.2982C163.812 21.1768 164.081 20.9428 164.22 20.5962C164.358 20.2495 164.428 19.7208 164.428 19.0102V4.19018H163.57C162.668 4.19018 161.932 4.36352 161.36 4.71018C160.788 5.05685 160.328 5.62885 159.982 6.42618C159.635 7.20618 159.349 8.28952 159.124 9.67618H158.526C158.56 9.41618 158.578 9.11285 158.578 8.76618C158.595 8.41952 158.604 8.04685 158.604 7.64818C158.604 7.24952 158.586 6.67752 158.552 5.93218C158.534 5.16952 158.491 4.38952 158.422 3.59218C159.184 3.60952 160.025 3.62685 160.944 3.64418C161.862 3.66152 162.781 3.67018 163.7 3.67018C164.618 3.67018 165.459 3.67018 166.222 3.67018C166.967 3.67018 167.799 3.67018 168.718 3.67018C169.636 3.67018 170.555 3.66152 171.474 3.64418C172.392 3.62685 173.233 3.60952 173.996 3.59218Z" fill="#161A2C"/>
<path d="M20.7717 32.747V28.7349H26.6748C26.7883 28.7349 26.5613 27.759 25.5396 26.241C24.5179 24.7229 22.2475 23.8554 20.2041 24.0723C18.9554 24.2048 16.7361 25.1566 15.6633 27.4337C15.1975 28.4226 14.5281 30.1446 15.6633 31.9879L20.7717 38.3855V45L13.3929 35.5663C12.7118 34.6988 11.3041 32.5084 11.1225 30.6867C10.8954 28.4096 11.236 27 12.5982 24.6145C13.9605 22.2289 16.3444 21.0362 17.3661 20.6024C18.3878 20.1687 23.0422 18.759 27.81 22.6627C31.6243 25.7855 31.0643 30.6868 30.3075 32.747H20.7717Z" fill="url(#paint0_linear_1966_762)"/>
<path d="M9.7601 14.0964V22.9879C10.4866 21.7735 12.5603 20.0964 13.5063 19.4096C14.9821 18.3614 19.0234 16.4385 23.3826 17.1325C27.7418 17.8265 30.7993 21.1807 31.7831 22.7711V14.8554C28.5137 12.6867 21.4906 12.1446 18.3877 12.1446C24.8357 11.0169 30.6101 12.8313 32.6913 13.8795L41.8865 11.6024L20.8851 0L0.11084 11.6024L9.7601 14.0964Z" fill="url(#paint1_linear_1966_762)"/>
<path d="M32.6915 13.8795C32.6007 8.3277 30.0427 5.16867 28.7183 4.33734L42.0002 11.6024L32.6915 13.8795Z" fill="url(#paint2_linear_1966_762)"/>
<path d="M12.825 34.8072C10.8951 30.4699 16.9117 24.8675 19.6362 24.1807C14.1872 26.7831 14.7646 30.1807 15.862 31.8795L20.7434 38.3855L20.7714 45L12.825 34.8072Z" fill="url(#paint3_linear_1966_762)"/>
<path d="M51.5925 40.0002L49.3245 31.6002H50.6085L52.3125 38.5962L54.2685 31.6002H55.6005L57.4965 38.6202L59.2245 31.6002H60.5085L58.1805 40.0002H56.7885L54.9045 33.3162L52.9725 40.0002H51.5925ZM62.4327 40.0002V31.6002H67.7367V32.5842H63.6327V35.2722H67.3767V36.2322H63.6327V39.0162H67.7367V40.0002H62.4327ZM73.2934 40.0002L76.3894 31.6002H77.6974L80.7694 40.0002H79.4974L77.0254 33.0402L74.5534 40.0002H73.2934ZM74.6974 37.9242L75.0214 36.9642H78.9814L79.3054 37.9242H74.6974ZM82.7099 40.0002V31.6002H85.5539C86.2179 31.6002 86.7619 31.7122 87.1859 31.9362C87.6099 32.1602 87.9219 32.4602 88.1219 32.8362C88.3299 33.2042 88.4339 33.6242 88.4339 34.0962C88.4339 34.5442 88.3299 34.9602 88.1219 35.3442C87.9219 35.7202 87.6059 36.0242 87.1739 36.2562C86.7419 36.4802 86.1899 36.5922 85.5179 36.5922H83.9099V40.0002H82.7099ZM87.1259 40.0002L85.3139 36.2682H86.6339L88.5179 40.0002H87.1259ZM83.9099 35.6802H85.4819C86.0739 35.6802 86.5059 35.5362 86.7779 35.2482C87.0579 34.9522 87.1979 34.5762 87.1979 34.1202C87.1979 33.6562 87.0619 33.2882 86.7899 33.0162C86.5179 32.7442 86.0779 32.6082 85.4699 32.6082H83.9099V35.6802ZM90.7307 40.0002V31.6002H96.0347V32.5842H91.9307V35.2722H95.6747V36.2322H91.9307V39.0162H96.0347V40.0002H90.7307ZM104.891 40.1442C104.283 40.1442 103.747 40.0362 103.283 39.8202C102.819 39.5962 102.459 39.2842 102.203 38.8842C101.947 38.4842 101.815 38.0162 101.807 37.4802H103.079C103.079 37.7842 103.147 38.0642 103.283 38.3202C103.427 38.5682 103.631 38.7682 103.895 38.9202C104.167 39.0642 104.499 39.1362 104.891 39.1362C105.227 39.1362 105.515 39.0802 105.755 38.9682C106.003 38.8562 106.191 38.7042 106.319 38.5122C106.447 38.3122 106.511 38.0842 106.511 37.8282C106.511 37.5402 106.447 37.3042 106.319 37.1202C106.191 36.9282 106.011 36.7682 105.779 36.6402C105.555 36.5122 105.295 36.4002 104.999 36.3042C104.711 36.2082 104.399 36.1042 104.063 35.9922C103.383 35.7682 102.879 35.4842 102.551 35.1402C102.231 34.7962 102.071 34.3482 102.071 33.7962C102.071 33.3242 102.179 32.9162 102.395 32.5722C102.619 32.2202 102.935 31.9482 103.343 31.7562C103.751 31.5562 104.227 31.4562 104.771 31.4562C105.323 31.4562 105.799 31.5562 106.199 31.7562C106.607 31.9562 106.927 32.2322 107.159 32.5842C107.391 32.9362 107.511 33.3482 107.519 33.8202H106.247C106.247 33.6042 106.187 33.3922 106.067 33.1842C105.955 32.9762 105.787 32.8082 105.563 32.6802C105.347 32.5442 105.075 32.4762 104.747 32.4762C104.467 32.4682 104.219 32.5122 104.003 32.6082C103.787 32.7042 103.619 32.8442 103.499 33.0282C103.379 33.2122 103.319 33.4322 103.319 33.6882C103.319 33.9442 103.375 34.1522 103.487 34.3122C103.599 34.4642 103.755 34.5962 103.955 34.7082C104.163 34.8202 104.407 34.9242 104.687 35.0202C104.967 35.1082 105.275 35.2082 105.611 35.3202C106.019 35.4562 106.387 35.6242 106.715 35.8242C107.043 36.0162 107.299 36.2682 107.483 36.5802C107.675 36.8842 107.771 37.2762 107.771 37.7562C107.771 38.1722 107.663 38.5602 107.447 38.9202C107.231 39.2802 106.911 39.5762 106.487 39.8082C106.063 40.0322 105.531 40.1442 104.891 40.1442ZM109.941 40.0002V31.6002H111.141V40.0002H109.941ZM113.638 40.0002V31.6002H114.838L119.122 38.0442V31.6002H120.322V40.0002H119.122L114.838 33.5562V40.0002H113.638ZM126.467 40.1442C125.651 40.1442 124.947 39.9642 124.355 39.6042C123.763 39.2362 123.307 38.7282 122.987 38.0802C122.667 37.4242 122.507 36.6642 122.507 35.8002C122.507 34.9442 122.667 34.1882 122.987 33.5322C123.307 32.8762 123.763 32.3682 124.355 32.0082C124.947 31.6402 125.651 31.4562 126.467 31.4562C127.443 31.4562 128.235 31.6922 128.843 32.1642C129.451 32.6362 129.839 33.3002 130.007 34.1562H128.699C128.571 33.6602 128.323 33.2642 127.955 32.9682C127.587 32.6722 127.087 32.5242 126.455 32.5242C125.903 32.5242 125.419 32.6562 125.003 32.9202C124.595 33.1842 124.279 33.5602 124.055 34.0482C123.839 34.5362 123.731 35.1202 123.731 35.8002C123.731 36.4802 123.839 37.0682 124.055 37.5642C124.279 38.0522 124.595 38.4282 125.003 38.6922C125.419 38.9482 125.903 39.0762 126.455 39.0762C127.087 39.0762 127.587 38.9362 127.955 38.6562C128.323 38.3682 128.571 37.9802 128.699 37.4922H130.007C129.839 38.3242 129.451 38.9762 128.843 39.4482C128.235 39.9122 127.443 40.1442 126.467 40.1442ZM132.187 40.0002V31.6002H137.491V32.5842H133.387V35.2722H137.131V36.2322H133.387V39.0162H137.491V40.0002H132.187ZM144.692 40.0002V32.9562L143.12 33.4122V32.4762L145.136 31.6002H145.916V40.0002H144.692ZM151.158 40.1442C150.614 40.1442 150.146 40.0402 149.754 39.8322C149.37 39.6162 149.066 39.3362 148.842 38.9922C148.626 38.6402 148.49 38.2602 148.434 37.8522H149.55C149.63 38.2602 149.81 38.5762 150.09 38.8002C150.378 39.0162 150.738 39.1242 151.17 39.1242C151.57 39.1242 151.918 39.0082 152.214 38.7762C152.518 38.5362 152.758 38.1762 152.934 37.6962C153.118 37.2082 153.226 36.5962 153.258 35.8602C153.258 35.8282 153.258 35.7962 153.258 35.7642C153.258 35.7322 153.258 35.7002 153.258 35.6682C153.138 35.9082 152.966 36.1282 152.742 36.3282C152.526 36.5282 152.266 36.6882 151.962 36.8082C151.658 36.9282 151.326 36.9882 150.966 36.9882C150.502 36.9882 150.062 36.8802 149.646 36.6642C149.238 36.4402 148.906 36.1242 148.65 35.7162C148.402 35.3082 148.278 34.8322 148.278 34.2882C148.278 33.8002 148.394 33.3402 148.626 32.9082C148.866 32.4762 149.198 32.1282 149.622 31.8642C150.054 31.5922 150.562 31.4562 151.146 31.4562C151.754 31.4562 152.266 31.5722 152.682 31.8042C153.106 32.0282 153.442 32.3322 153.69 32.7162C153.946 33.1002 154.13 33.5322 154.242 34.0122C154.354 34.4922 154.41 34.9842 154.41 35.4882C154.41 36.4082 154.282 37.2202 154.026 37.9242C153.77 38.6202 153.398 39.1642 152.91 39.5562C152.43 39.9482 151.846 40.1442 151.158 40.1442ZM151.23 35.9682C151.566 35.9682 151.87 35.8922 152.142 35.7402C152.414 35.5882 152.626 35.3802 152.778 35.1162C152.938 34.8522 153.018 34.5562 153.018 34.2282C153.018 33.8842 152.938 33.5842 152.778 33.3282C152.626 33.0642 152.414 32.8602 152.142 32.7162C151.87 32.5722 151.562 32.5002 151.218 32.5002C150.89 32.5002 150.59 32.5762 150.318 32.7282C150.054 32.8722 149.846 33.0762 149.694 33.3402C149.542 33.5962 149.466 33.8962 149.466 34.2402C149.466 34.5842 149.542 34.8882 149.694 35.1522C149.846 35.4082 150.054 35.6082 150.318 35.7522C150.59 35.8962 150.894 35.9682 151.23 35.9682ZM157.175 40.0002L160.307 32.6322H155.879V31.6002H161.543V32.4762L158.435 40.0002H157.175ZM166.647 40.1442C165.919 40.1442 165.291 39.9642 164.763 39.6042C164.243 39.2362 163.843 38.7282 163.563 38.0802C163.283 37.4242 163.143 36.6642 163.143 35.8002C163.143 34.9362 163.283 34.1802 163.563 33.5322C163.843 32.8762 164.243 32.3682 164.763 32.0082C165.291 31.6402 165.919 31.4562 166.647 31.4562C167.383 31.4562 168.007 31.6402 168.519 32.0082C169.039 32.3682 169.439 32.8762 169.719 33.5322C170.007 34.1802 170.151 34.9362 170.151 35.8002C170.151 36.6642 170.007 37.4242 169.719 38.0802C169.439 38.7282 169.039 39.2362 168.519 39.6042C168.007 39.9642 167.383 40.1442 166.647 40.1442ZM166.647 39.0762C167.087 39.0762 167.475 38.9442 167.811 38.6802C168.155 38.4162 168.423 38.0402 168.615 37.5522C168.815 37.0642 168.915 36.4802 168.915 35.8002C168.915 35.1122 168.815 34.5282 168.615 34.0482C168.423 33.5602 168.155 33.1882 167.811 32.9322C167.475 32.6682 167.087 32.5362 166.647 32.5362C166.207 32.5362 165.815 32.6682 165.471 32.9322C165.127 33.1882 164.855 33.5602 164.655 34.0482C164.463 34.5282 164.367 35.1122 164.367 35.8002C164.367 36.4802 164.463 37.0642 164.655 37.5522C164.855 38.0402 165.127 38.4162 165.471 38.6802C165.815 38.9442 166.207 39.0762 166.647 39.0762Z" fill="#606056"/>
<defs>
<linearGradient id="paint0_linear_1966_762" x1="29.1446" y1="23.0233" x2="14.4844" y2="37.8231" gradientUnits="userSpaceOnUse">
<stop stop-color="#D9293A"/>
<stop offset="1" stop-color="#C60C1F"/>
</linearGradient>
<linearGradient id="paint1_linear_1966_762" x1="7.23229" y1="8.37209" x2="29.6471" y2="11.8062" gradientUnits="userSpaceOnUse">
<stop stop-color="#D9293A"/>
<stop offset="1" stop-color="#FDB714"/>
</linearGradient>
<linearGradient id="paint2_linear_1966_762" x1="27.5012" y1="2.61626" x2="41.836" y2="13.1769" gradientUnits="userSpaceOnUse">
<stop stop-color="#D9293A"/>
<stop offset="1" stop-color="#FDB714"/>
</linearGradient>
<linearGradient id="paint3_linear_1966_762" x1="15.9998" y1="27.5" x2="16.6108" y2="45" gradientUnits="userSpaceOnUse">
<stop stop-color="#FDB714"/>
<stop offset="1" stop-color="#D9293A"/>
</linearGradient>
</defs>
</svg>
