<svg width="175" height="45" viewBox="0 0 175 45" fill="none" xmlns="http://www.w3.org/2000/svg">
<path d="M63.4227 3.592C63.3533 4.30267 63.3013 4.996 63.2667 5.672C63.2493 6.33067 63.2407 6.83333 63.2407 7.18C63.2407 7.50933 63.2493 7.83 63.2667 8.142C63.284 8.43667 63.3013 8.688 63.3187 8.896H62.7207C62.582 7.7 62.3567 6.764 62.0447 6.088C61.7327 5.39467 61.308 4.90933 60.7707 4.632C60.2507 4.33733 59.566 4.19 58.7167 4.19H57.2867C56.7667 4.19 56.368 4.23333 56.0907 4.32C55.8133 4.40667 55.6227 4.58867 55.5187 4.866C55.432 5.14333 55.3887 5.568 55.3887 6.14V19.452C55.3887 20.0067 55.432 20.4313 55.5187 20.726C55.6227 21.0033 55.8133 21.1853 56.0907 21.272C56.368 21.3587 56.7667 21.402 57.2867 21.402H58.7687C59.6527 21.402 60.3893 21.2373 60.9787 20.908C61.5853 20.5787 62.0707 20.0413 62.4347 19.296C62.7987 18.5333 63.0673 17.4933 63.2407 16.176H63.8387C63.7867 16.7133 63.7607 17.4067 63.7607 18.256C63.7607 18.62 63.7693 19.1487 63.7867 19.842C63.8213 20.5353 63.8733 21.2547 63.9427 22C63.0587 21.9653 62.062 21.948 60.9527 21.948C59.8433 21.9307 58.8553 21.922 57.9887 21.922C57.59 21.922 57.0613 21.922 56.4027 21.922C55.7613 21.922 55.0593 21.9307 54.2967 21.948C53.5513 21.948 52.7887 21.9567 52.0087 21.974C51.246 21.974 50.518 21.9827 49.8247 22V21.48C50.3967 21.4453 50.8213 21.376 51.0987 21.272C51.3933 21.168 51.584 20.96 51.6707 20.648C51.7747 20.336 51.8267 19.868 51.8267 19.244V6.348C51.8267 5.70667 51.7747 5.23867 51.6707 4.944C51.584 4.632 51.3933 4.424 51.0987 4.32C50.8213 4.19867 50.3967 4.12933 49.8247 4.112V3.592C50.518 3.60933 51.246 3.62667 52.0087 3.644C52.7887 3.644 53.5513 3.65267 54.2967 3.67C55.0593 3.67 55.7613 3.67 56.4027 3.67C57.0613 3.67 57.59 3.67 57.9887 3.67C58.786 3.67 59.6873 3.67 60.6927 3.67C61.7153 3.65267 62.6253 3.62667 63.4227 3.592ZM59.2367 12.484C59.2367 12.484 59.2367 12.5707 59.2367 12.744C59.2367 12.9173 59.2367 13.004 59.2367 13.004H54.6087C54.6087 13.004 54.6087 12.9173 54.6087 12.744C54.6087 12.5707 54.6087 12.484 54.6087 12.484H59.2367ZM59.9907 9.052C59.9213 10.04 59.8867 10.794 59.8867 11.314C59.904 11.834 59.9127 12.3107 59.9127 12.744C59.9127 13.1773 59.9213 13.654 59.9387 14.174C59.956 14.694 59.9993 15.448 60.0687 16.436H59.4707C59.384 15.8467 59.2453 15.292 59.0547 14.772C58.8813 14.2347 58.5953 13.81 58.1967 13.498C57.8153 13.1687 57.2607 13.004 56.5327 13.004V12.484C57.07 12.484 57.5033 12.3713 57.8327 12.146C58.1793 11.9207 58.4567 11.6347 58.6647 11.288C58.8727 10.924 59.0287 10.5513 59.1327 10.17C59.254 9.77133 59.3407 9.39867 59.3927 9.052H59.9907ZM74.3167 3.592C77.6447 3.592 80.106 4.372 81.7007 5.932C83.3127 7.47467 84.1187 9.69333 84.1187 12.588C84.1187 14.4773 83.72 16.1327 82.9227 17.554C82.1427 18.958 81.0073 20.05 79.5167 20.83C78.026 21.61 76.2147 22 74.0827 22C73.8227 22 73.4673 21.9913 73.0167 21.974C72.5833 21.9567 72.124 21.948 71.6387 21.948C71.1707 21.9307 70.7373 21.922 70.3387 21.922C69.628 21.922 68.9347 21.9307 68.2587 21.948C67.5827 21.948 67.028 21.9653 66.5947 22V21.48C67.1667 21.4453 67.5913 21.376 67.8687 21.272C68.1633 21.168 68.354 20.96 68.4407 20.648C68.5447 20.336 68.5967 19.868 68.5967 19.244V6.348C68.5967 5.70667 68.5447 5.23867 68.4407 4.944C68.354 4.632 68.1633 4.424 67.8687 4.32C67.5913 4.19867 67.1667 4.12933 66.5947 4.112V3.592C67.028 3.60933 67.5827 3.63533 68.2587 3.67C68.9347 3.68733 69.6107 3.68733 70.2867 3.67C70.9107 3.65267 71.6127 3.63533 72.3927 3.618C73.1727 3.60067 73.814 3.592 74.3167 3.592ZM74.0827 4.06C73.2853 4.06 72.7653 4.20733 72.5227 4.502C72.28 4.79667 72.1587 5.39467 72.1587 6.296V19.296C72.1587 20.1973 72.28 20.7953 72.5227 21.09C72.7827 21.3847 73.3113 21.532 74.1087 21.532C75.7207 21.532 76.9773 21.194 77.8787 20.518C78.7973 19.8247 79.4387 18.8193 79.8027 17.502C80.184 16.1847 80.3747 14.5813 80.3747 12.692C80.3747 10.7507 80.1667 9.14733 79.7507 7.882C79.352 6.59933 78.6933 5.646 77.7747 5.022C76.856 4.38067 75.6253 4.06 74.0827 4.06ZM102.994 3.592V4.112C102.439 4.164 102.015 4.294 101.72 4.502C101.443 4.69267 101.252 5.00467 101.148 5.438C101.044 5.854 100.992 6.452 100.992 7.232V14.434C100.992 15.5953 100.914 16.6353 100.758 17.554C100.619 18.4727 100.342 19.27 99.9261 19.946C99.4927 20.674 98.8427 21.2633 97.9761 21.714C97.1267 22.1473 96.0867 22.364 94.8561 22.364C94.0241 22.364 93.2007 22.2687 92.3861 22.078C91.5887 21.8873 90.8867 21.532 90.2801 21.012C89.7427 20.5613 89.3181 20.05 89.0061 19.478C88.7114 18.906 88.5121 18.2213 88.4081 17.424C88.3041 16.6093 88.2521 15.6387 88.2521 14.512V6.348C88.2521 5.70667 88.2001 5.23867 88.0961 4.944C88.0094 4.632 87.8187 4.424 87.5241 4.32C87.2467 4.19867 86.8221 4.12933 86.2501 4.112V3.592C86.6834 3.60933 87.2381 3.62667 87.9141 3.644C88.5901 3.66133 89.3181 3.67 90.0981 3.67C90.8087 3.67 91.5107 3.66133 92.2041 3.644C92.8974 3.62667 93.4694 3.60933 93.9201 3.592V4.112C93.3307 4.12933 92.8801 4.19867 92.5681 4.32C92.2734 4.424 92.0741 4.632 91.9701 4.944C91.8661 5.23867 91.8141 5.70667 91.8141 6.348V15.76C91.8141 16.6267 91.8661 17.4153 91.9701 18.126C92.0914 18.8193 92.2821 19.4173 92.5421 19.92C92.8194 20.4227 93.2007 20.804 93.6861 21.064C94.1887 21.324 94.8214 21.454 95.5841 21.454C96.8494 21.454 97.8287 21.168 98.5221 20.596C99.2154 20.024 99.7007 19.2267 99.9781 18.204C100.255 17.1813 100.394 16.02 100.394 14.72V7.44C100.394 6.59067 100.333 5.94067 100.212 5.49C100.091 5.03933 99.8481 4.71 99.4841 4.502C99.1374 4.294 98.6174 4.164 97.9241 4.112V3.592C98.2534 3.60933 98.6781 3.62667 99.1981 3.644C99.7354 3.66133 100.229 3.67 100.68 3.67C101.113 3.67 101.538 3.66133 101.954 3.644C102.387 3.62667 102.734 3.60933 102.994 3.592ZM104.984 3.592C105.418 3.60933 105.972 3.62667 106.648 3.644C107.324 3.66133 108 3.67 108.676 3.67C109.526 3.67 110.332 3.66133 111.094 3.644C111.857 3.62667 112.394 3.618 112.706 3.618C114.752 3.618 116.277 3.99933 117.282 4.762C118.305 5.52467 118.816 6.504 118.816 7.7C118.816 8.30667 118.652 8.91333 118.322 9.52C118.01 10.1267 117.499 10.6727 116.788 11.158C116.095 11.6433 115.185 12.0073 114.058 12.25V12.302C115.584 12.4407 116.788 12.7527 117.672 13.238C118.574 13.706 119.215 14.2693 119.596 14.928C119.978 15.5693 120.168 16.2453 120.168 16.956C120.168 18.0133 119.891 18.9233 119.336 19.686C118.799 20.4313 118.019 21.0033 116.996 21.402C115.974 21.8007 114.743 22 113.304 22C112.923 22 112.342 21.9913 111.562 21.974C110.782 21.9393 109.838 21.922 108.728 21.922C108.018 21.922 107.324 21.9307 106.648 21.948C105.972 21.948 105.418 21.9653 104.984 22V21.48C105.556 21.4453 105.981 21.376 106.258 21.272C106.553 21.168 106.744 20.96 106.83 20.648C106.934 20.336 106.986 19.868 106.986 19.244V6.348C106.986 5.70667 106.934 5.23867 106.83 4.944C106.744 4.632 106.553 4.424 106.258 4.32C105.981 4.19867 105.556 4.12933 104.984 4.112V3.592ZM112.264 4.112C111.554 4.112 111.086 4.25933 110.86 4.554C110.652 4.84867 110.548 5.44667 110.548 6.348V19.244C110.548 19.8507 110.6 20.31 110.704 20.622C110.808 20.934 110.99 21.142 111.25 21.246C111.51 21.35 111.892 21.402 112.394 21.402C113.816 21.402 114.838 21.012 115.462 20.232C116.104 19.4347 116.424 18.308 116.424 16.852C116.424 15.5173 116.078 14.486 115.384 13.758C114.708 13.03 113.582 12.666 112.004 12.666H109.638C109.638 12.666 109.638 12.5967 109.638 12.458C109.638 12.302 109.638 12.224 109.638 12.224H111.874C112.758 12.224 113.443 12.0333 113.928 11.652C114.414 11.2533 114.743 10.7333 114.916 10.092C115.09 9.43333 115.176 8.73133 115.176 7.986C115.176 6.70333 114.951 5.74133 114.5 5.1C114.05 4.44133 113.304 4.112 112.264 4.112ZM131.693 3.228C133.461 3.228 135.013 3.60067 136.347 4.346C137.682 5.09133 138.713 6.166 139.441 7.57C140.187 8.95667 140.559 10.6467 140.559 12.64C140.559 14.5813 140.178 16.28 139.415 17.736C138.67 19.192 137.621 20.3273 136.269 21.142C134.935 21.9567 133.401 22.364 131.667 22.364C129.899 22.364 128.348 21.9913 127.013 21.246C125.679 20.5007 124.639 19.426 123.893 18.022C123.165 16.618 122.801 14.928 122.801 12.952C122.801 11.0107 123.183 9.312 123.945 7.856C124.708 6.4 125.757 5.26467 127.091 4.45C128.426 3.63533 129.96 3.228 131.693 3.228ZM131.589 3.696C130.567 3.696 129.674 4.086 128.911 4.866C128.166 5.646 127.585 6.72067 127.169 8.09C126.753 9.45933 126.545 11.0453 126.545 12.848C126.545 14.6853 126.779 16.2887 127.247 17.658C127.715 19.01 128.348 20.0587 129.145 20.804C129.943 21.532 130.818 21.896 131.771 21.896C132.794 21.896 133.678 21.506 134.423 20.726C135.186 19.946 135.775 18.8713 136.191 17.502C136.607 16.1153 136.815 14.5293 136.815 12.744C136.815 10.8893 136.581 9.286 136.113 7.934C135.645 6.582 135.013 5.542 134.215 4.814C133.435 4.06867 132.56 3.696 131.589 3.696ZM149.41 3.28C150.38 3.28 151.126 3.384 151.646 3.592C152.166 3.8 152.616 4.02533 152.998 4.268C153.206 4.38933 153.37 4.48467 153.492 4.554C153.63 4.606 153.76 4.632 153.882 4.632C154.055 4.632 154.176 4.53667 154.246 4.346C154.332 4.15533 154.402 3.86933 154.454 3.488H155.052C155.034 3.81733 155.008 4.19867 154.974 4.632C154.956 5.06533 154.939 5.646 154.922 6.374C154.922 7.08467 154.922 8.02933 154.922 9.208H154.324C154.272 8.324 154.072 7.47467 153.726 6.66C153.396 5.84533 152.92 5.178 152.296 4.658C151.689 4.12067 150.909 3.852 149.956 3.852C149.106 3.852 148.396 4.10333 147.824 4.606C147.269 5.10867 146.992 5.78467 146.992 6.634C146.992 7.362 147.174 7.97733 147.538 8.48C147.902 8.96533 148.413 9.442 149.072 9.91C149.748 10.3607 150.545 10.8807 151.464 11.47C152.313 12.0247 153.076 12.5793 153.752 13.134C154.428 13.6713 154.956 14.2693 155.338 14.928C155.736 15.5867 155.936 16.3927 155.936 17.346C155.936 18.4727 155.658 19.4087 155.104 20.154C154.549 20.8993 153.804 21.454 152.868 21.818C151.932 22.182 150.909 22.364 149.8 22.364C148.777 22.364 147.962 22.26 147.356 22.052C146.766 21.844 146.255 21.6273 145.822 21.402C145.44 21.1593 145.146 21.038 144.938 21.038C144.764 21.038 144.634 21.1333 144.548 21.324C144.478 21.5147 144.418 21.8007 144.366 22.182H143.768C143.802 21.7833 143.82 21.3153 143.82 20.778C143.837 20.2407 143.846 19.5473 143.846 18.698C143.863 17.8313 143.872 16.7393 143.872 15.422H144.47C144.539 16.5313 144.73 17.5713 145.042 18.542C145.371 19.4953 145.865 20.2667 146.524 20.856C147.2 21.4453 148.092 21.74 149.202 21.74C149.808 21.74 150.354 21.636 150.84 21.428C151.342 21.2027 151.741 20.8647 152.036 20.414C152.33 19.946 152.478 19.3567 152.478 18.646C152.478 17.9353 152.313 17.3113 151.984 16.774C151.654 16.2367 151.195 15.734 150.606 15.266C150.016 14.798 149.323 14.3213 148.526 13.836C147.711 13.316 146.948 12.7873 146.238 12.25C145.527 11.7127 144.955 11.106 144.522 10.43C144.106 9.73667 143.898 8.90467 143.898 7.934C143.898 6.85933 144.158 5.984 144.678 5.308C145.198 4.61467 145.874 4.10333 146.706 3.774C147.555 3.44467 148.456 3.28 149.41 3.28ZM173.884 3.592C173.815 4.38933 173.763 5.16933 173.728 5.932C173.711 6.67733 173.702 7.24933 173.702 7.648C173.702 8.04667 173.711 8.41933 173.728 8.766C173.746 9.11267 173.763 9.416 173.78 9.676H173.182C172.94 8.28933 172.645 7.206 172.298 6.426C171.952 5.62867 171.492 5.05667 170.92 4.71C170.366 4.36333 169.629 4.19 168.71 4.19H167.878V19.01C167.878 19.7207 167.939 20.2493 168.06 20.596C168.199 20.9427 168.468 21.1767 168.866 21.298C169.265 21.402 169.846 21.4627 170.608 21.48V22C170.088 21.9653 169.412 21.948 168.58 21.948C167.748 21.9307 166.899 21.922 166.032 21.922C165.131 21.922 164.282 21.9307 163.484 21.948C162.704 21.948 162.072 21.9653 161.586 22V21.48C162.332 21.4627 162.904 21.402 163.302 21.298C163.701 21.1767 163.97 20.9427 164.108 20.596C164.247 20.2493 164.316 19.7207 164.316 19.01V4.19H163.458C162.557 4.19 161.82 4.36333 161.248 4.71C160.676 5.05667 160.217 5.62867 159.87 6.426C159.524 7.206 159.238 8.28933 159.012 9.676H158.414C158.449 9.416 158.466 9.11267 158.466 8.766C158.484 8.41933 158.492 8.04667 158.492 7.648C158.492 7.24933 158.475 6.67733 158.44 5.932C158.423 5.16933 158.38 4.38933 158.31 3.592C159.073 3.60933 159.914 3.62667 160.832 3.644C161.751 3.66133 162.67 3.67 163.588 3.67C164.507 3.67 165.348 3.67 166.11 3.67C166.856 3.67 167.688 3.67 168.606 3.67C169.525 3.67 170.444 3.66133 171.362 3.644C172.281 3.62667 173.122 3.60933 173.884 3.592Z" fill="white"/>
<path d="M20.6604 32.7471V28.735H26.5635C26.677 28.735 26.45 27.7591 25.4283 26.241C24.4066 24.723 22.1362 23.8555 20.0928 24.0723C18.8441 24.2049 16.6247 25.1567 15.552 27.4338C15.0861 28.4226 14.4168 30.1446 15.552 31.988L20.6604 38.3856V45.0001L13.2816 35.5663C12.6004 34.6989 11.1928 32.5085 11.0111 30.6868C10.7841 28.4097 11.1247 27.0001 12.4869 24.6145C13.8492 22.229 16.2331 21.0362 17.2548 20.6025C18.2765 20.1687 22.9308 18.7591 27.6987 22.6627C31.513 25.7856 30.953 30.6868 30.1962 32.7471H20.6604Z" fill="url(#paint0_linear_1966_3459)"/>
<path d="M9.64926 14.0964V22.9879C10.3758 21.7735 12.4494 20.0964 13.3954 19.4096C14.8712 18.3614 18.9126 16.4385 23.2718 17.1325C27.631 17.8265 30.6884 21.1807 31.6723 22.7711V14.8554C28.4029 12.6867 21.3797 12.1446 18.2768 12.1446C24.7248 11.0169 30.4992 12.8313 32.5805 13.8795L41.7756 11.6024L20.7743 0L0 11.6024L9.64926 14.0964Z" fill="url(#paint1_linear_1966_3459)"/>
<path d="M32.5806 13.8796C32.4898 8.32776 29.9318 5.16873 28.6074 4.3374L41.8894 11.6025L32.5806 13.8796Z" fill="url(#paint2_linear_1966_3459)"/>
<path d="M12.7146 34.8072C10.7848 30.4698 16.8014 24.8674 19.5259 24.1807C14.0769 26.7831 14.6543 30.1807 15.7516 31.8795L20.633 38.3855L20.6611 44.9999L12.7146 34.8072Z" fill="url(#paint3_linear_1966_3459)"/>
<path d="M51.4816 40L49.2136 31.6H50.4976L52.2016 38.596L54.1576 31.6H55.4896L57.3856 38.62L59.1136 31.6H60.3976L58.0696 40H56.6776L54.7936 33.316L52.8616 40H51.4816ZM62.3219 40V31.6H67.6259V32.584H63.5219V35.272H67.2659V36.232H63.5219V39.016H67.6259V40H62.3219ZM73.1825 40L76.2785 31.6H77.5865L80.6585 40H79.3865L76.9145 33.04L74.4425 40H73.1825ZM74.5865 37.924L74.9105 36.964H78.8705L79.1945 37.924H74.5865ZM82.5991 40V31.6H85.4431C86.1071 31.6 86.6511 31.712 87.0751 31.936C87.4991 32.16 87.8111 32.46 88.0111 32.836C88.2191 33.204 88.3231 33.624 88.3231 34.096C88.3231 34.544 88.2191 34.96 88.0111 35.344C87.8111 35.72 87.4951 36.024 87.0631 36.256C86.6311 36.48 86.0791 36.592 85.4071 36.592H83.7991V40H82.5991ZM87.0151 40L85.2031 36.268H86.5231L88.4071 40H87.0151ZM83.7991 35.68H85.3711C85.9631 35.68 86.3951 35.536 86.6671 35.248C86.9471 34.952 87.0871 34.576 87.0871 34.12C87.0871 33.656 86.9511 33.288 86.6791 33.016C86.4071 32.744 85.9671 32.608 85.3591 32.608H83.7991V35.68ZM90.6198 40V31.6H95.9238V32.584H91.8198V35.272H95.5638V36.232H91.8198V39.016H95.9238V40H90.6198ZM104.78 40.144C104.172 40.144 103.636 40.036 103.172 39.82C102.708 39.596 102.348 39.284 102.092 38.884C101.836 38.484 101.704 38.016 101.696 37.48H102.968C102.968 37.784 103.036 38.064 103.172 38.32C103.316 38.568 103.52 38.768 103.784 38.92C104.056 39.064 104.388 39.136 104.78 39.136C105.116 39.136 105.404 39.08 105.644 38.968C105.892 38.856 106.08 38.704 106.208 38.512C106.336 38.312 106.4 38.084 106.4 37.828C106.4 37.54 106.336 37.304 106.208 37.12C106.08 36.928 105.9 36.768 105.668 36.64C105.444 36.512 105.184 36.4 104.888 36.304C104.6 36.208 104.288 36.104 103.952 35.992C103.272 35.768 102.768 35.484 102.44 35.14C102.12 34.796 101.96 34.348 101.96 33.796C101.96 33.324 102.068 32.916 102.284 32.572C102.508 32.22 102.824 31.948 103.232 31.756C103.64 31.556 104.116 31.456 104.66 31.456C105.212 31.456 105.688 31.556 106.088 31.756C106.496 31.956 106.816 32.232 107.048 32.584C107.28 32.936 107.4 33.348 107.408 33.82H106.136C106.136 33.604 106.076 33.392 105.956 33.184C105.844 32.976 105.676 32.808 105.452 32.68C105.236 32.544 104.964 32.476 104.636 32.476C104.356 32.468 104.108 32.512 103.892 32.608C103.676 32.704 103.508 32.844 103.388 33.028C103.268 33.212 103.208 33.432 103.208 33.688C103.208 33.944 103.264 34.152 103.376 34.312C103.488 34.464 103.644 34.596 103.844 34.708C104.052 34.82 104.296 34.924 104.576 35.02C104.856 35.108 105.164 35.208 105.5 35.32C105.908 35.456 106.276 35.624 106.604 35.824C106.932 36.016 107.188 36.268 107.372 36.58C107.564 36.884 107.66 37.276 107.66 37.756C107.66 38.172 107.552 38.56 107.336 38.92C107.12 39.28 106.8 39.576 106.376 39.808C105.952 40.032 105.42 40.144 104.78 40.144ZM109.831 40V31.6H111.031V40H109.831ZM113.527 40V31.6H114.727L119.011 38.044V31.6H120.211V40H119.011L114.727 33.556V40H113.527ZM126.356 40.144C125.54 40.144 124.836 39.964 124.244 39.604C123.652 39.236 123.196 38.728 122.876 38.08C122.556 37.424 122.396 36.664 122.396 35.8C122.396 34.944 122.556 34.188 122.876 33.532C123.196 32.876 123.652 32.368 124.244 32.008C124.836 31.64 125.54 31.456 126.356 31.456C127.332 31.456 128.124 31.692 128.732 32.164C129.34 32.636 129.728 33.3 129.896 34.156H128.588C128.46 33.66 128.212 33.264 127.844 32.968C127.476 32.672 126.976 32.524 126.344 32.524C125.792 32.524 125.308 32.656 124.892 32.92C124.484 33.184 124.168 33.56 123.944 34.048C123.728 34.536 123.62 35.12 123.62 35.8C123.62 36.48 123.728 37.068 123.944 37.564C124.168 38.052 124.484 38.428 124.892 38.692C125.308 38.948 125.792 39.076 126.344 39.076C126.976 39.076 127.476 38.936 127.844 38.656C128.212 38.368 128.46 37.98 128.588 37.492H129.896C129.728 38.324 129.34 38.976 128.732 39.448C128.124 39.912 127.332 40.144 126.356 40.144ZM132.077 40V31.6H137.381V32.584H133.277V35.272H137.021V36.232H133.277V39.016H137.381V40H132.077ZM144.581 40V32.956L143.009 33.412V32.476L145.025 31.6H145.805V40H144.581ZM151.047 40.144C150.503 40.144 150.035 40.04 149.643 39.832C149.259 39.616 148.955 39.336 148.731 38.992C148.515 38.64 148.379 38.26 148.323 37.852H149.439C149.519 38.26 149.699 38.576 149.979 38.8C150.267 39.016 150.627 39.124 151.059 39.124C151.459 39.124 151.807 39.008 152.103 38.776C152.407 38.536 152.647 38.176 152.823 37.696C153.007 37.208 153.115 36.596 153.147 35.86C153.147 35.828 153.147 35.796 153.147 35.764C153.147 35.732 153.147 35.7 153.147 35.668C153.027 35.908 152.855 36.128 152.631 36.328C152.415 36.528 152.155 36.688 151.851 36.808C151.547 36.928 151.215 36.988 150.855 36.988C150.391 36.988 149.951 36.88 149.535 36.664C149.127 36.44 148.795 36.124 148.539 35.716C148.291 35.308 148.167 34.832 148.167 34.288C148.167 33.8 148.283 33.34 148.515 32.908C148.755 32.476 149.087 32.128 149.511 31.864C149.943 31.592 150.451 31.456 151.035 31.456C151.643 31.456 152.155 31.572 152.571 31.804C152.995 32.028 153.331 32.332 153.579 32.716C153.835 33.1 154.019 33.532 154.131 34.012C154.243 34.492 154.299 34.984 154.299 35.488C154.299 36.408 154.171 37.22 153.915 37.924C153.659 38.62 153.287 39.164 152.799 39.556C152.319 39.948 151.735 40.144 151.047 40.144ZM151.119 35.968C151.455 35.968 151.759 35.892 152.031 35.74C152.303 35.588 152.515 35.38 152.667 35.116C152.827 34.852 152.907 34.556 152.907 34.228C152.907 33.884 152.827 33.584 152.667 33.328C152.515 33.064 152.303 32.86 152.031 32.716C151.759 32.572 151.451 32.5 151.107 32.5C150.779 32.5 150.479 32.576 150.207 32.728C149.943 32.872 149.735 33.076 149.583 33.34C149.431 33.596 149.355 33.896 149.355 34.24C149.355 34.584 149.431 34.888 149.583 35.152C149.735 35.408 149.943 35.608 150.207 35.752C150.479 35.896 150.783 35.968 151.119 35.968ZM157.064 40L160.196 32.632H155.768V31.6H161.432V32.476L158.324 40H157.064ZM166.537 40.144C165.809 40.144 165.181 39.964 164.653 39.604C164.133 39.236 163.733 38.728 163.453 38.08C163.173 37.424 163.033 36.664 163.033 35.8C163.033 34.936 163.173 34.18 163.453 33.532C163.733 32.876 164.133 32.368 164.653 32.008C165.181 31.64 165.809 31.456 166.537 31.456C167.273 31.456 167.897 31.64 168.409 32.008C168.929 32.368 169.329 32.876 169.609 33.532C169.897 34.18 170.041 34.936 170.041 35.8C170.041 36.664 169.897 37.424 169.609 38.08C169.329 38.728 168.929 39.236 168.409 39.604C167.897 39.964 167.273 40.144 166.537 40.144ZM166.537 39.076C166.977 39.076 167.365 38.944 167.701 38.68C168.045 38.416 168.313 38.04 168.505 37.552C168.705 37.064 168.805 36.48 168.805 35.8C168.805 35.112 168.705 34.528 168.505 34.048C168.313 33.56 168.045 33.188 167.701 32.932C167.365 32.668 166.977 32.536 166.537 32.536C166.097 32.536 165.705 32.668 165.361 32.932C165.017 33.188 164.745 33.56 164.545 34.048C164.353 34.528 164.257 35.112 164.257 35.8C164.257 36.48 164.353 37.064 164.545 37.552C164.745 38.04 165.017 38.416 165.361 38.68C165.705 38.944 166.097 39.076 166.537 39.076Z" fill="#E3C7CA"/>
<defs>
<linearGradient id="paint0_linear_1966_3459" x1="25.9998" y1="21" x2="14.4593" y2="37.6801" gradientUnits="userSpaceOnUse">
<stop stop-color="white"/>
<stop offset="1" stop-color="#C60C1F"/>
</linearGradient>
<linearGradient id="paint1_linear_1966_3459" x1="7.12145" y1="8.37209" x2="29.5363" y2="11.8062" gradientUnits="userSpaceOnUse">
<stop stop-color="white"/>
<stop offset="1" stop-color="#FDB714"/>
</linearGradient>
<linearGradient id="paint2_linear_1966_3459" x1="27.3904" y1="2.61632" x2="41.7252" y2="13.177" gradientUnits="userSpaceOnUse">
<stop stop-color="white"/>
<stop offset="1" stop-color="#FDB714"/>
</linearGradient>
<linearGradient id="paint3_linear_1966_3459" x1="15.8894" y1="27.4999" x2="16.5005" y2="44.9999" gradientUnits="userSpaceOnUse">
<stop stop-color="#FDB714"/>
<stop offset="1" stop-color="white"/>
</linearGradient>
</defs>
</svg>
