<svg width="22" height="26" viewBox="0 0 22 26" fill="none" xmlns="http://www.w3.org/2000/svg">
<path d="M10.2844 7.56152C9.04469 7.56152 8.04492 8.60128 8.04492 9.841C8.04492 8.60128 9.04469 7.56152 10.3244 7.56152H10.2844Z" fill="#E8E8E8"/>
<path d="M12.5244 7.56102H13.5241V4.72168H12.5244H12.4844V7.56102H12.5244Z" fill="#E8E8E8"/>
<path d="M2.12579 4.6816C2.24577 4.72159 2.40573 4.72159 2.56569 4.72159H2.60568C2.44572 4.72159 2.32575 4.72159 2.16578 4.6816C1.98663 4.64161 1.80747 4.58202 1.63831 4.50244C1.47554 4.6856 1.31838 4.87436 1.16602 5.06671V15.4791C1.16602 16.2789 1.32598 16.8788 1.72589 17.2387C2.16579 17.6786 2.76565 17.6386 2.76565 17.6386H8.04443V16.6388H2.12579V4.6816Z" fill="#E8E8E8"/>
<path d="M2.56599 3.92226H12.6837C12.6037 3.7623 12.5237 3.60234 12.4837 3.40238H7.00497V2.60257H12.3637C12.3637 2.48259 12.3637 2.40261 12.3637 2.28264H4.88546V1.87354C3.91408 2.42621 3.02149 3.10125 2.23047 3.87947C2.33844 3.90507 2.44962 3.92226 2.56599 3.92226Z" fill="#E8E8E8"/>
<path d="M12.5225 1.48282C12.6025 1.32286 12.6425 1.16289 12.7225 1.00293H6.74386C6.36035 1.1457 5.98523 1.30566 5.62012 1.48282H12.5225Z" fill="#E8E8E8"/>
<path d="M10.2844 8.32178C9.48458 8.32178 8.84473 9.00162 8.84473 9.80144C8.84473 10.6412 9.48458 11.2811 10.2844 11.2811H20.4021C20.3221 11.1211 20.2421 10.9612 20.2021 10.7612H14.7234V9.9614H20.0821C20.0821 9.84143 20.0821 9.76145 20.0821 9.64147H12.6039V8.84166H20.2421C20.3221 8.68169 20.3621 8.52173 20.4421 8.36177V8.32178H14.2835H13.4837H10.2844Z" fill="#E8E8E8"/>
<path d="M17.6762 24.0377H20.2004V23.9977V22.0978V12.0805H20.1604H10.2827H10.2427C10.0971 12.0805 9.98234 12.0769 9.84277 12.0469V24.0377H17.6762Z" fill="#FDB714"/>
<path d="M10.2824 11.2806H20.4001C20.3201 11.1206 20.2401 10.9607 20.2002 10.7607H14.7214V9.96091H20.0802C20.0802 9.84094 20.0802 9.76096 20.0802 9.64098H12.6019V8.84117H20.2401C20.3201 8.68121 20.3601 8.52124 20.4401 8.36128V8.32129H14.2815H13.4817H10.2824C9.48263 8.32129 8.84277 9.00113 8.84277 9.80095C8.84277 10.6408 9.48263 11.2806 10.2824 11.2806Z" fill="white"/>
<path d="M2.22915 3.87947C2.33712 3.90506 2.44829 3.92226 2.56467 3.92226H12.6823C12.6024 3.76229 12.5224 3.60233 12.4824 3.40238H7.00364V2.60256H12.3624C12.3624 2.48259 12.3624 2.40261 12.3624 2.28263H4.88413V1.87353V1.48282H5.61996H12.5224C12.6024 1.32286 12.6423 1.16289 12.7223 1.00293H6.7437H2.56467C1.80484 1.00293 1.125 1.64278 1.125 2.4426C1.125 3.16043 1.59409 3.7283 2.22915 3.87947Z" fill="white"/>
<path d="M10.3219 7.56137H12.0516H12.4815H12.5214H13.5212V4.72203H12.5214H12.4815H12.0516H2.60373C2.44377 4.72203 2.32379 4.72203 2.16383 4.68204C1.98467 4.64205 1.80551 4.58246 1.63635 4.50288C1.46559 4.4229 1.30483 4.32252 1.16406 4.20215V5.06715V15.4795C1.16406 16.2794 1.32403 16.8792 1.72393 17.2391C2.16383 17.679 2.76369 17.639 2.76369 17.639H8.04248V16.6393V9.84085C8.04248 8.60113 9.04224 7.56137 10.3219 7.56137Z" fill="white"/>
<path d="M21.3204 11.3206C21.1204 11.0806 20.4006 10.1208 21.3204 8.40123H21.8802V7.60142H14.282V3.92227H13.6021C13.4022 3.72231 12.6823 2.72254 13.6021 1.00294H14.162V0.551045V0.203125H2.56468C1.32496 0.203125 0.325195 1.20289 0.325195 2.4826V6.26013V15.4796C0.325195 16.5194 0.605131 17.3192 1.165 17.8391C1.76486 18.3989 2.4847 18.4389 2.68465 18.4389C2.72464 18.4389 2.76463 18.4389 2.76463 18.4389H8.04341V22.8379C8.04341 23.8777 8.32335 24.6775 8.88322 25.1974C9.21994 25.5117 9.59186 25.6593 9.89099 25.7308C10.1245 25.7864 10.3153 25.7972 10.4029 25.7972C10.4429 25.7972 10.4829 25.7972 10.4829 25.7972H22.0002V19.865V11.3206H21.3204ZM20.4406 8.32125V8.36124C20.3606 8.5212 20.3206 8.68117 20.2406 8.84113H12.6024V9.64095H20.0806C20.0806 9.76092 20.0806 9.8409 20.0806 9.96087H14.7219V10.7607H20.2006C20.2406 10.9606 20.3206 11.1206 20.4006 11.2806H10.2829C9.48308 11.2806 8.84323 10.6407 8.84323 9.80091C8.84323 9.00109 9.48308 8.32125 10.2829 8.32125H13.4822H14.282H20.4406ZM8.04341 16.6393V17.6391H2.76463C2.76463 17.6391 2.16477 17.6791 1.72487 17.2392C1.32496 16.8793 1.165 16.2794 1.165 15.4796V5.0672V4.2022C1.30577 4.32257 1.46653 4.42295 1.63729 4.50293C1.80645 4.58251 1.98561 4.6421 2.16477 4.68209C2.32473 4.72208 2.44471 4.72208 2.60467 4.72208H12.0525H12.4824H12.5224H13.5222V7.56143H12.5224H12.4824H12.0525H10.3229C9.04318 7.56143 8.04341 8.60119 8.04341 9.8409V16.6393ZM2.56468 1.00294H6.74371H12.7223C12.6424 1.1629 12.6024 1.32287 12.5224 1.48283H5.61997H4.88414V1.87354V2.28264H12.3624C12.3624 2.40262 12.3624 2.4826 12.3624 2.60257H7.00365V3.40239H12.4824C12.5224 3.60234 12.6024 3.7623 12.6823 3.92227H2.56468C2.44831 3.92227 2.33713 3.90507 2.22916 3.87948C1.5941 3.72831 1.12501 3.16044 1.12501 2.44261C1.12501 1.64279 1.80485 1.00294 2.56468 1.00294ZM21.2004 20.9839V24.9974H15.6617H10.4429C10.4429 24.9974 9.88299 25.0374 9.4031 24.5975C9.00319 24.2376 8.80324 23.6377 8.80324 22.8379V18.4389V17.6391V11.5605C9.08317 11.8004 9.44309 11.9604 9.80301 12.0404C9.81741 12.044 9.829 12.0436 9.843 12.0468C9.98257 12.0768 10.0973 12.0804 10.2429 12.0804H10.2829H20.1606H20.2006H21.2004V20.9839Z" fill="#170006"/>
<path d="M10.2831 7.56098H10.3231H12.4826V4.72163H2.60489H2.5649C2.40494 4.72163 2.24497 4.72163 2.125 4.68164V16.6389H8.04363V9.84045C8.04363 8.60074 9.04341 7.56098 10.2831 7.56098Z" fill="#781921"/>
</svg>
