<svg width="32" height="30" viewBox="0 0 32 30" fill="none" xmlns="http://www.w3.org/2000/svg">
<path d="M16.0015 1.41992C10.0913 1.41992 5.03452 5.07374 2.9668 10.2458L5.06771 9.98526C7.07423 5.98007 11.2167 3.23053 16.0015 3.23053C20.7862 3.23053 24.9287 5.98001 26.9352 9.98526L29.0361 10.2458C26.9684 5.07374 21.9116 1.41992 16.0015 1.41992Z" fill="#781921"/>
<path d="M27.8659 20.8837H26.8643V10.02H27.8659C29.5971 10.02 31.0004 11.4234 31.0004 13.1546V17.7492C31.0004 19.4803 29.597 20.8837 27.8659 20.8837Z" fill="#781921"/>
<path d="M29.1757 19.5739H28.1741V10.0353C28.0727 10.0254 27.9699 10.02 27.8659 10.02H26.8643V20.8837H27.8659C29.0687 20.8837 30.1127 20.2059 30.6383 19.2117C30.2015 19.4426 29.704 19.5739 29.1757 19.5739Z" fill="#781921"/>
<path d="M4.13551 20.8837H5.13714V10.02H4.13551C2.40432 10.02 1.00098 11.4234 1.00098 13.1546V17.7492C1.00098 19.4803 2.40438 20.8837 4.13551 20.8837Z" fill="#781921"/>
<path d="M5.13714 19.4907H3.77918C2.96978 19.3253 2.35894 18.6076 2.35894 17.7501V11.7265C2.35894 11.0072 2.78877 10.3866 3.40499 10.1074C2.02633 10.4367 1.00098 11.676 1.00098 13.1555V17.7501C1.00098 19.4813 2.40438 20.8846 4.13551 20.8846H5.13714V19.4907Z" fill="#781921"/>
<path d="M16.9063 28.5792H15.0957C14.5958 28.5792 14.1904 28.1738 14.1904 27.6739C14.1904 27.1739 14.5958 26.7686 15.0957 26.7686H16.9063C17.4063 26.7686 17.8117 27.1739 17.8117 27.6739C17.8117 28.1738 17.4063 28.5792 16.9063 28.5792Z" fill="#781921"/>
<path d="M15.3558 27.6739C15.3558 27.1739 15.7611 26.7686 16.2611 26.7686H15.0957C14.5958 26.7686 14.1904 27.1739 14.1904 27.6739C14.1904 28.1738 14.5958 28.5792 15.0957 28.5792H16.2611C15.7611 28.5792 15.3558 28.1738 15.3558 27.6739Z" fill="#781921"/>
<path d="M16 22C19.866 22 23 18.866 23 15C23 11.134 19.866 8 16 8C12.134 8 9 11.134 9 15C9 18.866 12.134 22 16 22Z" fill="#FDB714"/>
<path d="M14.0086 10C13.2245 10.4956 12.5422 11.1376 12 11.8876" stroke="#170006" stroke-miterlimit="10" stroke-dasharray="15 15"/>
<path d="M26.952 20.8843C25.2071 24.3954 21.8234 26.9483 17.8018 27.5422" stroke="#170006" stroke-miterlimit="10"/>
<path d="M5.06738 9.98471C7.0739 5.97952 11.2164 3.22998 16.0011 3.22998C20.7859 3.22998 24.9284 5.97946 26.9349 9.98471" stroke="#170006" stroke-miterlimit="10"/>
<path d="M2.96582 10.2458C5.03354 5.07374 10.0903 1.41992 16.0005 1.41992C21.9107 1.41992 26.9674 5.07374 29.0351 10.2458" stroke="#170006" stroke-miterlimit="10"/>
<path d="M27.8659 20.8837H26.8643V10.02H27.8659C29.5971 10.02 31.0004 11.4234 31.0004 13.1546V17.7492C31.0004 19.4803 29.597 20.8837 27.8659 20.8837Z" stroke="#170006" stroke-miterlimit="10"/>
<path d="M5.13714 12.7359V10.02H4.13551C2.40432 10.02 1.00098 11.4234 1.00098 13.1546V17.7492C1.00098 19.4803 2.40438 20.8837 4.13551 20.8837H5.13714V13.6412" stroke="#170006" stroke-miterlimit="10"/>
<path d="M16.9063 28.5792H15.0957C14.5958 28.5792 14.1904 28.1738 14.1904 27.6739C14.1904 27.1739 14.5958 26.7686 15.0957 26.7686H16.9063C17.4063 26.7686 17.8117 27.1739 17.8117 27.6739C17.8117 28.1738 17.4063 28.5792 16.9063 28.5792Z" stroke="#170006" stroke-miterlimit="10"/>
<path d="M16 22C19.866 22 23 18.866 23 15C23 11.134 19.866 8 16 8C12.134 8 9 11.134 9 15C9 18.866 12.134 22 16 22Z" stroke="#170006" stroke-miterlimit="10"/>
<path d="M13 16H11V15.6334L12.336 14.8852C12.5077 14.7891 12.6059 14.6514 12.6059 14.5069C12.6059 14.2269 12.2446 14 11.7988 14C11.3576 14 11.0001 14.2246 11.0001 14.5016V14.6191" stroke="#170006" stroke-miterlimit="10"/>
<path d="M15 13V17" stroke="#170006" stroke-miterlimit="10"/>
<path d="M14 13V15H15" stroke="#170006" stroke-miterlimit="10"/>
<path d="M19 14H21V14.2952L19.8431 17" stroke="#170006" stroke-miterlimit="10"/>
<path d="M18 13L17 17" stroke="#170006" stroke-miterlimit="10"/>
</svg>
