<svg width="28" height="28" viewBox="0 0 28 28" fill="none" xmlns="http://www.w3.org/2000/svg">
<g clip-path="url(#clip0_1616_389)">
<path d="M27.0106 12.0819L22.3999 14.6299L14.4853 19.0073C14.1835 19.1753 13.8164 19.1753 13.5146 19.0073L5.59994 14.6299L0.989276 12.0819C0.667618 11.905 0.467773 11.567 0.467773 11.1999C0.467773 10.8328 0.667618 10.4948 0.989276 10.3179L13.5146 3.3926C13.8164 3.2246 14.1835 3.2246 14.4853 3.3926L27.0106 10.3179C27.3323 10.4948 27.5321 10.8328 27.5321 11.1999C27.5321 11.567 27.3323 11.905 27.0106 12.0819Z" fill="#FDB714"/>
<path d="M27.0123 10.3157L14.4865 3.39175C14.1837 3.22424 13.8159 3.22424 13.5131 3.39175L13.2998 3.50981L25.6123 10.3157C25.9338 10.4937 26.1332 10.8321 26.1332 11.1995C26.1332 11.567 25.9338 11.9054 25.6123 12.0834L13.2998 18.8893L13.5131 19.0073C13.8159 19.1749 14.1837 19.1749 14.4865 19.0073L27.0123 12.0834C27.3338 11.9054 27.5332 11.567 27.5332 11.1995C27.5332 10.8321 27.3338 10.4937 27.0123 10.3157Z" fill="#37474F"/>
<path d="M14.0003 12.5998C15.289 12.5998 16.3337 11.973 16.3337 11.1998C16.3337 10.4266 15.289 9.7998 14.0003 9.7998C12.7117 9.7998 11.667 10.4266 11.667 11.1998C11.667 11.973 12.7117 12.5998 14.0003 12.5998Z" fill="#781921"/>
<path d="M13.9998 9.7998C13.7647 9.80135 13.5303 9.82526 13.2998 9.8712C14.2439 10.0504 14.9331 10.574 14.9331 11.1998C14.9331 11.8256 14.2439 12.3492 13.2998 12.5284C13.5303 12.5744 13.7647 12.5983 13.9998 12.5998C15.2883 12.5998 16.3331 11.9731 16.3331 11.1998C16.3331 10.4265 15.2883 9.7998 13.9998 9.7998Z" fill="#781921"/>
<path d="M22.3996 19.5996V21.0183C22.3995 21.6401 22.0898 22.221 21.5736 22.5676C19.3204 24.0263 16.6834 24.7802 13.9996 24.7329C11.3158 24.7802 8.67885 24.0263 6.42561 22.5676C5.90942 22.221 5.59972 21.6401 5.59961 21.0183V19.5996C10.3527 23.9551 17.6465 23.9551 22.3996 19.5996Z" fill="#FDB714"/>
<path d="M22.3996 14.6299V19.5999C17.6465 23.9554 10.3527 23.9554 5.59961 19.5999V14.6299L13.5143 19.0072C13.816 19.1752 14.1832 19.1752 14.4849 19.0072L22.3996 14.6299Z" fill="#781921"/>
<path d="M1.86693 20.5332C2.38239 20.5332 2.80026 20.1153 2.80026 19.5998C2.80026 19.0844 2.38239 18.6665 1.86693 18.6665C1.35146 18.6665 0.933594 19.0844 0.933594 19.5998C0.933594 20.1153 1.35146 20.5332 1.86693 20.5332Z" fill="#FDB714"/>
<path d="M1.8668 20.5332C2.64 20.5332 3.2668 21.16 3.2668 21.9332V23.7999C3.2668 24.0576 3.05786 24.2665 2.80013 24.2665H0.933464C0.675731 24.2665 0.466797 24.0576 0.466797 23.7999V21.9332C0.466797 21.16 1.0936 20.5332 1.8668 20.5332Z" fill="#FDB714"/>
<path d="M1.86699 20.5332C1.62054 20.5345 1.3789 20.6015 1.16699 20.7273C1.59904 20.9753 1.8659 21.435 1.86699 21.9332V23.7999C1.86699 24.0576 1.65806 24.2665 1.40033 24.2665H2.80033C3.05806 24.2665 3.26699 24.0576 3.26699 23.7999V21.9332C3.26699 21.16 2.64019 20.5332 1.86699 20.5332Z" fill="#FDB714"/>
<path d="M0.933333 24.7331H2.8C3.31547 24.7331 3.73333 24.3152 3.73333 23.7998V21.9331C3.73184 21.3445 3.45157 20.7914 2.9778 20.4421C3.2505 20.089 3.33643 19.6261 3.20867 19.1986C3.08091 18.7711 2.75509 18.4313 2.33333 18.2856V13.4304C2.33578 13.409 2.33968 13.3878 2.345 13.367L5.13333 14.9084V21.0166C5.13295 21.7937 5.51945 22.5199 6.1642 22.9537C8.49579 24.4625 11.2232 25.2443 14 25.1998C16.7768 25.2443 19.5042 24.4625 21.8358 22.9537C22.4806 22.5199 22.8671 21.7937 22.8667 21.0166V14.9084L27.2379 12.4924C27.7081 12.2323 28 11.7374 28 11.2C28 10.6627 27.7081 10.1677 27.2379 9.90758L14.7121 2.98364C14.2694 2.73722 13.7306 2.73722 13.2879 2.98364L0.762067 9.90711C0.291855 10.1672 1.07753e-05 10.6622 1.07753e-05 11.1995C1.07753e-05 11.7369 0.291855 12.2319 0.762067 12.492L1.50453 12.9026C1.43589 13.0702 1.40039 13.2494 1.4 13.4304V18.2838C0.978244 18.4294 0.652424 18.7692 0.524663 19.1967C0.396902 19.6242 0.482837 20.0871 0.755533 20.4402C0.281235 20.7899 0.000900639 21.3438 0 21.9331V23.7998C0 24.3152 0.417868 24.7331 0.933333 24.7331ZM21.3145 22.1795C19.1372 23.585 16.5912 24.3114 14 24.2664C11.4088 24.3114 8.86281 23.585 6.68547 22.1795C6.29832 21.9192 6.06628 21.4831 6.06667 21.0166L6.06667 20.6008C10.7282 24.2439 17.2718 24.2439 21.9333 20.6008V21.0166C21.9337 21.4831 21.7017 21.9192 21.3145 22.1795ZM21.9333 19.3902C17.4056 23.403 10.5944 23.403 6.06667 19.3902V15.4236L13.2879 19.415C13.7306 19.6614 14.2694 19.6614 14.7121 19.415L21.9333 15.4245V19.3902ZM0.933333 11.1998C0.931882 11.0018 1.03948 10.819 1.21333 10.7242L13.7387 3.80031C13.9012 3.7101 14.0988 3.7101 14.2613 3.80031L26.7867 10.7242C26.9595 10.82 27.0668 11.0021 27.0668 11.1998C27.0668 11.3974 26.9595 11.5795 26.7867 11.6753L14.2613 18.5992C14.0987 18.6893 13.9013 18.6893 13.7387 18.5992L3.41553 12.8924L11.4422 11.9665C11.8715 12.6198 12.8427 13.0664 14 13.0664C15.5699 13.0664 16.8 12.2465 16.8 11.1998C16.8 10.153 15.5699 9.33311 14 9.33311C12.5067 9.33311 11.3195 10.0798 11.2107 11.0537L2.6418 12.0426C2.46951 12.0612 2.30221 12.1118 2.14853 12.1919L1.2152 11.6753C1.04063 11.581 0.932252 11.3982 0.933333 11.1998ZM12.1333 11.1998C12.1333 10.7592 12.9318 10.2664 14 10.2664C15.0682 10.2664 15.8667 10.7592 15.8667 11.1998C15.8667 11.6403 15.0682 12.1331 14 12.1331C12.9318 12.1331 12.1333 11.6403 12.1333 11.1998ZM0.933333 23.7998V21.9331C0.933333 21.4176 1.3512 20.9998 1.86667 20.9998C2.38213 20.9998 2.8 21.4176 2.8 21.9331V23.7998H0.933333ZM1.4 19.5998C1.4 19.342 1.60893 19.1331 1.86667 19.1331C2.1244 19.1331 2.33333 19.342 2.33333 19.5998C2.33333 19.8575 2.1244 20.0664 1.86667 20.0664C1.60893 20.0664 1.4 19.8575 1.4 19.5998Z" fill="#170006"/>
</g>
<defs>
<clipPath id="clip0_1616_389">
<rect width="28" height="28" fill="white"/>
</clipPath>
</defs>
</svg>
