<svg width="36" height="20" viewBox="0 0 36 20" fill="none" xmlns="http://www.w3.org/2000/svg">
<path d="M12.79 15.8981L13.9731 15.7291L14.5364 16.7994L18.0855 10.4336H16.0575L12.79 15.8981Z" fill="#781921"/>
<path d="M34.9287 5.36306C34.9287 3.166 33.8584 1.36328 32.619 1.36328H21.9717C22.535 2.26464 22.873 3.61668 22.873 5.30673C22.873 6.99678 22.535 8.40515 21.9717 9.30651H32.5627C33.8584 9.30651 34.9287 7.56013 34.9287 5.36306Z" fill="#ECEDF0"/>
<path d="M19.5508 10.4897L23.0999 16.7993L23.6632 15.7289L24.9026 15.8979L21.5788 10.4897H19.5508Z" fill="#781921"/>
<path d="M20.2831 9.3067C20.9028 9.3067 21.7478 7.72932 21.7478 5.30691C21.7478 2.88451 20.9028 1.30713 20.2831 1.30713H18.7193H18.6494C19.0291 1.76851 19.3412 2.33581 19.5654 2.98084C19.8065 3.67545 19.9451 4.45963 19.9451 5.30691C19.9451 5.75816 19.9029 6.19419 19.8302 6.61163C19.6398 7.70453 19.2201 8.65434 18.6494 9.3067H18.7953H20.2831Z" fill="#781921"/>
<path d="M5.74837 5.36355C5.74837 3.18339 4.69378 1.39363 3.46681 1.36659C3.45723 1.36659 3.44822 1.36377 3.43864 1.36377C2.19927 1.36377 1.12891 3.22282 1.12891 5.36355C1.12891 7.26598 1.97449 8.89801 3.03246 9.27827C3.04373 9.28221 3.05556 9.28503 3.06739 9.28897C3.12711 9.30869 3.18682 9.32615 3.2471 9.33798C3.27133 9.34249 3.29611 9.34418 3.3209 9.34756C3.36033 9.35319 3.39921 9.36164 3.43864 9.36333C3.44822 9.36333 3.45723 9.36108 3.46624 9.36052C3.5192 9.35939 3.57215 9.35376 3.62398 9.34587C3.64314 9.34305 3.66173 9.34193 3.68088 9.33855C4.81434 9.11602 5.74837 7.36288 5.74837 5.36355Z" fill="#FDB714"/>
<path d="M18.7628 5.3074C18.7628 4.07366 18.4253 2.96443 17.9099 2.22869C17.898 2.21179 17.8851 2.19658 17.8727 2.18025C17.8417 2.13743 17.8096 2.09687 17.7775 2.05687C17.3978 1.5876 16.9392 1.30762 16.453 1.30762H5.63672C5.65137 1.32564 5.66432 1.34593 5.67841 1.36395C6.44231 2.31996 6.93242 3.70411 6.93242 5.3074C6.93242 5.31698 6.9313 5.32599 6.9313 5.33557C6.92566 6.95802 6.4209 8.41089 5.63672 9.30718H5.67841H16.453C17.6924 9.30718 18.7628 7.50446 18.7628 5.3074Z" fill="#ECEDF0"/>
<path d="M32.5636 0.236816H3.43839C1.523 0.236816 0.00195312 2.49022 0.00195312 5.3633C0.00195312 8.23638 1.523 10.4898 3.43839 10.4898H14.7054L10.5366 17.4753L13.3533 17.0246L14.48 19.2217L18.8178 11.3911L23.1556 19.1654L24.2823 16.9683L27.0991 17.419L22.9303 10.4334H32.5636C34.479 10.4334 36 8.18005 36 5.30696C36 2.43388 34.5353 0.236816 32.5636 0.236816ZM3.68119 9.33829C3.6626 9.34224 3.64345 9.3428 3.62429 9.34562C3.5719 9.3535 3.51951 9.35914 3.46655 9.36026C3.45698 9.36026 3.44796 9.36308 3.43895 9.36308C3.39952 9.36139 3.36064 9.35294 3.32121 9.34731C3.29642 9.34393 3.2722 9.34224 3.24741 9.33773C3.18657 9.3259 3.12685 9.30844 3.0677 9.28872C3.05587 9.28477 3.04461 9.28196 3.03277 9.27802C1.97424 8.89775 1.12865 7.26573 1.12865 5.3633C1.12865 3.22257 2.19902 1.36352 3.43839 1.36352C3.44796 1.36352 3.45698 1.36577 3.46655 1.36633C4.69353 1.39337 5.74812 3.18314 5.74812 5.3633C5.74812 7.36263 4.81409 9.11577 3.68119 9.33829ZM5.67714 9.30675H5.63545C6.41963 8.41046 6.92439 6.95758 6.93003 5.33513C6.93003 5.32555 6.93115 5.31654 6.93115 5.30696C6.93115 3.70367 6.44104 2.31952 5.67714 1.36352C5.66249 1.34549 5.6501 1.32521 5.63545 1.30718H16.4518C16.9379 1.30718 17.3965 1.58717 17.7762 2.05644C17.8083 2.09643 17.8404 2.137 17.8714 2.17981C17.8838 2.19671 17.8968 2.21136 17.9086 2.22826C18.4241 2.96399 18.7615 4.07323 18.7615 5.30696C18.7615 7.50403 17.6911 9.30675 16.4518 9.30675H5.67714ZM14.5364 16.7993L13.973 15.7289L12.79 15.8979L16.0574 10.4334H18.0855L14.5364 16.7993ZM18.7947 9.30675H18.6488C19.2195 8.65439 19.6398 7.70458 19.8296 6.61168C19.9023 6.1948 19.9445 5.75821 19.9445 5.30696C19.9445 4.45969 19.806 3.6755 19.5648 2.98089C19.3406 2.33586 19.0285 1.768 18.6488 1.30718H18.7187H20.2825C20.9022 1.30718 21.7473 2.88456 21.7473 5.30696C21.7473 7.72937 20.9022 9.30675 20.2825 9.30675H18.7947ZM24.902 15.8979L23.6626 15.7289L23.0993 16.7993L19.5502 10.4898H21.5782L24.902 15.8979ZM32.5636 9.30675H21.9726C22.5359 8.40539 22.874 6.99701 22.874 5.30696C22.874 3.61691 22.5359 2.26488 21.9726 1.36352H32.6199C33.8593 1.36352 34.9296 3.16623 34.9296 5.3633C34.9296 7.56036 33.8593 9.30675 32.5636 9.30675Z" fill="#170006"/>
</svg>
