<svg width="28" height="28" viewBox="0 0 28 28" fill="none" xmlns="http://www.w3.org/2000/svg">
<path fill-rule="evenodd" clip-rule="evenodd" d="M5.96186 14.9331C8.76924 14.9331 11.0741 17.0828 11.3212 19.8258V20.7164H0.602539V19.8258C0.849672 17.0828 3.15453 14.9331 5.96186 14.9331Z" fill="#FDC72E"/>
<path fill-rule="evenodd" clip-rule="evenodd" d="M9.86748 20.7162H0.602539V19.8256C0.827961 17.3235 2.76565 15.3154 5.23501 14.9819C7.70442 15.3154 9.64211 17.3235 9.86753 19.8256V20.7162H9.86748Z" fill="#FDB714"/>
<path d="M6.53453 14.8468C7.91326 14.5283 8.77274 13.1524 8.45425 11.7737C8.13576 10.395 6.75989 9.53549 5.38117 9.85398C4.00244 10.1725 3.14296 11.5483 3.46145 12.9271C3.77994 14.3058 5.15581 15.1653 6.53453 14.8468Z" fill="#ECEEF0"/>
<path fill-rule="evenodd" clip-rule="evenodd" d="M5.2548 14.8168C4.18298 14.51 3.39844 13.5229 3.39844 12.3525C3.39844 11.1821 4.18293 10.195 5.2548 9.88818C6.32668 10.195 7.11117 11.1821 7.11117 12.3525C7.11117 13.5229 6.32663 14.51 5.2548 14.8168Z" fill="#ECEEF0"/>
<path fill-rule="evenodd" clip-rule="evenodd" d="M22.04 14.9331C24.8474 14.9331 27.1522 17.0828 27.3994 19.8258V20.7164H16.6807V19.8258C16.9278 17.0828 19.2327 14.9331 22.04 14.9331Z" fill="#FDC72E"/>
<path fill-rule="evenodd" clip-rule="evenodd" d="M25.9456 20.7162H16.6807V19.8256C16.9061 17.3235 18.8438 15.3154 21.3131 14.9819C23.7825 15.3154 25.7202 17.3235 25.9457 19.8256V20.7162H25.9456Z" fill="#FDB714"/>
<path d="M22.0406 14.9156C23.4561 14.9156 24.6036 13.7681 24.6036 12.3526C24.6036 10.9371 23.4561 9.78955 22.0406 9.78955C20.6251 9.78955 19.4775 10.9371 19.4775 12.3526C19.4775 13.7681 20.6251 14.9156 22.0406 14.9156Z" fill="#ECEEF0"/>
<path fill-rule="evenodd" clip-rule="evenodd" d="M21.3329 14.8168C20.2611 14.51 19.4766 13.5229 19.4766 12.3525C19.4766 11.1821 20.2611 10.195 21.3329 9.88818C22.4048 10.195 23.1893 11.1821 23.1893 12.3525C23.1893 13.5229 22.4048 14.51 21.3329 14.8168Z" fill="#ECEEF0"/>
<path fill-rule="evenodd" clip-rule="evenodd" d="M11.9376 15.3056C10.7261 13.5504 11.0986 10.5322 14.0004 10.5322C16.9022 10.5322 17.2747 13.5504 16.0632 15.3056C15.5071 16.1112 14.7523 16.506 14.0004 16.5052C13.2484 16.506 12.4936 16.1112 11.9376 15.3056Z" fill="#ECEEF0"/>
<path fill-rule="evenodd" clip-rule="evenodd" d="M11.9385 15.3054C10.8231 13.6894 11.0505 11.0028 13.3584 10.5869C15.6663 11.0028 15.8937 13.6894 14.7783 15.3054C14.3817 15.88 13.8841 16.2455 13.3584 16.4077C12.8328 16.2455 12.3351 15.88 11.9385 15.3054Z" fill="#ECEEF0"/>
<path fill-rule="evenodd" clip-rule="evenodd" d="M12.852 16.6511L10.894 17.1326C10.1004 17.3356 9.23115 17.5658 8.73399 17.8574C8.0854 18.2377 7.85423 18.6259 7.77483 19.6591C7.67431 21.4844 7.70767 23.181 7.78122 24.9246C7.81776 25.7895 8.52924 26.4716 9.39489 26.4716H18.607C19.4727 26.4716 20.1842 25.7895 20.2207 24.9246C20.2943 23.181 20.3277 21.4844 20.2271 19.6591C20.1477 18.6259 19.9165 18.2377 19.268 17.8574C18.7707 17.5658 17.9015 17.3356 17.108 17.1326L15.15 16.6511C14.7549 16.5539 14.378 16.5054 14.001 16.5054C13.624 16.5054 13.2471 16.5539 12.852 16.6511H12.852Z" fill="#781921"/>
<path fill-rule="evenodd" clip-rule="evenodd" d="M12.852 16.6513L10.894 17.1328C10.1005 17.3358 9.23121 17.566 8.73399 17.8576C8.0854 18.2379 7.85423 18.6261 7.77483 19.6592C7.67431 21.4845 7.70767 23.1811 7.78122 24.9248C7.81776 25.7896 8.52924 26.4717 9.39489 26.4717H17.6419C18.3912 26.3557 18.9487 25.7051 18.9816 24.9248C19.0552 23.1812 19.0885 21.4845 18.988 19.6592C18.9086 18.626 18.6774 18.2378 18.0288 17.8576C17.5316 17.566 16.6624 17.3358 15.8688 17.1328L13.9108 16.6513C13.7312 16.6071 13.5552 16.5729 13.3814 16.5488C13.2075 16.5729 13.0317 16.6071 12.852 16.6513Z" fill="#781921"/>
<path fill-rule="evenodd" clip-rule="evenodd" d="M13.4686 16.5389L12.5713 22.9863L14.0008 24.9889L15.4304 22.9863L14.533 16.5389C14.3544 16.5175 14.1776 16.5068 14.0008 16.5068C13.8241 16.5068 13.6472 16.5176 13.4685 16.5389L13.4686 16.5389Z" fill="#FDB714"/>
<path fill-rule="evenodd" clip-rule="evenodd" d="M13.4686 16.5388L12.5713 22.9863L13.6285 24.4672L14.7684 22.8704L13.8829 16.5083C13.7453 16.512 13.6075 16.5221 13.4685 16.5388H13.4686Z" fill="#FDB714"/>
<path fill-rule="evenodd" clip-rule="evenodd" d="M14.259 1.68484L15.1894 3.66502L17.3601 3.93791C17.4723 3.95202 17.5608 4.02508 17.5957 4.13265C17.6307 4.24022 17.6021 4.35135 17.5196 4.42873L15.9238 5.92542L16.3351 8.0742C16.3564 8.18532 16.3142 8.29197 16.2227 8.35846C16.1312 8.42496 16.0167 8.43213 15.9176 8.37755L14.001 7.32241L12.0844 8.37755C11.9853 8.43207 11.8708 8.42496 11.7793 8.35846C11.6878 8.29197 11.6456 8.18532 11.6669 8.0742L12.0781 5.92542L10.4824 4.42873C10.3998 4.35135 10.3713 4.24028 10.4062 4.13265C10.4412 4.02508 10.5296 3.95196 10.6418 3.93791L12.8126 3.66502L13.7429 1.68484C13.791 1.58241 13.8878 1.521 14.001 1.521C14.1141 1.521 14.2109 1.58246 14.259 1.68484Z" fill="#FDB714"/>
<path fill-rule="evenodd" clip-rule="evenodd" d="M15.6122 8.20925L13.5863 7.09395L11.6623 8.15314C11.6603 8.12738 11.6617 8.1008 11.6669 8.07401L12.0781 5.92523L10.4824 4.42854C10.3998 4.35116 10.3713 4.24009 10.4062 4.13246C10.4412 4.02489 10.5296 3.95183 10.6418 3.93772L12.8126 3.66483L13.6833 1.81152L14.5141 3.57995L16.6849 3.85284C16.7971 3.86695 16.8856 3.94002 16.9205 4.04764C16.9555 4.15521 16.9269 4.26634 16.8444 4.34372L15.2486 5.84041L15.6599 7.98919C15.6753 8.06936 15.6575 8.14718 15.6122 8.2093L15.6122 8.20925Z" fill="#FDB714"/>
<path fill-rule="evenodd" clip-rule="evenodd" d="M22.2139 3.87609L22.8412 5.21118L24.3048 5.39515C24.3805 5.40466 24.4401 5.45394 24.4637 5.52645C24.4872 5.59902 24.468 5.67389 24.4124 5.72606L23.3364 6.73516L23.6138 8.18399C23.6281 8.25891 23.5996 8.33083 23.538 8.37567C23.4763 8.42051 23.399 8.42533 23.3322 8.38858L22.04 7.67715L20.7477 8.38858C20.6809 8.42533 20.6038 8.42051 20.542 8.37567C20.4803 8.33083 20.4518 8.25891 20.4662 8.18399L20.7435 6.73521L19.6676 5.72606C19.612 5.67389 19.5927 5.59897 19.6163 5.52645C19.6399 5.45388 19.6995 5.40466 19.7752 5.39515L21.2388 5.21118L21.866 3.87609C21.8985 3.80708 21.9638 3.76562 22.0401 3.76562C22.1164 3.76562 22.1817 3.80708 22.2141 3.87609H22.2139Z" fill="#FDB714"/>
<path fill-rule="evenodd" clip-rule="evenodd" d="M23.1264 8.27501L21.7605 7.523L20.4633 8.23717C20.4619 8.21978 20.4628 8.20189 20.4663 8.18379L20.7436 6.73501L19.6676 5.72586C19.612 5.67369 19.5928 5.59877 19.6163 5.52625C19.6399 5.45368 19.6995 5.40446 19.7751 5.39495L21.2387 5.21098L21.8258 3.96143L22.386 5.15378L23.8496 5.33775C23.9253 5.34726 23.9849 5.39654 24.0085 5.46905C24.0321 5.54162 24.0128 5.61649 23.9572 5.66866L22.8813 6.67775L23.1586 8.12659C23.1689 8.18062 23.157 8.23312 23.1264 8.27501Z" fill="#FDB714"/>
<path fill-rule="evenodd" clip-rule="evenodd" d="M6.13579 3.87609L6.76306 5.21118L8.22666 5.39515C8.30235 5.40466 8.36196 5.45394 8.38553 5.52645C8.4091 5.59902 8.38985 5.67389 8.33423 5.72606L7.25831 6.73516L7.53563 8.18399C7.55001 8.25891 7.52152 8.33083 7.45983 8.37567C7.39814 8.42051 7.32092 8.42533 7.2541 8.38858L5.96183 7.67715L4.66962 8.38858C4.60279 8.42533 4.52563 8.42051 4.46389 8.37567C4.4022 8.33083 4.37371 8.25891 4.38809 8.18399L4.66541 6.73521L3.58949 5.72606C3.53387 5.67389 3.51462 5.59897 3.53819 5.52645C3.56176 5.45388 3.62137 5.40466 3.69706 5.39515L5.16066 5.21118L5.78792 3.87609C5.82035 3.80708 5.88565 3.76562 5.96194 3.76562C6.03823 3.76562 6.10353 3.80708 6.13596 3.87609H6.13579Z" fill="#FDB714"/>
<path fill-rule="evenodd" clip-rule="evenodd" d="M7.04822 8.27501L5.68229 7.523L4.3851 8.23717C4.38373 8.21978 4.38466 8.20189 4.38816 8.18379L4.66543 6.73501L3.58951 5.72586C3.53389 5.67369 3.51464 5.59877 3.53816 5.52625C3.56173 5.45368 3.62134 5.40446 3.69702 5.39495L5.16062 5.21098L5.74769 3.96143L6.30791 5.15378L7.77151 5.33775C7.8472 5.34726 7.90681 5.39654 7.93038 5.46905C7.95395 5.54162 7.9347 5.61649 7.87909 5.66866L6.80316 6.67775L7.08048 8.12659C7.09082 8.18062 7.0789 8.23312 7.04827 8.27501H7.04822Z" fill="#FDB714"/>
<path fill-rule="evenodd" clip-rule="evenodd" d="M5.20627 5.58928C5.33648 5.57293 5.44902 5.49095 5.50491 5.37206L5.96145 4.40098L6.4177 5.37206C6.47332 5.49095 6.58614 5.57293 6.71608 5.58928L7.78101 5.72294L6.99837 6.45706C6.90267 6.54697 6.85947 6.67926 6.88397 6.80843L7.08587 7.86226L6.14591 7.34459C6.03101 7.28131 5.89155 7.28131 5.7766 7.34459L4.83658 7.86226L5.03821 6.80843C5.06271 6.67926 5.01978 6.54697 4.92408 6.45706L4.14145 5.72294L5.2061 5.58928H5.20627ZM4.24705 6.87137L4.00877 8.11579C3.96606 8.33722 4.05356 8.55706 4.23573 8.68962C4.33668 8.76318 4.45426 8.80037 4.57315 8.80037C4.6683 8.80037 4.76346 8.77636 4.85151 8.72812L5.9615 8.11683L7.07177 8.72812C7.26919 8.83673 7.50484 8.82197 7.687 8.68962C7.86966 8.55706 7.95666 8.33722 7.91395 8.11579L7.67595 6.87137L8.60039 6.00441C8.76434 5.85019 8.82341 5.62116 8.75379 5.40684C8.68395 5.19252 8.50179 5.04202 8.27828 5.0138L7.02091 4.85592L6.48212 3.70902C6.38642 3.50498 6.18692 3.37821 5.9615 3.37821C5.73608 3.37821 5.53609 3.50498 5.44038 3.70902L4.90182 4.85592L3.64445 5.0138C3.42066 5.04202 3.2385 5.19252 3.16916 5.40684C3.09905 5.62138 3.15833 5.85047 3.32283 6.00441L4.24705 6.87137ZM21.2846 5.58928C21.4145 5.57293 21.5273 5.49095 21.5829 5.37206L22.0397 4.40098L22.4958 5.37206C22.5517 5.49095 22.6642 5.57293 22.7944 5.58928L23.8591 5.72294L23.0764 6.45706C22.9807 6.54697 22.9375 6.67926 22.9623 6.80843L23.1639 7.86226L22.224 7.34459C22.109 7.28131 21.9696 7.28131 21.8549 7.34459L20.9147 7.86226L21.1166 6.80843C21.1411 6.67926 21.0979 6.54697 21.0022 6.45706L20.2196 5.72294L21.2845 5.58928H21.2846ZM20.3251 6.87137L20.0868 8.11579C20.0446 8.33722 20.1311 8.55706 20.3137 8.68962C20.415 8.76318 20.5325 8.80037 20.6512 8.80037C20.7463 8.80037 20.8415 8.77636 20.9295 8.72812L22.0398 8.11683L23.1498 8.72812C23.3472 8.83673 23.5828 8.82197 23.765 8.68962C23.9477 8.55706 24.0347 8.33722 23.992 8.11579L23.7542 6.87137L24.6787 6.00441C24.8421 5.84998 24.9027 5.62116 24.8316 5.40684C24.7631 5.19252 24.5812 5.04202 24.3564 5.0138L23.0993 4.85592L22.5605 3.70902C22.4648 3.50498 22.265 3.37821 22.0398 3.37821C21.8147 3.37821 21.6149 3.50476 21.5185 3.70902L20.9799 4.85592L19.7226 5.0138C19.499 5.04202 19.3169 5.19252 19.2473 5.40684C19.1774 5.62138 19.2365 5.85047 19.401 6.00441L20.3251 6.87137ZM12.8587 4.04354C12.9889 4.02719 13.1014 3.94521 13.1573 3.82659L14.0006 2.03202L14.8433 3.82659C14.8992 3.94521 15.0117 4.02719 15.1425 4.04354L17.1097 4.29078L15.6631 5.64698C15.5674 5.73683 15.5242 5.86944 15.5493 5.99834L15.9217 7.94555L14.1849 6.9895C14.07 6.92623 13.9306 6.92623 13.8159 6.9895L12.0788 7.94555L12.452 5.99834C12.4765 5.86944 12.4333 5.73688 12.3376 5.64698L10.8918 4.29078L12.8587 4.04354H12.8587ZM11.6599 6.06134L11.288 8.00537C11.2389 8.26235 11.3396 8.51752 11.5515 8.67147C11.7635 8.82541 12.0373 8.84253 12.2664 8.71626L14.0006 7.7618L15.7343 8.71626C15.8365 8.77242 15.947 8.80009 16.0574 8.80009C16.195 8.80009 16.3318 8.75689 16.4489 8.67147C16.6611 8.51752 16.7617 8.26235 16.7125 8.00537L16.3405 6.06134L17.7845 4.70723C17.9754 4.52823 18.0436 4.26229 17.9627 4.01373C17.8817 3.76463 17.6701 3.58958 17.4104 3.5572L15.4464 3.31023L14.6055 1.51884H14.6047C14.4938 1.28187 14.2621 1.13477 14.0006 1.13477C13.739 1.13477 13.5068 1.28182 13.3959 1.51884L12.5542 3.31023L10.5902 3.5572C10.3305 3.58963 10.1189 3.76463 10.038 4.01373C9.95702 4.26256 10.0253 4.52823 10.2161 4.7075L11.6598 6.06134H11.6599ZM27.0114 20.3285H20.649C20.6403 20.101 20.6298 19.8714 20.6174 19.6394C20.6166 19.6368 20.6166 19.6342 20.6166 19.6313C20.5291 18.4965 20.2502 17.9846 19.4684 17.5262C19.1581 17.3449 18.7372 17.1901 18.2598 17.0467C19.2035 15.9547 20.58 15.3159 22.0397 15.3159C24.6364 15.3159 26.7716 17.2594 27.0114 19.839V20.3285ZM19.8461 24.9169C19.9091 23.4183 19.9595 21.6251 19.8527 19.6858C19.7805 18.7482 19.5962 18.4888 19.0812 18.1865C18.606 17.9081 17.6494 17.6638 17.0167 17.5017L15.0595 17.0206C15.0348 17.014 15.0103 17.009 14.9854 17.0029L15.8126 22.9436C15.8255 23.0406 15.8015 23.1389 15.7445 23.2188L14.3119 25.2258C14.2402 25.3262 14.1242 25.386 14.0006 25.386C13.8769 25.386 13.7604 25.3262 13.6887 25.2258L12.2561 23.2188C12.1992 23.1389 12.1751 23.0406 12.1889 22.9436L13.015 17.0029C12.9905 17.009 12.966 17.014 12.9412 17.0206L10.9806 17.5022C10.3514 17.6638 9.39478 17.9081 8.92004 18.1865C8.40445 18.4889 8.2207 18.7482 8.14796 19.6858C8.04121 21.6256 8.09152 23.4183 8.15458 24.9169C8.18302 25.5801 8.72448 26.0991 9.38822 26.0991H9.82315V21.4967C9.82315 21.2856 9.99476 21.114 10.2059 21.114C10.4169 21.114 10.5886 21.2856 10.5886 21.4967V26.0991H17.4121V21.4967C17.4121 21.2856 17.5831 21.114 17.7948 21.114C18.0065 21.114 18.1776 21.2856 18.1776 21.4967V26.0991H18.6125C19.2765 26.0991 19.8182 25.5801 19.8461 24.9169ZM7.38409 19.6313C7.38409 19.6342 7.38409 19.6368 7.38354 19.6394C7.37091 19.8714 7.36035 20.101 7.35166 20.3285H0.989531V19.839C1.23048 17.2594 3.36505 15.3159 5.9615 15.3159C7.42078 15.3159 8.79699 15.9546 9.74095 17.0467C9.26413 17.1901 8.8426 17.3449 8.53318 17.5262C7.75027 17.9846 7.47164 18.4965 7.38409 19.6313ZM3.78335 12.355C3.78335 11.1538 4.76051 10.1769 5.96145 10.1769C7.16238 10.1769 8.13927 11.1538 8.13927 12.355C8.13927 13.5562 7.16238 14.5331 5.96145 14.5331C4.76051 14.5331 3.78335 13.5559 3.78335 12.355ZM11.9432 11.9907C12.3162 11.2801 13.0277 10.9045 14.0006 10.9045C14.9735 10.9045 15.6844 11.2801 16.0574 11.9907C16.515 12.8627 16.3861 14.1635 15.7511 15.084C15.2962 15.7425 14.6865 16.1089 14.0301 16.1189H13.9705C13.3147 16.1089 12.7045 15.7425 12.2501 15.084C11.6145 14.1636 11.4856 12.8627 11.9432 11.9907ZM13.9732 16.8844C13.9813 16.8849 13.989 16.8854 13.9974 16.8854H14.0026C14.0111 16.8854 14.0184 16.8849 14.0269 16.8844C14.0831 16.8849 14.14 16.8865 14.1969 16.8899L15.0331 22.8978L14.0006 24.3444L12.9681 22.8978L13.8042 16.8899C13.8606 16.8865 13.917 16.8849 13.9732 16.8844ZM19.8614 12.355C19.8614 11.1538 20.8388 10.1769 22.0397 10.1769C23.2407 10.1769 24.2173 11.1538 24.2173 12.355C24.2173 13.5562 23.2407 14.5331 22.0397 14.5331C20.8387 14.5331 19.8614 13.5559 19.8614 12.355ZM27.7759 19.7871C27.6467 18.3615 26.9929 17.0401 25.9359 16.068C25.2849 15.4713 24.5178 15.0387 23.6901 14.7912C24.4703 14.2611 24.9817 13.367 24.9817 12.355C24.9817 10.7318 23.6626 9.41117 22.0397 9.41117C20.4167 9.41117 19.0958 10.7318 19.0958 12.355C19.0958 13.3675 19.6099 14.2624 20.3901 14.7922C19.2335 15.1383 18.2018 15.8437 17.4553 16.8243C17.3714 16.8024 17.2874 16.7805 17.203 16.7591L15.5705 16.3577C15.8726 16.1389 16.147 15.8574 16.3811 15.5187C17.1811 14.3594 17.3271 12.7623 16.7354 11.6349C16.229 10.6701 15.2579 10.139 14.0006 10.139C12.7432 10.139 11.7716 10.6701 11.2658 11.6349C10.674 12.7623 10.8195 14.3594 11.6195 15.5187C11.8535 15.8574 12.1287 16.1389 12.4303 16.3577L10.7941 16.7597C10.7111 16.7811 10.6281 16.8029 10.5453 16.8243C9.7993 15.8437 8.76735 15.1383 7.61044 14.7922C8.39121 14.2624 8.90467 13.3675 8.90467 12.355C8.90467 10.7318 7.58457 9.41117 5.96134 9.41117C4.3381 9.41117 3.01751 10.7318 3.01751 12.355C3.01751 13.3669 3.53124 14.2611 4.31098 14.7912C3.48252 15.0387 2.71465 15.4713 2.0654 16.068C1.0073 17.0401 0.353844 18.3615 0.225219 19.7871C0.22418 19.7987 0.223633 19.8103 0.223633 19.8216V20.7115C0.223633 20.9229 0.394695 21.0943 0.606391 21.0943H7.32967C7.30123 22.5074 7.34181 23.8127 7.38977 24.9491C7.43511 26.0238 8.31317 26.8649 9.38811 26.8649H18.6124C19.6876 26.8649 20.5651 26.0238 20.6112 24.9491C20.6587 23.8122 20.6993 22.5074 20.6708 21.0943H27.3935C27.6044 21.0943 27.7757 20.9229 27.7757 20.7115V19.7871H27.7759Z" fill="#170006"/>
</svg>
