<svg width="30" height="30" viewBox="0 0 30 30" fill="none" xmlns="http://www.w3.org/2000/svg">
<g clip-path="url(#clip0_1616_336)">
<path d="M18.3874 5.56139C18.3874 5.56139 21.262 1.83049 20.4354 0.760156C20.1537 0.39541 19.9135 0.890762 19.3309 0.890762C18.6463 0.890762 18.6463 0.442871 17.9617 0.442871C17.2772 0.442871 17.2772 0.890762 16.5927 0.890762C15.9083 0.890762 15.9083 0.442871 15.2238 0.442871C14.5394 0.442871 14.5394 0.890762 13.8549 0.890762C13.2716 0.890762 13.0324 0.388965 12.7488 0.753887C11.9218 1.8183 14.7544 5.56133 14.7544 5.56133C2.24433 13.7854 6.27799 24.9699 13.6641 24.9699H19.5219C26.9304 24.9699 30.939 13.8127 18.3874 5.56139Z" fill="#FDB714"/>
<path d="M18.3879 5.56139C18.3879 5.56139 21.2625 1.83049 20.4359 0.760156C20.1542 0.39541 19.9139 0.890762 19.3313 0.890762C18.6468 0.890762 18.6468 0.442871 17.9622 0.442871C17.2777 0.442871 17.2777 0.890762 16.5932 0.890762C16.5595 0.890762 16.5287 0.888887 16.4981 0.886777C16.2231 2.06568 14.9837 3.90236 14.2745 4.88574C14.5538 5.29561 14.7549 5.56133 14.7549 5.56133C14.588 5.67102 14.4247 5.78135 14.2637 5.89209C26.2162 14.1076 22.2168 24.9698 14.9069 24.9698H19.5224C26.9308 24.9699 30.9395 13.8127 18.3879 5.56139Z" fill="#FDB714"/>
<path d="M18.9223 6.88813C17.2519 7.30994 15.6017 7.31 13.9311 6.88813C13.3496 6.74129 13.02 6.08744 13.2292 5.49313C13.2316 5.48651 13.2339 5.47983 13.2363 5.47321C13.4117 4.97492 13.9093 4.69531 14.397 4.81772C15.7647 5.16113 17.0883 5.16119 18.4564 4.81772C18.9441 4.69526 19.4416 4.97492 19.6171 5.47321C19.6195 5.47983 19.6218 5.48651 19.6242 5.49313C19.8333 6.0875 19.5037 6.74129 18.9223 6.88813Z" fill="#781921"/>
<path d="M3.21582 26.8885L9.57711 29.2563C10.1174 29.4574 10.6892 29.5604 11.2657 29.5604H17.8215C18.7389 29.5604 19.6375 29.2996 20.4124 28.8086L28.621 23.6072C29.1625 23.1263 29.2629 22.3181 28.8555 21.7193C28.4097 21.0642 27.6722 20.9503 26.8607 21.334L18.869 24.8529L18.8784 23.5563C18.7726 22.492 17.9531 21.6379 16.8942 21.488L12.0274 20.9277C10.9048 20.7688 10.3438 20.3926 9.36506 19.8201C8.02889 19.0384 6.50873 18.6265 4.96074 18.6265H3.21582V26.8885Z" fill="#FFDDCE"/>
<path d="M3.21582 26.8885L9.57711 29.2563C10.1174 29.4574 10.6892 29.5604 11.2657 29.5604H17.8215C18.7389 29.5604 19.6375 29.2996 20.4124 28.8086L28.621 23.6072C29.1625 23.1263 29.2629 22.3181 28.8555 21.7193C28.4097 21.0642 27.6722 20.9503 26.8607 21.334L18.869 24.8529L18.8784 23.5563C18.7726 22.492 17.9531 21.6379 16.8942 21.488L12.0274 20.9277C10.9048 20.7688 10.3438 20.3926 9.36506 19.8201C8.02889 19.0384 6.50873 18.6265 4.96074 18.6265H3.21582V26.8885Z" fill="white"/>
<path d="M28.8554 21.7195C28.4097 21.0644 27.6722 20.9505 26.8607 21.3342L24.6625 22.3021C24.769 22.4707 24.8537 22.6051 24.8537 22.6051C25.2611 23.2039 25.1607 24.012 24.6192 24.493L19.8362 27.5237C19.2063 27.8121 18.5195 27.9634 17.8215 27.9634H11.2657C10.6892 27.9634 10.1173 27.8605 9.57711 27.6594L3.21582 25.2916V26.8887L9.57711 29.2565C10.1174 29.4576 10.6892 29.5606 11.2657 29.5606H16.6218H17.8215C18.7389 29.5606 19.6375 29.2998 20.4124 28.8088L28.621 23.6074C29.1625 23.1265 29.2629 22.3183 28.8554 21.7195Z" fill="white"/>
<path d="M18.2815 22.2207L18.2812 22.252L18.3019 22.2429C18.2953 22.2354 18.2883 22.2281 18.2815 22.2207Z" fill="#F5DBCC"/>
<path d="M4.5849 28.1557C4.5849 28.6172 4.21072 28.9914 3.74918 28.9914H1.73221C1.27066 28.9914 0.896484 28.6172 0.896484 28.1557V17.9226C0.896484 17.4611 1.27066 17.0869 1.73221 17.0869H3.74918C4.21072 17.0869 4.5849 17.4611 4.5849 17.9226V28.1557Z" fill="#781921"/>
<path d="M29.2189 21.4726C28.6593 20.6501 27.71 20.4493 26.6788 20.9346L26.1322 21.1753C26.994 19.3383 27.101 17.2907 26.6719 15.3565C26.1792 13.135 24.9891 10.983 23.1347 8.96016C22.9708 8.78127 22.6929 8.7692 22.5139 8.93321C22.3351 9.09715 22.323 9.37506 22.487 9.55401C24.2358 11.4616 25.3552 13.4779 25.8141 15.5467C26.2974 17.726 26.0162 19.9734 24.7828 21.7694L19.3135 24.1775L19.318 23.5598C19.3181 23.5443 19.3174 23.5287 19.3158 23.5131C19.1896 22.2436 18.2191 21.2321 16.9559 21.0534C16.9522 21.0528 16.9484 21.0523 16.9446 21.0519L12.0836 20.4922C10.2144 20.2262 9.73301 19.106 7.20152 18.4673C7.02662 16.9831 7.25977 15.4029 7.89879 13.8187C8.86119 11.4329 10.744 9.11491 13.3541 7.09735C14.3269 7.78711 18.6671 7.87295 19.6384 6.98315C20.136 7.36102 20.6109 7.75043 21.0533 8.14459C21.137 8.21924 21.2414 8.25592 21.3454 8.25592C21.4663 8.25592 21.5868 8.20629 21.6736 8.10885C21.835 7.92768 21.819 7.64995 21.6378 7.48852C21.1529 7.05651 20.6313 6.63024 20.0842 6.21827C20.2124 5.67463 20.033 5.03836 19.5595 4.65961C20.9353 2.57297 21.3354 1.20721 20.7827 0.491664C20.403 0.00012137 19.9308 0.230805 19.7291 0.32936C19.3873 0.496235 19.2009 0.505024 18.8863 0.299242C18.2863 -0.0933943 17.6556 -0.10605 17.0362 0.299242C16.7177 0.50766 16.4668 0.50766 16.1484 0.299242C15.5483 -0.0933943 14.9179 -0.10605 14.2983 0.299242C13.9802 0.507485 13.7931 0.494594 13.4566 0.327367C13.2552 0.227231 12.7835 -0.00726147 12.4014 0.48434C11.8611 1.17973 12.2226 2.50243 13.5055 4.51811C13.4269 4.56059 13.3521 4.61045 13.2821 4.66741C12.7719 4.12858 11.936 3.56661 10.7271 3.70161C9.72434 3.81381 8.98494 3.48247 8.54115 3.18481C8.33959 3.04981 8.06666 3.1036 7.93154 3.30504C7.79643 3.50661 7.85027 3.77954 8.05178 3.91465C8.6175 4.29393 9.5577 4.71616 10.8246 4.57489C11.7585 4.47012 12.3923 4.94743 12.7868 5.43317C12.7814 5.45192 12.7764 5.47079 12.7718 5.48965C12.4353 5.49493 11.9324 5.52633 11.3786 5.64153C10.0466 5.91862 9.05789 6.55161 8.51924 7.47223C8.39672 7.68164 8.46715 7.95082 8.67656 8.0734C8.88603 8.19592 9.15516 8.12543 9.27768 7.91602C10.0789 6.54674 12.0346 6.37928 12.8113 6.36879C12.8147 6.37846 12.8186 6.38801 12.8221 6.39762C10.0502 8.53588 8.12033 10.9205 7.08393 13.4898C6.42885 15.1139 6.16717 16.7409 6.3 18.2871C5.87865 18.2248 5.45244 18.1913 5.02418 18.1884V17.9227C5.02418 17.2196 4.45219 16.6477 3.74912 16.6477H1.73209C1.02902 16.6477 0.457031 17.2197 0.457031 17.9227V28.1557C0.457031 28.8588 1.02902 29.4308 1.73209 29.4308H3.74906C4.45213 29.4308 5.02412 28.8588 5.02412 28.1557V28.0306L9.42398 29.6682C10.0153 29.8882 10.6349 29.9998 11.2658 29.9998H17.8216C18.8239 29.9998 19.8012 29.7162 20.6478 29.1798C29.3934 23.6357 28.8623 23.9806 28.9129 23.9358C29.6173 23.3105 29.7489 22.2515 29.2189 21.4726ZM18.8139 6.46248C17.2071 6.86819 15.6449 6.86819 14.0378 6.46248C13.3482 6.28817 13.548 5.05829 14.2891 5.24414C15.7269 5.60508 17.1247 5.60508 18.5626 5.24414C19.2908 5.06133 19.5145 6.28541 18.8139 6.46248ZM13.0553 1.1093C13.0588 1.111 13.0622 1.11276 13.0655 1.1144C13.6602 1.40995 14.1813 1.426 14.7795 1.03465C15.528 0.544633 15.6093 1.33032 16.5922 1.33032C17.0654 1.33032 17.3266 1.15946 17.5172 1.03465C17.8358 0.826176 18.0867 0.826293 18.4052 1.03465C19.0061 1.42782 19.5145 1.40842 20.1265 1.11329C20.2169 1.43918 20.0123 2.41073 18.7094 4.35053C18.0624 4.33952 17.1235 4.97496 14.4656 4.38346C13.1655 2.41858 12.9645 1.4376 13.0553 1.1093ZM28.3533 23.2572L20.1775 28.4378C19.4718 28.885 18.6572 29.1214 17.8217 29.1214H11.2659C10.74 29.1214 10.2234 29.0283 9.73055 28.8449L5.02412 27.0931V22.3614C5.02412 22.1187 4.82742 21.922 4.58479 21.922C4.34215 21.922 4.14545 22.1187 4.14545 22.3614V28.1559C4.14545 28.3745 3.96762 28.5523 3.74912 28.5523H1.73209C1.51354 28.5523 1.33576 28.3744 1.33576 28.1559V17.9229C1.33576 17.7043 1.51354 17.5266 1.73209 17.5266H3.74906C3.96762 17.5266 4.14539 17.7044 4.14539 17.9229V20.3073C4.14539 20.55 4.34209 20.7467 4.58473 20.7467C4.82736 20.7467 5.02406 20.55 5.02406 20.3073V19.0673C8.65869 19.0952 9.4759 21.0109 11.966 21.3631C11.9698 21.3637 11.9735 21.3642 11.9773 21.3646L16.838 21.9242C17.6892 22.0471 18.3442 22.7248 18.439 23.5781L18.4329 24.4139H13.8998C13.6571 24.4139 13.4604 24.6106 13.4604 24.8533C13.4604 25.096 13.6571 25.2927 13.8998 25.2927H18.8691C18.9246 25.2927 18.9887 25.2804 19.0444 25.2561C19.0534 25.2521 27.0286 21.7407 27.0379 21.7366C27.6128 21.4812 28.1369 21.4447 28.4923 21.967C28.7687 22.3729 28.7075 22.9216 28.3533 23.2572Z" fill="#170006"/>
<path d="M16.5415 19.9348C16.7842 19.9348 16.9809 19.7381 16.9809 19.4954V18.7671C18.2144 18.567 18.9341 17.5686 19.0906 16.6372C19.2862 15.4737 18.6768 14.4618 17.5381 14.0594C17.3369 13.9882 17.1517 13.9202 16.9809 13.8545V11.053C17.5006 11.1392 17.8127 11.4082 17.8355 11.4283C18.0139 11.5906 18.2901 11.5786 18.4539 11.4011C18.6184 11.2227 18.6072 10.9447 18.4288 10.7802C18.3978 10.7516 17.8597 10.2671 16.9809 10.1658V9.54096C16.9809 9.29826 16.7842 9.10156 16.5415 9.10156C16.2988 9.10156 16.1021 9.29826 16.1021 9.54096V10.2013C15.9962 10.2216 15.8877 10.2474 15.7762 10.2809C15.0309 10.5054 14.4738 11.1445 14.3222 11.9487C14.1846 12.6785 14.416 13.3803 14.926 13.7803C15.2188 14.0099 15.5873 14.2201 16.1021 14.4449V17.9196C15.594 17.8981 15.2812 17.8027 14.7356 17.4457C14.5326 17.3129 14.2602 17.3697 14.1274 17.5729C13.9946 17.7759 14.0515 18.0482 14.2546 18.1811C14.9718 18.6503 15.4513 18.7727 16.1021 18.798V19.4954C16.1021 19.7381 16.2988 19.9348 16.5415 19.9348ZM15.4683 13.0889C15.2175 12.8921 15.1091 12.5176 15.1857 12.1115C15.2567 11.7348 15.5157 11.2772 16.0296 11.1224C16.0541 11.115 16.0781 11.1087 16.1021 11.1022V13.4756C15.839 13.3442 15.6327 13.2178 15.4683 13.0889ZM17.2452 14.8879C18.3386 15.2743 18.2709 16.2131 18.224 16.4916C18.1271 17.0682 17.7038 17.6838 16.9809 17.8691V14.7927C17.0664 14.8239 17.1538 14.8555 17.2452 14.8879Z" fill="#170006"/>
</g>
<defs>
<clipPath id="clip0_1616_336">
<rect width="30" height="30" fill="white"/>
</clipPath>
</defs>
</svg>
