<svg width="27" height="32" viewBox="0 0 27 32" fill="none" xmlns="http://www.w3.org/2000/svg">
<path d="M12.7735 9.19184C11.2679 9.19184 10.0537 10.4546 10.0537 11.9602C10.0537 10.4546 11.2679 9.19184 12.822 9.19184H12.7735Z" fill="#E8E8E8"/>
<path d="M15.4939 9.19146H16.7081V5.74319H15.4939H15.4453V9.19146H15.4939Z" fill="#E8E8E8"/>
<path d="M2.86483 5.69454C3.01053 5.7431 3.2048 5.7431 3.39907 5.7431H3.44764C3.25337 5.7431 3.10767 5.7431 2.9134 5.69454C2.69582 5.64597 2.47824 5.5736 2.2728 5.47696C2.07513 5.69939 1.88426 5.92863 1.69922 6.16224V18.8077C1.69922 19.779 1.89349 20.5075 2.37916 20.9446C2.9134 21.4789 3.64191 21.4303 3.64191 21.4303H10.0528V20.2161H2.86483V5.69454Z" fill="#E8E8E8"/>
<path d="M3.39869 4.77214H15.6862C15.5891 4.57787 15.4919 4.3836 15.4434 4.14077H8.78965V3.16942H15.2977C15.2977 3.02372 15.2977 2.92659 15.2977 2.78088H6.21559V2.28404C5.03589 2.95524 3.95187 3.77506 2.99121 4.72017C3.12234 4.75126 3.25736 4.77214 3.39869 4.77214Z" fill="#E8E8E8"/>
<path d="M15.4921 1.8095C15.5892 1.61523 15.6378 1.42096 15.7349 1.22669H8.47411C8.00835 1.40008 7.55279 1.59435 7.10938 1.8095H15.4921Z" fill="#E8E8E8"/>
<path d="M12.7719 10.1151C11.8005 10.1151 11.0234 10.9408 11.0234 11.9121C11.0234 12.932 11.8005 13.7091 12.7719 13.7091H25.0594C24.9622 13.5148 24.8651 13.3206 24.8165 13.0777H18.1628V12.1064H24.6708C24.6708 11.9607 24.6708 11.8636 24.6708 11.7179H15.5888V10.7465H24.8651C24.9622 10.5522 25.0108 10.358 25.1079 10.1637V10.1151H17.6286H16.6572H12.7719Z" fill="#E8E8E8"/>
<path d="M21.7497 29.2015H24.8152V29.153V26.8456V14.6799H24.7667H12.7706H12.722C12.5452 14.6799 12.4058 14.6756 12.2363 14.6392V29.2015H21.7497Z" fill="#FDB714"/>
<path d="M12.7719 13.7088H25.0594C24.9622 13.5146 24.8651 13.3203 24.8165 13.0775H18.1628V12.1061H24.6708C24.6708 11.9604 24.6708 11.8633 24.6708 11.7176H15.5888V10.7462H24.8651C24.9622 10.552 25.0108 10.3577 25.1079 10.1634V10.1149H17.6286H16.6572H12.7719C11.8005 10.1149 11.0234 10.9405 11.0234 11.9119C11.0234 12.9318 11.8005 13.7088 12.7719 13.7088Z" fill="white"/>
<path d="M2.99036 4.72032C3.12149 4.75141 3.2565 4.77229 3.39783 4.77229H15.6853C15.5882 4.57802 15.4911 4.38375 15.4425 4.14092H8.7888V3.16957H15.2968C15.2968 3.02387 15.2968 2.92674 15.2968 2.78103H6.21473V2.28419V1.80969H7.10837H15.4911C15.5882 1.61542 15.6368 1.42115 15.7339 1.22688H8.47311H3.39783C2.47506 1.22688 1.64941 2.00396 1.64941 2.9753C1.64941 3.84708 2.21911 4.53674 2.99036 4.72032Z" fill="white"/>
<path d="M12.8192 9.19186H14.9197H15.4418H15.4904H16.7045V5.74358H15.4904H15.4418H14.9197H3.44569C3.25142 5.74358 3.10572 5.74358 2.91145 5.69502C2.69386 5.64645 2.47628 5.57408 2.27084 5.47743C2.06346 5.3803 1.86822 5.2584 1.69727 5.11221V6.16272V18.8082C1.69727 19.7795 1.89153 20.508 2.37721 20.9451C2.91145 21.4794 3.63995 21.4308 3.63995 21.4308H10.0508V20.2166V11.9602C10.0508 10.4546 11.265 9.19186 12.8192 9.19186Z" fill="white"/>
<path d="M26.1746 13.7572C25.9317 13.4658 25.0575 12.3002 26.1746 10.2118H26.8545V9.24048H17.6267V4.77229H16.8011C16.5582 4.52945 15.684 3.31527 16.8011 1.22688H17.481V0.678074V0.255539H3.39652C1.89094 0.255539 0.676758 1.46972 0.676758 3.02387V7.61153V18.8082C0.676758 20.071 1.01673 21.0423 1.69667 21.6737C2.42518 22.3536 3.29939 22.4022 3.54222 22.4022C3.59079 22.4022 3.63936 22.4022 3.63936 22.4022H10.0502V27.7446C10.0502 29.0073 10.3902 29.9787 11.0701 30.6101C11.4791 30.9918 11.9308 31.171 12.294 31.2579C12.5777 31.3254 12.8093 31.3386 12.9157 31.3386C12.9643 31.3386 13.0128 31.3386 13.0128 31.3386H27.0002V24.1341V13.7572H26.1746ZM25.1061 10.1147V10.1633C25.0089 10.3575 24.9604 10.5518 24.8632 10.7461H15.5869V11.7174H24.669C24.669 11.8631 24.669 11.9602 24.669 12.1059H18.161V13.0773H24.8147C24.8632 13.3201 24.9604 13.5144 25.0575 13.7087H12.77C11.7987 13.7087 11.0216 12.9316 11.0216 11.9117C11.0216 10.9403 11.7987 10.1147 12.77 10.1147H16.6554H17.6267H25.1061ZM10.0502 20.2167V21.4308H3.63936C3.63936 21.4308 2.91085 21.4794 2.37661 20.9452C1.89094 20.5081 1.69667 19.7796 1.69667 18.8082V6.16277V5.11226C1.86763 5.25845 2.06287 5.38035 2.27025 5.47749C2.47569 5.57414 2.69327 5.6465 2.91085 5.69507C3.10512 5.74364 3.25082 5.74364 3.44509 5.74364H14.9191H15.4412H15.4898H16.7039V9.19191H15.4898H15.4412H14.9191H12.8186C11.2644 9.19191 10.0502 10.4547 10.0502 11.9602V20.2167ZM3.39652 1.22688H8.4718H15.7326C15.6355 1.42115 15.5869 1.61542 15.4898 1.80969H7.10706H6.21342V2.28419V2.78103H15.2955C15.2955 2.92674 15.2955 3.02387 15.2955 3.16957H8.78749V4.14092H15.4412C15.4898 4.38375 15.5869 4.57802 15.684 4.77229H3.39652C3.25519 4.77229 3.12017 4.75141 2.98904 4.72032C2.2178 4.53674 1.6481 3.84708 1.6481 2.9753C1.6481 2.00396 2.47374 1.22688 3.39652 1.22688ZM26.0289 25.493V30.3672H19.3023H12.9643C12.9643 30.3672 12.2843 30.4158 11.7015 29.8815C11.2158 29.4444 10.973 28.7159 10.973 27.7446V22.4022V21.4308V14.0486C11.313 14.34 11.7501 14.5343 12.1872 14.6314C12.2047 14.6358 12.2188 14.6353 12.2358 14.6392C12.4053 14.6756 12.5446 14.68 12.7214 14.68H12.77H24.7661H24.8147H26.0289V25.493Z" fill="#170006"/>
<path d="M12.77 9.19153H12.8186H15.4412V5.74325H3.44511H3.39654C3.20228 5.74325 3.00801 5.74325 2.8623 5.69469V20.2163H10.0503V11.9599C10.0503 10.4543 11.2644 9.19153 12.77 9.19153Z" fill="#781921"/>
</svg>
