<svg width="34" height="34" viewBox="0 0 34 34" fill="none" xmlns="http://www.w3.org/2000/svg">
<g clip-path="url(#clip0_1796_1811)">
<path d="M32.799 14.671L27.2003 17.765L17.5896 23.0803C17.2232 23.2843 16.7774 23.2843 16.4109 23.0803L6.80028 17.765L1.20161 14.671C0.811027 14.4562 0.568359 14.0458 0.568359 13.6C0.568359 13.1542 0.811027 12.7438 1.20161 12.529L16.4109 4.11967C16.7774 3.91568 17.2232 3.91568 17.5896 4.11967L32.799 12.529C33.1895 12.7438 33.4322 13.1542 33.4322 13.6C33.4322 14.0458 33.1895 14.4562 32.799 14.671Z" fill="#FDB714"/>
<path d="M32.8013 12.5267L17.5914 4.11911C17.2237 3.9157 16.7771 3.9157 16.4094 4.11911L16.1504 4.26248L31.1013 12.5267C31.4916 12.7429 31.7338 13.1539 31.7338 13.6C31.7338 14.0462 31.4916 14.4571 31.1013 14.6733L16.1504 22.9375L16.4094 23.0809C16.7771 23.2843 17.2237 23.2843 17.5914 23.0809L32.8013 14.6733C33.1916 14.4571 33.4338 14.0462 33.4338 13.6C33.4338 13.1539 33.1916 12.7429 32.8013 12.5267Z" fill="#37474F"/>
<path d="M17.0003 15.3C18.5651 15.3 19.8337 14.5389 19.8337 13.6C19.8337 12.6612 18.5651 11.9 17.0003 11.9C15.4355 11.9 14.167 12.6612 14.167 13.6C14.167 14.5389 15.4355 15.3 17.0003 15.3Z" fill="#781921"/>
<path d="M17.0004 11.9C16.7149 11.9019 16.4303 11.9309 16.1504 11.9867C17.2968 12.2043 18.1337 12.8401 18.1337 13.6C18.1337 14.3599 17.2968 14.9957 16.1504 15.2133C16.4303 15.2691 16.7149 15.2981 17.0004 15.3C18.565 15.3 19.8337 14.539 19.8337 13.6C19.8337 12.661 18.565 11.9 17.0004 11.9Z" fill="#781921"/>
<path d="M27.1998 23.7998V25.5225C27.1997 26.2775 26.8236 26.9829 26.1968 27.4038C23.4607 29.1751 20.2587 30.0906 16.9998 30.0331C13.7409 30.0906 10.5389 29.1751 7.80281 27.4038C7.176 26.9829 6.79994 26.2775 6.7998 25.5225V23.7998C12.5714 29.0887 21.4282 29.0887 27.1998 23.7998Z" fill="#FDB714"/>
<path d="M27.1998 17.7651V23.8001C21.4282 29.089 12.5714 29.089 6.7998 23.8001V17.7651L16.4105 23.0805C16.7769 23.2845 17.2227 23.2845 17.5891 23.0805L27.1998 17.7651Z" fill="#781921"/>
<path d="M2.26712 24.9334C2.89305 24.9334 3.40046 24.426 3.40046 23.8001C3.40046 23.1742 2.89305 22.6667 2.26712 22.6667C1.6412 22.6667 1.13379 23.1742 1.13379 23.8001C1.13379 24.426 1.6412 24.9334 2.26712 24.9334Z" fill="#FDB714"/>
<path d="M2.26641 24.9333C3.20529 24.9333 3.96641 25.6945 3.96641 26.6333V28.9C3.96641 29.213 3.7127 29.4667 3.39974 29.4667H1.13307C0.820112 29.4667 0.566406 29.213 0.566406 28.9V26.6333C0.566406 25.6945 1.32752 24.9333 2.26641 24.9333Z" fill="#FDB714"/>
<path d="M2.26699 24.9334C1.96773 24.935 1.67431 25.0164 1.41699 25.1692C1.94162 25.4703 2.26566 26.0285 2.26699 26.6334V28.9001C2.26699 29.2131 2.01329 29.4668 1.70033 29.4668H3.40033C3.71329 29.4668 3.96699 29.2131 3.96699 28.9001V26.6334C3.96699 25.6946 3.20588 24.9334 2.26699 24.9334Z" fill="#FDB714"/>
<path d="M1.13333 30.0333H3.4C4.02592 30.0333 4.53333 29.5259 4.53333 28.9V26.6333C4.53152 25.9186 4.19119 25.247 3.6159 24.8228C3.94703 24.394 4.05138 23.8319 3.89624 23.3128C3.7411 22.7937 3.34547 22.3811 2.83333 22.2043V16.3087C2.8363 16.2827 2.84104 16.2569 2.8475 16.2316L6.23333 18.1033V25.5204C6.23287 26.464 6.70219 27.3459 7.4851 27.8726C10.3163 29.7047 13.6281 30.654 17 30.6C20.3718 30.654 23.6837 29.7047 26.5149 27.8726C27.2978 27.3459 27.7671 26.464 27.7667 25.5204V18.1033L33.0746 15.1697C33.6456 14.8538 34 14.2528 34 13.6003C34 12.9478 33.6456 12.3468 33.0746 12.0309L17.8647 3.62327C17.3271 3.32404 16.6729 3.32404 16.1353 3.62327L0.925367 12.0303C0.354396 12.3462 1.30843e-05 12.9472 1.30843e-05 13.5997C1.30843e-05 14.2522 0.354396 14.8533 0.925367 15.1691L1.82693 15.6678C1.74358 15.8712 1.70047 16.0888 1.7 16.3087V22.202C1.18787 22.3788 0.792229 22.7915 0.637091 23.3106C0.481953 23.8297 0.586302 24.3917 0.917433 24.8206C0.3415 25.2452 0.00109363 25.9178 0 26.6333V28.9C0 29.5259 0.507411 30.0333 1.13333 30.0333ZM25.8819 26.9325C23.238 28.6392 20.1464 29.5212 17 29.4667C13.8536 29.5212 10.762 28.6392 8.11807 26.9325C7.64796 26.6164 7.3662 26.0869 7.36667 25.5204L7.36667 25.0155C13.0271 29.4393 20.9729 29.4393 26.6333 25.0155V25.5204C26.6338 26.0869 26.352 26.6164 25.8819 26.9325ZM26.6333 23.5456C21.1353 28.4182 12.8647 28.4182 7.36667 23.5456V18.7289L16.1353 23.5756C16.6729 23.8748 17.3271 23.8748 17.8647 23.5756L26.6333 18.73V23.5456ZM1.13333 13.6C1.13157 13.3596 1.26223 13.1377 1.47333 13.0226L16.6827 4.61494C16.88 4.50539 17.12 4.50539 17.3173 4.61494L32.5267 13.0226C32.7366 13.1389 32.8668 13.36 32.8668 13.6C32.8668 13.84 32.7366 14.0611 32.5267 14.1774L17.3173 22.5851C17.1199 22.6944 16.8801 22.6944 16.6827 22.5851L4.14743 15.6553L13.8941 14.531C14.4154 15.3244 15.5947 15.8667 17 15.8667C18.9063 15.8667 20.4 14.871 20.4 13.6C20.4 12.329 18.9063 11.3333 17 11.3333C15.1867 11.3333 13.7451 12.24 13.613 13.4226L3.2079 14.6234C2.99868 14.646 2.79554 14.7075 2.60893 14.8047L1.4756 14.1774C1.26362 14.0629 1.13202 13.8409 1.13333 13.6ZM14.7333 13.6C14.7333 13.0651 15.7029 12.4667 17 12.4667C18.2971 12.4667 19.2667 13.0651 19.2667 13.6C19.2667 14.1349 18.2971 14.7333 17 14.7333C15.7029 14.7333 14.7333 14.1349 14.7333 13.6ZM1.13333 28.9V26.6333C1.13333 26.0074 1.64074 25.5 2.26667 25.5C2.89259 25.5 3.4 26.0074 3.4 26.6333V28.9H1.13333ZM1.7 23.8C1.7 23.487 1.95371 23.2333 2.26667 23.2333C2.57963 23.2333 2.83333 23.487 2.83333 23.8C2.83333 24.113 2.57963 24.3667 2.26667 24.3667C1.95371 24.3667 1.7 24.113 1.7 23.8Z" fill="#170006"/>
</g>
<defs>
<clipPath id="clip0_1796_1811">
<rect width="34" height="34" fill="white"/>
</clipPath>
</defs>
</svg>
