<svg width="40" height="22" viewBox="0 0 40 22" fill="none" xmlns="http://www.w3.org/2000/svg">
<path d="M14.2119 17.4573L15.5264 17.2695L16.1524 18.4588L20.0958 11.3856H17.8424L14.2119 17.4573Z" fill="#781921"/>
<path d="M38.8089 5.75166C38.8089 3.31047 37.6196 1.30743 36.2425 1.30743H24.4121C25.0381 2.30895 25.4136 3.81122 25.4136 5.68907C25.4136 7.56691 25.0381 9.13178 24.4121 10.1333H36.1799C37.6196 10.1333 38.8089 8.19286 38.8089 5.75166Z" fill="#ECEDF0"/>
<path d="M21.7197 11.4478L25.6632 18.4584L26.2891 17.2691L27.6662 17.4569L23.9731 11.4478H21.7197Z" fill="#781921"/>
<path d="M22.535 10.1333C23.2235 10.1333 24.1624 8.38064 24.1624 5.68907C24.1624 2.9975 23.2235 1.24484 22.535 1.24484H20.7973H20.7197C21.1416 1.75749 21.4884 2.38782 21.7375 3.10453C22.0054 3.87633 22.1594 4.74765 22.1594 5.68907C22.1594 6.19045 22.1125 6.67494 22.0317 7.13876C21.8201 8.3531 21.3538 9.40845 20.7197 10.1333H20.8818H22.535Z" fill="#781921"/>
<path d="M6.38765 5.75212C6.38765 3.3297 5.21588 1.34107 3.85256 1.31102C3.84192 1.31102 3.83191 1.30789 3.82127 1.30789C2.44418 1.30789 1.25488 3.37352 1.25488 5.75212C1.25488 7.86594 2.19443 9.67931 3.36996 10.1018C3.38248 10.1062 3.39562 10.1093 3.40877 10.1137C3.47512 10.1356 3.54147 10.155 3.60845 10.1682C3.63536 10.1732 3.6629 10.1751 3.69044 10.1788C3.73426 10.1851 3.77745 10.1945 3.82127 10.1963C3.83191 10.1963 3.84192 10.1938 3.85194 10.1932C3.91078 10.192 3.96962 10.1857 4.0272 10.1769C4.04849 10.1738 4.06914 10.1726 4.09043 10.1688C5.34983 9.92155 6.38765 7.97361 6.38765 5.75212Z" fill="#FDB714"/>
<path d="M20.8482 5.68962C20.8482 4.31879 20.4733 3.0863 19.9006 2.26882C19.8874 2.25004 19.873 2.23314 19.8592 2.21499C19.8248 2.16741 19.7891 2.12234 19.7535 2.0779C19.3316 1.55649 18.8221 1.24539 18.2819 1.24539H6.26367C6.27995 1.26542 6.29434 1.28796 6.30999 1.30799C7.15878 2.37022 7.70335 3.90817 7.70335 5.68962C7.70335 5.70026 7.7021 5.71028 7.7021 5.72092C7.69584 7.52365 7.13499 9.13796 6.26367 10.1338H6.30999H18.2819C19.6589 10.1338 20.8482 8.13082 20.8482 5.68962Z" fill="#ECEDF0"/>
<path d="M36.1817 0.0558167H3.82023C1.69201 0.0558167 0.00195312 2.55961 0.00195312 5.75194C0.00195312 8.94427 1.69201 11.4481 3.82023 11.4481H16.3392L11.7072 19.2098L14.8369 18.7091L16.0888 21.1502L20.9086 12.4496L25.7284 21.0877L26.9803 18.6465L30.11 19.1472L25.478 11.3855H36.1817C38.3099 11.3855 40 8.88168 40 5.68934C40 2.49701 38.3725 0.0558167 36.1817 0.0558167ZM4.09002 10.1686C4.06936 10.173 4.04808 10.1736 4.0268 10.1768C3.96858 10.1855 3.91037 10.1918 3.85153 10.193C3.84089 10.193 3.83087 10.1962 3.82086 10.1962C3.77704 10.1943 3.73385 10.1849 3.69004 10.1786C3.66249 10.1749 3.63558 10.173 3.60804 10.168C3.54043 10.1549 3.47408 10.1354 3.40836 10.1135C3.39521 10.1092 3.3827 10.106 3.36955 10.1016C2.1934 9.67913 1.25385 7.86576 1.25385 5.75194C1.25385 3.37334 2.44315 1.30771 3.82023 1.30771C3.83087 1.30771 3.84089 1.31022 3.85153 1.31084C5.21484 1.34089 6.38662 3.32952 6.38662 5.75194C6.38662 7.97343 5.3488 9.92138 4.09002 10.1686ZM6.30775 10.1336H6.26143C7.13275 9.13769 7.6936 7.52337 7.69986 5.72064C7.69986 5.71 7.70111 5.69999 7.70111 5.68934C7.70111 3.9079 7.15653 2.36994 6.30775 1.30771C6.29147 1.28768 6.2777 1.26515 6.26143 1.24512H18.2796C18.8198 1.24512 19.3293 1.55621 19.7512 2.07763C19.7869 2.12207 19.8226 2.16714 19.857 2.21471C19.8708 2.23349 19.8852 2.24976 19.8983 2.26854C20.4711 3.08603 20.846 4.31852 20.846 5.68934C20.846 8.13054 19.6567 10.1336 18.2796 10.1336H6.30775ZM16.1514 18.4587L15.5255 17.2694L14.211 17.4572L17.8415 11.3855H20.0949L16.1514 18.4587ZM20.8829 10.1336H20.7208C21.3549 9.40872 21.8219 8.35338 22.0328 7.13904C22.1136 6.67584 22.1605 6.19073 22.1605 5.68934C22.1605 4.74792 22.0065 3.8766 21.7386 3.10481C21.4895 2.3881 21.1427 1.75714 20.7208 1.24512H20.7984H22.5361C23.2246 1.24512 24.1635 2.99777 24.1635 5.68934C24.1635 8.38092 23.2246 10.1336 22.5361 10.1336H20.8829ZM27.6688 17.4572L26.2917 17.2694L25.6658 18.4587L21.7223 11.4481H23.9757L27.6688 17.4572ZM36.1817 10.1336H24.4139C25.0399 9.13206 25.4154 7.56719 25.4154 5.68934C25.4154 3.8115 25.0399 2.30923 24.4139 1.30771H36.2443C37.6214 1.30771 38.8107 3.31074 38.8107 5.75194C38.8107 8.19313 37.6214 10.1336 36.1817 10.1336Z" fill="#170006"/>
</svg>
