<svg width="21" height="20" viewBox="0 0 21 20" fill="none" xmlns="http://www.w3.org/2000/svg">
<g clip-path="url(#clip0_1745_3837)">
<path d="M18.1465 19.9414C18.7845 19.9414 19.3314 19.7103 19.7871 19.248C20.2428 18.7858 20.4707 18.2292 20.4707 17.5781V14.4531C20.4707 14.2839 20.4219 14.1309 20.3242 13.9941C20.2266 13.8574 20.0996 13.763 19.9434 13.7109L15.2559 12.1484C15.2168 12.1354 15.1777 12.1257 15.1387 12.1191C15.0996 12.1126 15.054 12.1094 15.002 12.1094C14.9238 12.1094 14.849 12.1191 14.7773 12.1387C14.7057 12.1582 14.6374 12.194 14.5723 12.2461V12.2266L12.5801 13.5742C12.0462 13.3138 11.4928 12.9753 10.9199 12.5586C10.36 12.1289 9.82292 11.6602 9.30859 11.1523C8.79427 10.6445 8.32878 10.1172 7.91211 9.57031C7.48242 9.01042 7.14388 8.47005 6.89648 7.94922L8.22461 5.95703C8.26367 5.89193 8.29622 5.82357 8.32227 5.75195C8.34831 5.68034 8.36133 5.59896 8.36133 5.50781C8.36133 5.46875 8.35807 5.42643 8.35156 5.38086C8.34505 5.33529 8.33529 5.29297 8.32227 5.25391V5.27344L6.74023 0.585938C6.68815 0.429688 6.59701 0.299479 6.4668 0.195312C6.33659 0.0911465 6.18034 0.0390625 5.99805 0.0390625H2.87305C2.22201 0.0390625 1.66862 0.266928 1.21289 0.722656C0.757161 1.17838 0.529297 1.73177 0.529297 2.38281C0.529297 3.46354 0.646484 4.54427 0.880859 5.625C1.12826 6.71875 1.47982 7.7832 1.93555 8.81836C2.39128 9.85352 2.95768 10.8594 3.63477 11.8359C4.29883 12.7995 5.06055 13.7109 5.91992 14.5703C6.7793 15.4167 7.69727 16.1719 8.67383 16.8359C9.63737 17.513 10.6432 18.0794 11.6914 18.5352C12.7396 18.9909 13.804 19.3359 14.8848 19.5703C15.9655 19.8177 17.0527 19.9414 18.1465 19.9414ZM2.87305 1.62109H5.45117L6.70117 5.39062L5.35352 7.42188C5.31445 7.48698 5.2819 7.55534 5.25586 7.62695C5.22982 7.69857 5.2168 7.77995 5.2168 7.87109C5.2168 7.92318 5.22331 7.972 5.23633 8.01758C5.24935 8.06315 5.26237 8.11198 5.27539 8.16406C5.53581 8.8151 5.91992 9.49544 6.42773 10.2051C6.93555 10.9147 7.53451 11.6081 8.22461 12.2852C8.90169 12.9492 9.59831 13.5319 10.3145 14.0332C11.0306 14.5345 11.7142 14.9154 12.3652 15.1758C12.4824 15.2279 12.6061 15.2474 12.7363 15.2344C12.8665 15.2214 12.9837 15.1758 13.0879 15.0977L15.1191 13.75L18.9082 15.0195V17.5781C18.9082 17.5911 18.9082 17.5977 18.9082 17.5977C18.9082 17.806 18.8333 17.985 18.6836 18.1348C18.5339 18.2845 18.3548 18.3594 18.1465 18.3594C16.0762 18.3594 14.0775 17.9167 12.1504 17.0312C10.2233 16.1328 8.51432 14.9414 7.02344 13.457C5.53255 11.9727 4.33789 10.2669 3.43945 8.33984C2.54102 6.42578 2.0918 4.4401 2.0918 2.38281C2.0918 2.17448 2.16667 1.99544 2.31641 1.8457C2.46615 1.69596 2.64518 1.62109 2.85352 1.62109C2.85352 1.62109 2.85677 1.62109 2.86328 1.62109C2.86979 1.62109 2.87305 1.62109 2.87305 1.62109Z" fill="#170006"/>
</g>
<defs>
<clipPath id="clip0_1745_3837">
<rect width="21" height="20" fill="white" transform="matrix(1 0 0 -1 0 20)"/>
</clipPath>
</defs>
</svg>
