<svg width="32" height="32" viewBox="0 0 32 32" fill="none" xmlns="http://www.w3.org/2000/svg">
<path d="M12.5213 8.01335C12.7613 8.34669 12.9346 8.65335 13.0546 8.94669C13.1746 9.22669 13.2413 9.50669 13.2413 9.76002C13.2413 10.08 13.148 10.4 12.9613 10.7067C12.788 11.0134 12.5346 11.3334 12.2146 11.6534L11.2013 12.7067C11.0546 12.8534 10.988 13.0267 10.988 13.24C10.988 13.3467 11.0013 13.44 11.028 13.5467C11.068 13.6534 11.108 13.7334 11.1346 13.8134C11.3746 14.2534 11.788 14.8267 12.3746 15.52C12.9746 16.2134 13.6146 16.92 14.308 17.6267C15.028 18.3334 15.7213 18.9867 16.428 19.5867C17.1213 20.1734 17.6946 20.5734 18.148 20.8134C18.2146 20.84 18.2946 20.88 18.388 20.92C18.4946 20.96 18.6013 20.9734 18.7213 20.9734C18.948 20.9734 19.1213 20.8934 19.268 20.7467L20.2813 19.7467C20.6146 19.4134 20.9346 19.16 21.2413 19C21.548 18.8134 21.8546 18.72 22.188 18.72C22.4413 18.72 22.708 18.7734 23.0013 18.8934C23.2946 19.0134 23.6013 19.1867 23.9346 19.4134L28.348 22.5467C28.6946 22.7867 28.9346 23.0667 29.0813 23.4C29.2146 23.7334 29.2946 24.0667 29.2946 24.44C29.2946 24.92 29.188 25.4134 28.9613 25.8934C28.7346 26.3734 28.4413 26.8267 28.0546 27.2534C27.4013 27.9734 26.6813 28.4934 25.868 28.8267C25.068 29.16 24.2013 29.3334 23.268 29.3334C21.908 29.3334 20.4546 29.0134 18.9213 28.36C17.388 27.7067 15.8546 26.8267 14.3346 25.72C12.8013 24.6 11.348 23.36 9.9613 21.9867C8.58797 20.6 7.34797 19.1467 6.2413 17.6267C5.14797 16.1067 4.26797 14.5867 3.62797 13.08C2.98797 11.56 2.66797 10.1067 2.66797 8.72002C2.66797 7.81335 2.82797 6.94669 3.14797 6.14669C3.46797 5.33335 3.97464 4.58669 4.6813 3.92002C5.53464 3.08002 6.46797 2.66669 7.45464 2.66669C7.82797 2.66669 8.2013 2.74669 8.53464 2.90669C8.8813 3.06669 9.18797 3.30669 9.42797 3.65335" fill="#FDB714"/>
<path d="M12.5213 8.01335C12.7613 8.34669 12.9346 8.65335 13.0546 8.94669C13.1746 9.22669 13.2413 9.50669 13.2413 9.76002C13.2413 10.08 13.148 10.4 12.9613 10.7067C12.788 11.0134 12.5346 11.3334 12.2146 11.6534L11.2013 12.7067C11.0546 12.8534 10.988 13.0267 10.988 13.24C10.988 13.3467 11.0013 13.44 11.028 13.5467C11.068 13.6534 11.108 13.7334 11.1346 13.8134C11.3746 14.2534 11.788 14.8267 12.3746 15.52C12.9746 16.2134 13.6146 16.92 14.308 17.6267C15.028 18.3334 15.7213 18.9867 16.428 19.5867C17.1213 20.1734 17.6946 20.5734 18.148 20.8134C18.2146 20.84 18.2946 20.88 18.388 20.92C18.4946 20.96 18.6013 20.9734 18.7213 20.9734C18.948 20.9734 19.1213 20.8934 19.268 20.7467L20.2813 19.7467C20.6146 19.4134 20.9346 19.16 21.2413 19C21.548 18.8134 21.8546 18.72 22.188 18.72C22.4413 18.72 22.708 18.7734 23.0013 18.8934C23.2946 19.0134 23.6013 19.1867 23.9346 19.4134L28.348 22.5467C28.6946 22.7867 28.9346 23.0667 29.0813 23.4C29.2146 23.7334 29.2946 24.0667 29.2946 24.44C29.2946 24.92 29.188 25.4134 28.9613 25.8934C28.7346 26.3734 28.4413 26.8267 28.0546 27.2534C27.4013 27.9734 26.6813 28.4934 25.868 28.8267C25.068 29.16 24.2013 29.3334 23.268 29.3334C21.908 29.3334 20.4546 29.0134 18.9213 28.36C17.388 27.7067 15.8546 26.8267 14.3346 25.72C12.8013 24.6 11.348 23.36 9.9613 21.9867C8.58797 20.6 7.34797 19.1467 6.2413 17.6267C5.14797 16.1067 4.26797 14.5867 3.62797 13.08C2.98797 11.56 2.66797 10.1067 2.66797 8.72002C2.66797 7.81335 2.82797 6.94669 3.14797 6.14669C3.46797 5.33335 3.97464 4.58669 4.6813 3.92002C5.53464 3.08002 6.46797 2.66669 7.45464 2.66669C7.82797 2.66669 8.2013 2.74669 8.53464 2.90669C8.8813 3.06669 9.18797 3.30669 9.42797 3.65335" stroke="#170006" stroke-width="1.5" stroke-miterlimit="10" stroke-linecap="round" stroke-linejoin="round"/>
<path d="M24.6667 12C24.6667 11.2 24.04 9.97331 23.1067 8.97331C22.2533 8.05331 21.12 7.33331 20 7.33331" stroke="#170006" stroke-width="1.5" stroke-linecap="round" stroke-linejoin="round"/>
<path d="M22.68 3.05335C21.8267 2.80002 20.9333 2.66669 20 2.66669" stroke="#170006" stroke-width="1.5" stroke-linecap="round" stroke-linejoin="round"/>
<path d="M29.3327 12C29.3327 8.83999 27.7594 6.03999 25.3594 4.35999" stroke="#170006" stroke-width="1.5" stroke-linecap="round" stroke-linejoin="round"/>
</svg>
