<svg width="15" height="14" viewBox="0 0 15 14" fill="none" xmlns="http://www.w3.org/2000/svg">
<path d="M6.86666 13.8559C6.82142 13.8559 6.77668 13.8466 6.73524 13.8284C6.69379 13.8103 6.65655 13.7838 6.62585 13.7506L0.133025 6.72719C0.0897424 6.68037 0.0610486 6.62194 0.0504557 6.55906C0.0398627 6.49619 0.04783 6.43159 0.0733826 6.37317C0.0989352 6.31475 0.140965 6.26504 0.194327 6.23014C0.247689 6.19523 0.310069 6.17664 0.373833 6.17664H3.49912C3.54604 6.17665 3.59242 6.18672 3.63512 6.20617C3.67782 6.22563 3.71585 6.25402 3.74665 6.28942L5.91658 8.78585C6.15109 8.28456 6.60506 7.44988 7.4017 6.4328C8.5794 4.92918 10.77 2.71784 14.5178 0.721589C14.5903 0.683014 14.6746 0.673002 14.754 0.693531C14.8335 0.71406 14.9024 0.763636 14.947 0.832472C14.9917 0.901307 15.009 0.984397 14.9954 1.06533C14.9818 1.14627 14.9384 1.21917 14.8737 1.26965C14.8594 1.28083 13.4143 2.41879 11.7513 4.50315C10.2207 6.42129 8.18607 9.55772 7.18489 13.6068C7.16731 13.678 7.1264 13.7412 7.0687 13.7863C7.011 13.8315 6.93984 13.8561 6.86656 13.8561L6.86666 13.8559Z" fill="white"/>
</svg>
