<svg width="13" height="13" viewBox="0 0 13 13" fill="none" xmlns="http://www.w3.org/2000/svg">
<path d="M6.5 13C10.0899 13 13 10.0899 13 6.5C13 2.91015 10.0899 0 6.5 0C2.91015 0 0 2.91015 0 6.5C0 10.0899 2.91015 13 6.5 13Z" fill="#FDB714"/>
<path fill-rule="evenodd" clip-rule="evenodd" d="M4.47001 9.67L2.09275 7.12563C1.76729 6.77729 1.78597 6.22617 2.13431 5.90071C2.48265 5.57525 3.03377 5.59399 3.35923 5.94227L5.19295 7.90486L8.09548 5.19293C8.12158 5.16852 8.14886 5.14615 8.17706 5.12558L9.54201 3.8503C9.89035 3.52484 10.4415 3.54357 10.7669 3.89191C11.0924 4.24019 11.0737 4.79136 10.7254 5.11682L6.55646 9.01196L6.55201 9.0072L5.10993 10.3546L4.47001 9.67Z" fill="#0B3948"/>
</svg>
