<svg width="19" height="23" viewBox="0 0 19 23" fill="none" xmlns="http://www.w3.org/2000/svg">
<path d="M18.3399 20.6547C18.2773 20.7329 18.2031 20.7876 18.1171 20.8189C18.0311 20.8502 17.9412 20.8658 17.8474 20.8658C17.8161 20.8658 17.7809 20.8658 17.7418 20.8658C17.7027 20.8658 17.6676 20.858 17.6363 20.8424L14.8454 19.8808L13.6728 22.6013C13.6259 22.7264 13.5477 22.8241 13.4383 22.8945C13.3289 22.9648 13.2116 23 13.0865 23H13.0631C12.938 23 12.8207 22.9648 12.7113 22.8945C12.6018 22.8241 12.5236 22.7342 12.4767 22.6248V22.6013L10.2957 17.6528C10.1393 17.6841 9.97123 17.7036 9.79143 17.7115C9.61163 17.7193 9.42792 17.7232 9.2403 17.7232C9.06831 17.7232 8.89242 17.7193 8.71261 17.7115C8.53281 17.7036 8.3491 17.6841 8.16148 17.6528H8.20838L6.0273 22.6013C5.98039 22.7264 5.90222 22.8241 5.79277 22.8945C5.68333 22.9648 5.55825 23 5.41753 23C5.29245 23 5.17519 22.9648 5.06575 22.8945C4.9563 22.8241 4.87813 22.7264 4.83122 22.6013L3.65859 19.8808L0.867743 20.8424C0.836473 20.858 0.801295 20.8658 0.762207 20.8658C0.72312 20.8658 0.687941 20.8658 0.656671 20.8658C0.469051 20.8658 0.3127 20.8033 0.18762 20.6782C0.0625401 20.5531 0 20.4046 0 20.2326C0 20.1857 0.00390875 20.1388 0.0117263 20.0919C0.0195438 20.045 0.03127 19.9981 0.0469051 19.9512L2.50942 14.3929C1.96219 13.6893 1.53223 12.8959 1.21953 12.0125C0.906831 11.1291 0.750481 10.2027 0.750481 9.23337C0.750481 9.23337 0.750481 9.22946 0.750481 9.22164C0.750481 9.21382 0.750481 9.20991 0.750481 9.20991C0.750481 8.03729 0.977189 6.93502 1.4306 5.90311C1.86838 4.85556 2.47033 3.94482 3.23645 3.17089C4.00256 2.39695 4.90158 1.78328 5.93349 1.32986C6.9654 0.892084 8.06767 0.673193 9.2403 0.673193C10.4129 0.673193 11.5152 0.892084 12.5471 1.32986C13.579 1.78328 14.4819 2.39695 15.2559 3.17089C16.0298 3.94482 16.6357 4.85556 17.0734 5.90311C17.5269 6.93502 17.7536 8.03729 17.7536 9.20991C17.7536 9.20991 17.7536 9.21382 17.7536 9.22164C17.7536 9.22946 17.7536 9.23337 17.7536 9.23337C17.7536 10.2027 17.5972 11.1291 17.2845 12.0125C16.9718 12.8959 16.534 13.6972 15.9712 14.4164L15.9946 14.3929L18.4571 19.9512C18.4728 19.9981 18.4845 20.0411 18.4923 20.0802C18.5001 20.1192 18.504 20.1701 18.504 20.2326C18.504 20.3108 18.4884 20.389 18.4571 20.4671C18.4259 20.5453 18.3868 20.6078 18.3399 20.6547ZM1.85275 19.1303L3.79931 18.4502C3.83058 18.4502 3.86576 18.4463 3.90485 18.4385C3.94393 18.4307 3.97911 18.4268 4.01038 18.4268C4.1511 18.4268 4.27618 18.4619 4.38562 18.5323C4.49507 18.6027 4.57324 18.6926 4.62015 18.802V18.8254L5.44099 20.7017L6.89504 17.3948C6.22274 17.1916 5.60124 16.9258 5.03057 16.5975C4.45989 16.2691 3.94002 15.8861 3.47097 15.4483L1.85275 19.1303ZM16.4402 9.20991C16.4402 8.22491 16.2526 7.28681 15.8774 6.39561C15.5021 5.52005 14.9901 4.75393 14.3412 4.09726C13.6924 3.44059 12.9302 2.92464 12.0546 2.5494C11.179 2.17416 10.2409 1.98653 9.2403 1.98653C8.25529 1.98653 7.32501 2.17416 6.44944 2.5494C5.57388 2.92464 4.81168 3.44059 4.16282 4.09726C3.51397 4.75393 3.00192 5.52005 2.62668 6.39561C2.25144 7.28681 2.06382 8.22491 2.06382 9.20991C2.06382 10.2106 2.25144 11.1487 2.62668 12.0242C3.00192 12.8998 3.51397 13.662 4.16282 14.3108C4.81168 14.9597 5.57388 15.4717 6.44944 15.847C7.32501 16.2222 8.25529 16.4098 9.2403 16.4098C10.2409 16.4098 11.179 16.2222 12.0546 15.847C12.9302 15.4717 13.6924 14.9597 14.3412 14.3108C14.9901 13.662 15.5021 12.8998 15.8774 12.0242C16.2526 11.1487 16.4402 10.2106 16.4402 9.20991ZM15.0331 15.4483C14.564 15.8861 14.0442 16.2691 13.4735 16.5975C12.9028 16.9258 12.2969 17.1838 11.6559 17.3714L11.609 17.3948L13.0631 20.7017L13.8839 18.8254C13.9308 18.7004 14.009 18.6027 14.1184 18.5323C14.2279 18.4619 14.3529 18.4268 14.4937 18.4268C14.5249 18.4268 14.5601 18.4307 14.5992 18.4385C14.6383 18.4463 14.6735 18.4502 14.7047 18.4502H14.6813L16.6513 19.1303L15.0331 15.4483ZM11.8201 10.0542L12.1953 12.2822C12.1953 12.2978 12.1992 12.3174 12.207 12.3408C12.2149 12.3643 12.2188 12.3838 12.2188 12.3995C12.2188 12.5714 12.1523 12.7239 12.0194 12.8568C11.8865 12.9897 11.7341 13.0561 11.5621 13.0561C11.4996 13.0561 11.4448 13.0483 11.3979 13.0327C11.351 13.017 11.3041 12.9936 11.2572 12.9623L9.2403 11.9304L7.24683 12.9623C7.19993 12.9936 7.15302 13.017 7.10612 13.0327C7.05921 13.0483 7.00449 13.0561 6.94195 13.0561C6.76996 13.0561 6.61752 12.9897 6.48462 12.8568C6.35173 12.7239 6.28528 12.5714 6.28528 12.3995C6.28528 12.3682 6.28528 12.3447 6.28528 12.3291C6.28528 12.3135 6.29309 12.2978 6.30873 12.2822L6.68397 10.0542L5.06575 8.48289C5.00321 8.42035 4.95239 8.34999 4.9133 8.27181C4.87422 8.19364 4.85467 8.10765 4.85467 8.01383C4.85467 7.84185 4.9094 7.69723 5.01884 7.57996C5.12829 7.4627 5.26118 7.38843 5.41753 7.35716L7.66898 7.02883L8.65398 5.01191C8.71652 4.90247 8.79861 4.81256 8.90023 4.74221C9.00186 4.67185 9.11522 4.63667 9.2403 4.63667C9.38101 4.63667 9.50218 4.67185 9.60381 4.74221C9.70544 4.81256 9.7797 4.89465 9.82661 4.98846V5.01191L10.8351 7.02883L13.0865 7.35716C13.2429 7.38843 13.3718 7.4627 13.4735 7.57996C13.5751 7.69723 13.6259 7.84185 13.6259 8.01383C13.6259 8.10765 13.6103 8.19364 13.579 8.27181C13.5477 8.34999 13.5008 8.42035 13.4383 8.48289L11.8201 10.0542ZM10.3191 8.27181C10.2097 8.25618 10.1119 8.21709 10.026 8.15455C9.93996 8.09201 9.87351 8.01383 9.82661 7.92002L9.2403 6.77085L8.67743 7.92002C8.63053 8.01383 8.56408 8.09201 8.47809 8.15455C8.3921 8.21709 8.29438 8.25618 8.18493 8.27181L6.9185 8.45943L7.83314 9.35063C7.91132 9.4288 7.96995 9.51871 8.00904 9.62033C8.04813 9.72196 8.05203 9.8275 8.02076 9.93694L7.80969 11.2034L8.93541 10.5936C9.04486 10.5467 9.15039 10.5233 9.25202 10.5233C9.35365 10.5233 9.45137 10.5467 9.54518 10.5936L10.6944 11.2034L10.4833 9.93694C10.4676 9.92131 10.4598 9.90176 10.4598 9.87831C10.4598 9.85486 10.4598 9.83531 10.4598 9.81968C10.4598 9.72587 10.4794 9.63988 10.5185 9.5617C10.5575 9.48353 10.6084 9.41317 10.6709 9.35063L11.5855 8.45943L10.3191 8.27181Z" fill="#170006"/>
</svg>
