<svg width="24" height="26" viewBox="0 0 24 26" fill="none" xmlns="http://www.w3.org/2000/svg">
<path d="M22.875 18.4016C22.3125 18.8547 21.7188 19.2532 21.0938 19.5969C20.4531 19.9407 19.793 20.2375 19.1133 20.4875C18.4336 20.7375 17.7422 20.9329 17.0391 21.0735C16.3203 21.1985 15.5938 21.2766 14.8594 21.3079C14.2344 21.3235 13.6016 21.3938 12.9609 21.5188C12.3359 21.6438 11.7188 21.8157 11.1094 22.0344C10.5 22.2532 9.90625 22.5266 9.32812 22.8547C8.76562 23.1829 8.22656 23.55 7.71094 23.9563C7.64844 24.0032 7.58203 24.0383 7.51172 24.0618C7.44141 24.0852 7.36719 24.0969 7.28906 24.0969C7.14844 24.0969 7.01953 24.0579 6.90234 23.9797C6.78516 23.9016 6.70312 23.7922 6.65625 23.6516L3.89062 16.0579C3.89062 16.011 3.88672 15.968 3.87891 15.929C3.87109 15.8899 3.86719 15.8547 3.86719 15.8235C3.86719 15.7141 3.89062 15.6125 3.9375 15.5188C3.98438 15.425 4.04688 15.3469 4.125 15.2844C4.76562 14.7688 5.46875 14.3118 6.23438 13.9133C7 13.5149 7.80469 13.1907 8.64844 12.9407L8.74219 12.9172L8.48438 12.8938C7.76562 12.8782 7.04688 12.8 6.32812 12.6594C5.625 12.5344 4.93359 12.3469 4.25391 12.0969C3.57422 11.8469 2.91406 11.55 2.27344 11.2063C1.64844 10.8469 1.05469 10.4485 0.492188 10.011C0.414062 9.94849 0.351562 9.87036 0.304688 9.77661C0.257812 9.68286 0.234375 9.5813 0.234375 9.47192C0.234375 9.44067 0.238281 9.40552 0.246094 9.36646C0.253906 9.32739 0.265625 9.28442 0.28125 9.23755V9.26099L3.07031 1.6438C3.11719 1.5188 3.19922 1.41333 3.31641 1.32739C3.43359 1.24146 3.5625 1.19849 3.70312 1.19849C3.78125 1.19849 3.85547 1.21411 3.92578 1.24536C3.99609 1.27661 4.0625 1.30786 4.125 1.33911C4.64062 1.76099 5.17969 2.12817 5.74219 2.44067C6.32031 2.7688 6.91406 3.04614 7.52344 3.27271C8.13281 3.49927 8.75 3.66724 9.375 3.77661C10.0156 3.90161 10.6484 3.97974 11.2734 4.01099C12.0391 4.02661 12.7812 4.10474 13.5 4.24536C14.2188 4.38599 14.9141 4.5813 15.5859 4.8313C16.2578 5.0813 16.9062 5.38599 17.5312 5.74536C18.1406 6.08911 18.7188 6.47974 19.2656 6.91724L19.2422 6.8938C19.3203 6.9563 19.3828 7.03442 19.4297 7.12817C19.4766 7.22192 19.5 7.32349 19.5 7.43286C19.5 7.46411 19.4961 7.49927 19.4883 7.53833C19.4805 7.57739 19.4688 7.62036 19.4531 7.66724V7.6438L18.4922 10.3391C18.6172 10.261 18.7422 10.175 18.8672 10.0813C18.9922 9.98755 19.1172 9.88599 19.2422 9.77661C19.3047 9.74536 19.3711 9.71411 19.4414 9.68286C19.5117 9.65161 19.5859 9.63599 19.6641 9.63599C19.6953 9.63599 19.7266 9.63989 19.7578 9.64771C19.7891 9.65552 19.8203 9.65942 19.8516 9.65942C19.9453 9.69067 20.0312 9.74146 20.1094 9.81177C20.1875 9.88208 20.25 9.97192 20.2969 10.0813L23.0859 17.6516C23.1016 17.6829 23.1133 17.718 23.1211 17.7571C23.1289 17.7961 23.1328 17.8391 23.1328 17.886C23.1328 17.9797 23.1094 18.0735 23.0625 18.1672C23.0156 18.261 22.9531 18.3391 22.875 18.4016ZM11.25 5.34692C10.6094 5.3313 9.97656 5.26099 9.35156 5.13599C8.71094 5.02661 8.08594 4.87036 7.47656 4.66724C6.86719 4.46411 6.27344 4.22192 5.69531 3.94067C5.11719 3.6438 4.5625 3.31567 4.03125 2.9563L1.71094 9.23755C2.64844 9.94067 3.69531 10.4954 4.85156 10.9016C6.00781 11.3079 7.22656 11.5266 8.50781 11.5579H8.53125C9.25 11.5891 9.96094 11.6711 10.6641 11.804C11.3672 11.9368 12.0547 12.1204 12.7266 12.3547C13.4141 12.3079 14.0898 12.1946 14.7539 12.0149C15.418 11.8352 16.0625 11.6047 16.6875 11.3235L18.0234 7.66724C17.0859 6.96411 16.043 6.40942 14.8945 6.00317C13.7461 5.59692 12.5391 5.37817 11.2734 5.34692H11.25ZM19.3359 11.3938C18.4141 12.0344 17.3906 12.5579 16.2656 12.9641C15.1406 13.3704 13.9609 13.6204 12.7266 13.7141H12.6797C12.3047 13.7297 11.8516 13.761 11.3203 13.8079C10.8047 13.8391 10.2305 13.929 9.59766 14.0774C8.96484 14.2258 8.28906 14.4563 7.57031 14.7688C6.83594 15.0657 6.08594 15.4954 5.32031 16.0579L7.61719 22.3625C8.14844 21.9875 8.70312 21.6516 9.28125 21.3547C9.85938 21.0735 10.457 20.8313 11.0742 20.6282C11.6914 20.425 12.3125 20.2688 12.9375 20.1594C13.5625 20.0344 14.1953 19.9641 14.8359 19.9485C16.1172 19.9172 17.3398 19.6985 18.5039 19.2922C19.668 18.886 20.7344 18.3313 21.7031 17.6282L21.6562 17.6516L19.3359 11.3938ZM11.5781 17.5344C11.5469 17.425 11.5195 17.3157 11.4961 17.2063C11.4727 17.0969 11.4609 16.9797 11.4609 16.8547C11.4609 16.4172 11.582 16.0266 11.8242 15.6829C12.0664 15.3391 12.3828 15.0969 12.7734 14.9563H12.7969C12.8906 14.925 12.9961 14.8977 13.1133 14.8743C13.2305 14.8508 13.3516 14.8391 13.4766 14.8391C13.9141 14.8391 14.3008 14.9602 14.6367 15.2024C14.9727 15.4446 15.2109 15.761 15.3516 16.1516H15.375C15.4062 16.261 15.4336 16.3743 15.457 16.4915C15.4805 16.6086 15.4922 16.7297 15.4922 16.8547C15.4922 17.2766 15.3672 17.6594 15.1172 18.0032C14.8672 18.3469 14.5547 18.5891 14.1797 18.7297H14.1562C14.0625 18.7766 13.957 18.8118 13.8398 18.8352C13.7227 18.8586 13.6016 18.8704 13.4766 18.8704C13.0391 18.8704 12.6523 18.7454 12.3164 18.4954C11.9805 18.2454 11.7344 17.9329 11.5781 17.5579V17.5344ZM14.1094 16.6204C14.0625 16.4954 13.9805 16.3899 13.8633 16.304C13.7461 16.218 13.6172 16.175 13.4766 16.175C13.2891 16.175 13.1289 16.2415 12.9961 16.3743C12.8633 16.5071 12.7969 16.6672 12.7969 16.8547C12.7969 16.886 12.8008 16.9211 12.8086 16.9602C12.8164 16.9993 12.8281 17.0422 12.8438 17.0891V17.0657C12.8906 17.2063 12.9727 17.3157 13.0898 17.3938C13.207 17.4719 13.3359 17.511 13.4766 17.511C13.6641 17.511 13.8242 17.4485 13.957 17.3235C14.0898 17.1985 14.1562 17.0422 14.1562 16.8547C14.1562 16.8079 14.1523 16.7649 14.1445 16.7258C14.1367 16.6868 14.125 16.6516 14.1094 16.6204ZM17.0391 14.8391H17.0156C16.8906 14.886 16.7891 14.968 16.7109 15.0852C16.6328 15.2024 16.5938 15.3313 16.5938 15.4719C16.5938 15.6594 16.6602 15.8157 16.793 15.9407C16.9258 16.0657 17.0859 16.1282 17.2734 16.1282C17.3047 16.1282 17.3398 16.1282 17.3789 16.1282C17.418 16.1282 17.4531 16.1204 17.4844 16.1047C17.625 16.0579 17.7344 15.9758 17.8125 15.8586C17.8906 15.7415 17.9297 15.6125 17.9297 15.4719C17.9297 15.2844 17.8633 15.1243 17.7305 14.9915C17.5977 14.8586 17.4453 14.7922 17.2734 14.7922C17.2266 14.7922 17.1836 14.7961 17.1445 14.804C17.1055 14.8118 17.0703 14.8235 17.0391 14.8391ZM9.91406 18.8469H9.9375C10.0625 18.8 10.1641 18.7219 10.2422 18.6125C10.3203 18.5032 10.3594 18.3704 10.3594 18.2141C10.3594 18.0422 10.293 17.8899 10.1602 17.7571C10.0273 17.6243 9.875 17.5579 9.70312 17.5579C9.65625 17.5579 9.61328 17.5618 9.57422 17.5696C9.53516 17.5774 9.5 17.5891 9.46875 17.6047C9.32812 17.6516 9.21875 17.7297 9.14062 17.8391C9.0625 17.9485 9.02344 18.0735 9.02344 18.2141C9.02344 18.4016 9.08984 18.5618 9.22266 18.6946C9.35547 18.8274 9.51562 18.8938 9.70312 18.8938C9.73438 18.8938 9.76953 18.8899 9.80859 18.8821C9.84766 18.8743 9.88281 18.8625 9.91406 18.8469ZM13.4531 10.4563H13.4297C13.4766 10.4719 13.5156 10.4836 13.5469 10.4915C13.5781 10.4993 13.6094 10.5032 13.6406 10.5032C13.8281 10.5032 13.9883 10.4368 14.1211 10.304C14.2539 10.1711 14.3203 10.011 14.3203 9.82349C14.3203 9.68286 14.2812 9.55786 14.2031 9.44849C14.125 9.33911 14.0234 9.25317 13.8984 9.19067C13.8672 9.17505 13.8281 9.16333 13.7812 9.15552C13.7344 9.14771 13.6875 9.1438 13.6406 9.1438C13.4531 9.1438 13.2969 9.21021 13.1719 9.34302C13.0469 9.47583 12.9844 9.63599 12.9844 9.82349C12.9844 9.96411 13.0273 10.093 13.1133 10.2102C13.1992 10.3274 13.3125 10.4094 13.4531 10.4563ZM9.21094 10.3391C8.80469 10.1985 8.47656 9.9563 8.22656 9.61255C7.97656 9.2688 7.85156 8.87817 7.85156 8.44067C7.85156 7.8938 8.05078 7.42114 8.44922 7.02271C8.84766 6.62427 9.32031 6.42505 9.86719 6.42505C9.99219 6.42505 10.1172 6.43677 10.2422 6.46021C10.3672 6.48364 10.4844 6.5188 10.5938 6.56567H10.5703C10.9609 6.7063 11.2773 6.94849 11.5195 7.29224C11.7617 7.63599 11.8828 8.0188 11.8828 8.44067C11.8828 9.00317 11.6875 9.47974 11.2969 9.87036C10.9062 10.261 10.4297 10.4563 9.86719 10.4563C9.75781 10.4563 9.64453 10.4485 9.52734 10.4329C9.41016 10.4172 9.29688 10.386 9.1875 10.3391H9.21094ZM10.125 7.8313C10.0781 7.81567 10.0352 7.80005 9.99609 7.78442C9.95703 7.7688 9.90625 7.76099 9.84375 7.76099C9.67188 7.76099 9.51953 7.82739 9.38672 7.96021C9.25391 8.09302 9.1875 8.25317 9.1875 8.44067C9.1875 8.59692 9.23047 8.73364 9.31641 8.85083C9.40234 8.96802 9.51562 9.04224 9.65625 9.07349C9.6875 9.08911 9.71875 9.10083 9.75 9.10864C9.78125 9.11646 9.8125 9.12036 9.84375 9.12036C10.0312 9.12036 10.1914 9.05396 10.3242 8.92114C10.457 8.78833 10.5234 8.62817 10.5234 8.44067C10.5234 8.30005 10.4883 8.17505 10.418 8.06567C10.3477 7.9563 10.25 7.87817 10.125 7.8313ZM5.88281 7.71411C5.91406 7.71411 5.94922 7.71802 5.98828 7.72583C6.02734 7.73364 6.07031 7.73755 6.11719 7.73755C6.28906 7.73755 6.44141 7.67505 6.57422 7.55005C6.70703 7.42505 6.77344 7.2688 6.77344 7.0813C6.77344 6.94067 6.73438 6.81177 6.65625 6.69458C6.57812 6.57739 6.46875 6.49536 6.32812 6.44849H6.35156C6.30469 6.43286 6.26172 6.42114 6.22266 6.41333C6.18359 6.40552 6.14844 6.40161 6.11719 6.40161C5.92969 6.40161 5.76953 6.46802 5.63672 6.60083C5.50391 6.73364 5.4375 6.8938 5.4375 7.0813C5.4375 7.22192 5.47656 7.35083 5.55469 7.46802C5.63281 7.58521 5.74219 7.66724 5.88281 7.71411Z" fill="#170006"/>
</svg>
