<svg width="23" height="26" viewBox="0 0 23 26" fill="none" xmlns="http://www.w3.org/2000/svg">
<g clip-path="url(#clip0_1664_2480)">
<path d="M18.9705 5.18319C18.4702 4.68293 17.9231 4.22958 17.329 3.82312C16.7506 3.41667 16.1292 3.07665 15.4648 2.80308C14.8004 2.5295 14.1087 2.31455 13.3896 2.15822C12.6704 2.00189 11.9279 1.92373 11.1619 1.92373C11.1462 1.92373 11.1384 1.92373 11.1384 1.92373C11.1384 1.92373 11.1306 1.92373 11.115 1.92373C11.115 1.92373 11.1111 1.92373 11.1032 1.92373C11.0954 1.92373 11.0915 1.92373 11.0915 1.92373C10.3255 1.92373 9.58295 2.00189 8.86384 2.15822C8.14472 2.31455 7.45297 2.5295 6.78857 2.80308C6.12417 3.07665 5.49495 3.41667 4.9009 3.82312C4.32248 4.22958 3.78315 4.68293 3.2829 5.18319C2.78264 5.68344 2.32929 6.23059 1.92283 6.82464C1.51638 7.40306 1.17245 8.02446 0.891063 8.68886C0.609671 9.35326 0.398627 10.045 0.257931 10.7641C0.101602 11.4832 0.0234375 12.2258 0.0234375 12.9918C0.0234375 13.0074 0.0234375 13.0153 0.0234375 13.0153C0.0234375 13.0153 0.0234375 13.0231 0.0234375 13.0387V13.0153C0.0234375 13.0309 0.0234375 13.0387 0.0234375 13.0387C0.0234375 13.0387 0.0234375 13.0465 0.0234375 13.0622C0.0234375 13.8282 0.101602 14.5707 0.257931 15.2898C0.398627 16.009 0.609671 16.7007 0.891063 17.3651C1.17245 18.0295 1.51638 18.6509 1.92283 19.2293C2.32929 19.8234 2.78264 20.3705 3.2829 20.8708C3.78315 21.371 4.32248 21.8244 4.9009 22.2309C5.49495 22.6373 6.12417 22.9773 6.78857 23.2509C7.45297 23.5245 8.14472 23.7394 8.86384 23.8958C9.58295 24.0521 10.3255 24.1302 11.0915 24.1302C11.0915 24.1302 11.0954 24.1302 11.1032 24.1302C11.1111 24.1302 11.115 24.1302 11.115 24.1302C11.1306 24.1302 11.1384 24.1302 11.1384 24.1302C11.1384 24.1302 11.1462 24.1302 11.1619 24.1302C11.9123 24.1302 12.6548 24.0521 13.3896 23.8958C14.1087 23.7394 14.8004 23.5245 15.4648 23.2509C16.1292 22.9773 16.7506 22.6373 17.329 22.2309C17.9231 21.8244 18.4702 21.371 18.9705 20.8708C19.4708 20.3705 19.9241 19.8234 20.3306 19.2293C20.7214 18.6509 21.0575 18.0295 21.3389 17.3651C21.6203 16.7007 21.8391 16.009 21.9955 15.2898C22.1518 14.5707 22.23 13.8282 22.23 13.0622C22.23 13.0465 22.23 13.0387 22.23 13.0387C22.23 13.0387 22.23 13.0309 22.23 13.0153C22.23 13.0153 22.23 13.0074 22.23 12.9918C22.23 12.2258 22.1518 11.4832 21.9955 10.7641C21.8391 10.045 21.6203 9.35326 21.3389 8.68886C21.0575 8.02446 20.7214 7.40306 20.3306 6.82464C19.9241 6.23059 19.4708 5.68344 18.9705 5.18319ZM11.115 22.8171C10.7554 22.8171 10.3802 22.5865 9.9894 22.1253C9.59858 21.6642 9.24684 21.0193 8.93419 20.1908C8.82475 19.8781 8.71532 19.5381 8.60589 19.1707C8.49646 18.8033 8.40267 18.4242 8.3245 18.0334L8.30105 17.9396H13.9523C13.8585 18.3773 13.7569 18.7877 13.6475 19.1707C13.5381 19.5537 13.413 19.925 13.2723 20.2846L13.2958 20.1908C12.9831 21.0193 12.6353 21.6642 12.2523 22.1253C11.8693 22.5865 11.4902 22.8171 11.115 22.8171ZM8.06656 16.6499C7.9884 16.1184 7.92977 15.5478 7.89069 14.9381C7.85161 14.3284 7.83207 13.7109 7.83207 13.0856C7.83207 13.07 7.83207 13.0583 7.83207 13.0504C7.83207 13.0426 7.83207 13.0309 7.83207 13.0153C7.83207 12.3899 7.85161 11.7685 7.89069 11.151C7.92977 10.5335 7.99621 9.93559 8.09001 9.35717H14.1634C14.2416 9.88869 14.3041 10.4632 14.351 11.0807C14.3979 11.6982 14.4213 12.3274 14.4213 12.9684C14.4213 12.984 14.4213 12.9957 14.4213 13.0035C14.4213 13.0114 14.4213 13.0231 14.4213 13.0387V13.0153C14.4213 13.0309 14.4213 13.0426 14.4213 13.0504C14.4213 13.0583 14.4213 13.07 14.4213 13.0856C14.4213 13.7109 14.3979 14.3323 14.351 14.9498C14.3041 15.5673 14.2416 16.1809 14.1634 16.7906V16.6499H8.06656ZM1.3366 13.0153C1.3366 12.3899 1.39522 11.7646 1.51247 11.1393C1.62972 10.514 1.80559 9.91995 2.04008 9.35717H6.77685C6.69868 9.90432 6.64006 10.4866 6.60098 11.1041C6.56189 11.7216 6.54235 12.3509 6.54235 12.9918C6.54235 12.9918 6.54235 12.9957 6.54235 13.0035C6.54235 13.0114 6.54235 13.0231 6.54235 13.0387V13.0153C6.54235 13.6562 6.56189 14.2776 6.60098 14.8795C6.64006 15.4814 6.69868 16.0715 6.77685 16.6499H2.01663C1.79777 16.1184 1.62972 15.5478 1.51247 14.9381C1.39522 14.3284 1.3366 13.6953 1.3366 13.0387C1.3366 13.0387 1.3366 13.0309 1.3366 13.0153ZM11.115 3.23689C11.4902 3.23689 11.8693 3.46748 12.2523 3.92865C12.6353 4.38982 12.9831 5.03467 13.2958 5.86322C13.4208 6.19151 13.5381 6.53934 13.6475 6.90671C13.7569 7.27409 13.8507 7.65318 13.9289 8.044H8.3245C8.40267 7.65318 8.49256 7.27409 8.59417 6.90671C8.69578 6.53934 8.80912 6.19151 8.93419 5.86322C9.24684 5.03467 9.59858 4.38982 9.9894 3.92865C10.3802 3.46748 10.7554 3.23689 11.115 3.23689ZM15.4765 9.35717H20.2133C20.4322 9.88869 20.6041 10.4671 20.7292 11.0924C20.8543 11.7177 20.9168 12.3587 20.9168 13.0153C20.9168 13.0153 20.9168 13.0231 20.9168 13.0387V13.0153C20.9168 13.0309 20.9168 13.0387 20.9168 13.0387C20.9168 13.6953 20.8582 14.3284 20.7409 14.9381C20.6237 15.5478 20.4478 16.1418 20.2133 16.7203L20.2368 16.6499H15.4765C15.5547 16.0715 15.6133 15.4814 15.6524 14.8795C15.6915 14.2776 15.711 13.6562 15.711 13.0153C15.711 12.3899 15.6915 11.7685 15.6524 11.151C15.6133 10.5335 15.5547 9.93559 15.4765 9.35717ZM19.5567 8.044H15.2655C15.1561 7.57502 15.0427 7.11776 14.9255 6.67222C14.8082 6.22668 14.6715 5.8085 14.5151 5.41768C14.3901 5.05812 14.2455 4.72202 14.0813 4.40936C13.9172 4.0967 13.7413 3.79186 13.5537 3.49483L13.5772 3.54173C14.4526 3.77623 15.2655 4.10843 16.0159 4.53833C16.7663 4.96823 17.4463 5.48803 18.056 6.09771C18.3374 6.3791 18.6031 6.68003 18.8533 7.00051C19.1034 7.32098 19.3301 7.65318 19.5333 7.99711L19.5567 8.044ZM4.19742 6.09771C4.79147 5.48803 5.46368 4.96823 6.21406 4.53833C6.96444 4.10843 7.76172 3.77623 8.60589 3.54173H8.67624C8.48865 3.80749 8.31669 4.09279 8.16036 4.39763C8.00403 4.70247 7.86333 5.01904 7.73827 5.34733V5.41768C7.59757 5.77724 7.46469 6.17587 7.33963 6.6136C7.21457 7.05132 7.10514 7.49685 7.01134 7.95021L6.98789 8.044H2.67321C2.89207 7.68445 3.13047 7.34052 3.38842 7.01223C3.64636 6.68394 3.91603 6.3791 4.19742 6.09771ZM2.64976 17.9396H6.98789C7.08169 18.4399 7.19112 18.9128 7.31618 19.3583C7.44124 19.8038 7.58194 20.2298 7.73827 20.6363C7.86333 21.0115 8.00794 21.3554 8.17208 21.6681C8.33623 21.9807 8.50428 22.2621 8.67624 22.5122C7.78517 22.2778 6.96444 21.9456 6.21406 21.5156C5.46368 21.0857 4.79147 20.566 4.19742 19.9563C3.90039 19.6592 3.62291 19.3466 3.36497 19.0183C3.10703 18.69 2.87644 18.3461 2.67321 17.9865L2.64976 17.9396ZM18.056 19.9563C17.4463 20.566 16.7702 21.0857 16.0276 21.5156C15.285 21.9456 14.4917 22.2778 13.6475 22.5122H13.5772C13.7647 22.2465 13.9367 21.9612 14.093 21.6563C14.2494 21.3515 14.3822 21.0349 14.4917 20.7066L14.5151 20.6363C14.6715 20.2298 14.8122 19.8038 14.9372 19.3583C15.0623 18.9128 15.1717 18.4399 15.2655 17.9396H19.6036C19.3848 18.3304 19.1464 18.69 18.8884 19.0183C18.6305 19.3466 18.353 19.6592 18.056 19.9563Z" fill="#170006"/>
</g>
<defs>
<clipPath id="clip0_1664_2480">
<rect width="22.91" height="25" fill="white" transform="matrix(1 0 0 -1 0 25.4449)"/>
</clipPath>
</defs>
</svg>
