<svg width="21" height="25" viewBox="0 0 21 25" fill="none" xmlns="http://www.w3.org/2000/svg">
<g clip-path="url(#clip0_1664_2461)">
<path d="M18.1406 24.4297H2.85938L0.890625 17.7969H2.85938C3.03125 17 3.41406 16.25 4.00781 15.5469C4.60156 14.8438 5.32812 14.4922 6.1875 14.4922H8.17969V13.8125C7.47656 13.4375 6.92578 12.9453 6.52734 12.3359C6.12891 11.7266 5.85156 11.0312 5.69531 10.25C5.22656 10.125 4.84375 9.87109 4.54688 9.48828C4.25 9.10547 4.10156 8.67188 4.10156 8.1875C4.10156 7.73438 4.23438 7.37891 4.5 7.12109C4.76562 6.86328 5.10938 6.66406 5.53125 6.52344V5.35156C5.53125 4.66406 5.66406 4.03125 5.92969 3.45312C6.17969 2.85938 6.53125 2.34766 6.98438 1.91797C7.4375 1.48828 7.96875 1.14844 8.57812 0.898438C9.17188 0.664062 9.8125 0.546875 10.5 0.546875C11.1875 0.546875 11.8281 0.664062 12.4219 0.898438C13.0312 1.14844 13.5625 1.48828 14.0156 1.91797C14.4688 2.34766 14.8203 2.85938 15.0703 3.45312C15.3359 4.03125 15.4688 4.66406 15.4688 5.35156V6.17188C15.8906 6.32812 16.2344 6.58984 16.5 6.95703C16.7656 7.32422 16.8984 7.73438 16.8984 8.1875C16.8984 8.6875 16.7461 9.125 16.4414 9.5C16.1367 9.875 15.7578 10.125 15.3047 10.25C15.1484 11.0312 14.8711 11.7266 14.4727 12.3359C14.0742 12.9453 13.5234 13.4375 12.8203 13.8125V14.4922H14.8125C15.6719 14.4922 16.3984 14.8438 16.9922 15.5469C17.5859 16.25 17.9688 17 18.1406 17.7969H20.1094L18.1406 24.4297ZM14.1562 5.1875C14.1562 4.04688 13.7461 3.21094 12.9258 2.67969C12.1055 2.14844 11.2969 1.88281 10.5 1.88281C9.6875 1.88281 8.875 2.19141 8.0625 2.80859C7.25 3.42578 6.84375 4.21875 6.84375 5.1875V6.52344H8.83594C9.28906 6.52344 9.67969 6.32031 10.0078 5.91406C10.3359 5.50781 10.5703 5.09375 10.7109 4.67188L11.3906 2.89062L12.0469 4.67188C12.2031 5.09375 12.4805 5.39844 12.8789 5.58594C13.2773 5.77344 13.7031 5.86719 14.1562 5.86719V5.1875ZM14.1562 9.85156V9.17188H14.8125C15.0156 9.17188 15.1758 9.05859 15.293 8.83203C15.4102 8.60547 15.4688 8.39062 15.4688 8.1875C15.4688 8 15.4102 7.78516 15.293 7.54297C15.1758 7.30078 15.0156 7.17969 14.8125 7.17969H14.1562C13.6406 7.17969 13.1328 7.12109 12.6328 7.00391C12.1328 6.88672 11.7188 6.64062 11.3906 6.26562C11.0625 6.64062 10.6836 7 10.2539 7.34375C9.82422 7.6875 9.35156 7.85938 8.83594 7.85938H6.1875C5.98438 7.85938 5.82422 7.86719 5.70703 7.88281C5.58984 7.89844 5.53125 8 5.53125 8.1875C5.53125 8.39062 5.58984 8.60547 5.70703 8.83203C5.82422 9.05859 5.98438 9.17188 6.1875 9.17188H6.84375V9.85156C7.03125 11.3203 7.51562 12.2344 8.29688 12.5938C9.07812 12.9531 9.48438 13.1406 9.51562 13.1562V14.4922H11.4844V13.1562C11.5469 13.1094 11.9609 12.9219 12.7266 12.5938C13.4922 12.2656 13.9688 11.3516 14.1562 9.85156ZM14.8125 15.8047H6.1875C5.71875 15.8047 5.30469 16.0352 4.94531 16.4961C4.58594 16.957 4.33594 17.3906 4.19531 17.7969H16.8047C16.6641 17.3906 16.4141 16.957 16.0547 16.4961C15.6953 16.0352 15.2812 15.8047 14.8125 15.8047ZM2.85938 19.1328L4.19531 23.1172H16.8047L18.1406 19.1328H2.85938ZM9.51562 20.4453H10.8281V21.7812H9.51562V20.4453Z" fill="#170006"/>
</g>
<defs>
<clipPath id="clip0_1664_2461">
<rect width="21" height="25" fill="white" transform="matrix(1 0 0 -1 0 25)"/>
</clipPath>
</defs>
</svg>
