<svg width="21" height="26" viewBox="0 0 21 26" fill="none" xmlns="http://www.w3.org/2000/svg">
<path d="M19.8082 16.0997C19.8082 15.5684 19.6402 15.1034 19.3042 14.7049C18.9682 14.3064 18.5502 14.0524 18.0501 13.943V11.552C18.0501 11.3644 17.9837 11.2082 17.8508 11.0831C17.718 10.9581 17.5578 10.8956 17.3703 10.8956C17.339 10.8956 17.2999 10.8995 17.2531 10.9073C17.2062 10.9151 17.1671 10.9269 17.1359 10.9425L15.87 11.4113C15.4637 10.9894 15.0183 10.6182 14.5338 10.2978C14.0493 9.97747 13.5336 9.7157 12.9866 9.51254L12.9163 9.4891C13.4633 9.08277 13.9009 8.57096 14.2291 7.95365C14.5573 7.33635 14.7213 6.66826 14.7213 5.94938C14.7057 4.7304 14.2681 3.69896 13.4086 2.85505C12.5491 2.01114 11.5098 1.58919 10.2908 1.58919C9.08748 1.58919 8.05213 2.01114 7.18479 2.85505C6.31744 3.69896 5.87595 4.7304 5.86032 5.94938C5.86032 6.66826 6.02441 7.34026 6.3526 7.96538C6.68079 8.59049 7.11837 9.0984 7.66534 9.4891C7.08711 9.70789 6.55186 9.97747 6.05958 10.2978C5.5673 10.6182 5.118 10.9894 4.71167 11.4113L3.44581 10.9425C3.41455 10.9269 3.37939 10.9151 3.34032 10.9073C3.30125 10.8995 3.25827 10.8956 3.21139 10.8956C3.02386 10.8956 2.86758 10.9581 2.74255 11.0831C2.61753 11.2082 2.55502 11.3644 2.55502 11.552V13.943C2.0393 14.0524 1.61344 14.3064 1.27744 14.7049C0.941438 15.1034 0.773438 15.5684 0.773438 16.0997C0.773438 16.631 0.941438 17.0999 1.27744 17.5062C1.61344 17.9125 2.0393 18.1704 2.55502 18.2798V20.835C2.55502 20.9756 2.59409 21.1006 2.67223 21.21C2.75037 21.3194 2.85195 21.3976 2.97697 21.4444L10.0564 24.1168C10.1346 24.1324 10.2127 24.1403 10.2908 24.1403C10.369 24.1403 10.4471 24.1324 10.5253 24.1168L17.6047 21.4444C17.7297 21.3976 17.8352 21.3194 17.9212 21.21C18.0071 21.1006 18.0501 20.9756 18.0501 20.835V18.2798C18.5502 18.1704 18.9682 17.9125 19.3042 17.5062C19.6402 17.0999 19.8082 16.631 19.8082 16.0997ZM7.19651 5.94938C7.21214 5.10547 7.52079 4.38659 8.12246 3.79272C8.72413 3.19886 9.44693 2.90193 10.2908 2.90193C11.1347 2.90193 11.8575 3.19886 12.4592 3.79272C13.0609 4.38659 13.3695 5.10547 13.3852 5.94938C13.3695 6.79328 13.0609 7.51217 12.4592 8.10603C11.8575 8.69989 11.1347 8.99682 10.2908 8.99682C9.44693 8.99682 8.72413 8.69989 8.12246 8.10603C7.52079 7.51217 7.21214 6.79328 7.19651 5.94938ZM10.2908 10.3564C11.0722 10.3564 11.8224 10.4932 12.5413 10.7667C13.2601 11.0402 13.9087 11.427 14.4869 11.927L10.2908 13.4977L6.09474 11.927C6.65734 11.4426 7.29418 11.0597 8.00525 10.7784C8.71632 10.4971 9.47818 10.3564 10.2908 10.3564ZM2.10962 16.0997C2.10962 15.8653 2.19558 15.6621 2.36748 15.4902C2.53939 15.3183 2.74255 15.2324 2.97697 15.2324H3.42237V16.9905H2.97697C2.74255 16.9905 2.53939 16.9045 2.36748 16.7326C2.19558 16.5607 2.10962 16.3497 2.10962 16.0997ZM3.86776 18.3032C4.11781 18.2407 4.32879 18.1079 4.50069 17.9047C4.6726 17.7016 4.75855 17.4671 4.75855 17.2015V14.9979C4.75855 14.7323 4.6726 14.4978 4.50069 14.2947C4.32879 14.0915 4.11781 13.9665 3.86776 13.9196V12.5131L9.63446 14.6697V22.5228L3.86776 20.3661V18.3032ZM10.9472 22.5228V14.6697L16.7139 12.5131V13.9196C16.4639 13.9665 16.2529 14.0915 16.081 14.2947C15.9091 14.4978 15.8231 14.7323 15.8231 14.9979V17.2015C15.8231 17.4671 15.9091 17.7016 16.081 17.9047C16.2529 18.1079 16.4639 18.2407 16.7139 18.3032V20.3661L10.9472 22.5228ZM17.6047 16.9905H17.1593V15.2324H17.6047C17.8391 15.2324 18.0423 15.3183 18.2142 15.4902C18.3861 15.6621 18.472 15.8653 18.472 16.0997C18.472 16.3497 18.3861 16.5607 18.2142 16.7326C18.0423 16.9045 17.8391 16.9905 17.6047 16.9905Z" fill="#170006"/>
</svg>
