<svg width="20" height="19" viewBox="0 0 20 19" fill="none" xmlns="http://www.w3.org/2000/svg">
<g clip-path="url(#clip0_1664_2471)">
<path fill-rule="evenodd" clip-rule="evenodd" d="M15.1114 2.53989C14.5414 0.939889 13.3314 1.67289 13.6814 1.53189L11.1614 2.53989V1.22592C11.1477 1.0573 11.0752 0.898887 10.9563 0.778536C10.8374 0.658185 10.6798 0.583589 10.5113 0.567904H0.651342C0.562538 0.558506 0.472735 0.569073 0.388525 0.598788C0.304314 0.628502 0.227888 0.676608 0.164648 0.739657C0.101407 0.802705 0.0530163 0.879108 0.023046 0.963228C-0.00692431 1.04735 -0.0176984 1.13709 -0.00857021 1.22592V17.6559C-0.0175384 17.7447 -0.00662948 17.8343 0.0234122 17.9183C0.0534539 18.0023 0.101793 18.0785 0.165014 18.1415C0.228235 18.2044 0.30476 18.2524 0.388891 18.2821C0.473021 18.3117 0.562631 18.3223 0.651342 18.3129H10.5113C10.5992 18.3207 10.6878 18.309 10.7707 18.2787C10.8536 18.2483 10.9287 18.2 10.9908 18.1372C11.0529 18.0745 11.1004 17.9988 11.1299 17.9156C11.1593 17.8324 11.1701 17.7437 11.1614 17.6559V5.8259C11.1614 5.8259 14.3014 14.7259 14.9814 16.6379C15.128 16.8729 15.3599 17.0418 15.6285 17.1092C15.8971 17.1765 16.1813 17.137 16.4214 16.9989C16.4214 16.9989 18.6514 16.1089 19.4314 15.7929C19.5459 15.7203 19.6446 15.625 19.7212 15.513C19.7978 15.4011 19.8507 15.2746 19.8769 15.1415C19.9031 15.0084 19.902 14.8713 19.8735 14.7387C19.8451 14.606 19.7899 14.4806 19.7114 14.3699L15.1114 2.53989ZM11.3214 3.80191L13.9114 2.73294L14.9214 5.42789L12.5714 6.44394L11.3214 3.80191ZM9.85141 5.8259H6.56138V1.88291H9.85141V5.8259ZM5.25132 1.88291V5.8259H1.30137V1.88291H5.25132ZM1.30137 7.1409H5.25132V16.9989H1.30137V7.1409ZM6.56138 7.1409H9.85141V16.9989H6.56138V7.1409ZM13.0213 7.5289L15.4714 6.59592L18.5313 14.9429L16.0814 15.9369L13.0213 7.5289Z" fill="#170006"/>
</g>
<defs>
<clipPath id="clip0_1664_2471">
<rect width="19.84" height="17.75" fill="white" transform="translate(0 0.564941)"/>
</clipPath>
</defs>
</svg>
