<svg width="24" height="26" viewBox="0 0 24 26" fill="none" xmlns="http://www.w3.org/2000/svg">
<path d="M12.4453 23.9219C10.8516 23.9219 9.36719 23.625 7.99219 23.0312C6.60156 22.4531 5.39453 21.6484 4.37109 20.6172C3.34766 19.5859 2.54688 18.3828 1.96875 17.0078C1.375 15.6328 1.07812 14.1484 1.07812 12.5547C1.07812 10.9609 1.375 9.47656 1.96875 8.10156C2.54688 6.71094 3.34766 5.50391 4.37109 4.48047C5.39453 3.45703 6.60156 2.65625 7.99219 2.07812C9.36719 1.48438 10.8516 1.1875 12.4453 1.1875C14.0391 1.1875 15.5234 1.48438 16.8984 2.07812C18.2734 2.65625 19.4727 3.45703 20.4961 4.48047C21.5195 5.50391 22.3281 6.71094 22.9219 8.10156C23.5156 9.47656 23.8125 10.9609 23.8125 12.5547C23.8125 14.1484 23.5156 15.6328 22.9219 17.0078C22.3281 18.3828 21.5195 19.5859 20.4961 20.6172C19.4727 21.6484 18.2734 22.4531 16.8984 23.0312C15.5234 23.625 14.0391 23.9219 12.4453 23.9219ZM12.4453 2.96875C11.1797 2.96875 9.96875 3.22656 8.8125 3.74219C7.65625 4.27344 6.63672 4.98047 5.75391 5.86328C4.87109 6.74609 4.16406 7.76562 3.63281 8.92188C3.11719 10.0781 2.85938 11.2891 2.85938 12.5547C2.85938 13.8203 3.11719 15.0312 3.63281 16.1875C4.16406 17.3438 4.87109 18.3633 5.75391 19.2461C6.63672 20.1289 7.65625 20.8359 8.8125 21.3672C9.96875 21.8828 11.1797 22.1406 12.4453 22.1406C13.7109 22.1406 14.9219 21.8828 16.0781 21.3672C17.2344 20.8359 18.2539 20.1289 19.1367 19.2461C20.0195 18.3633 20.7266 17.3438 21.2578 16.1875C21.7734 15.0312 22.0312 13.8203 22.0312 12.5547C22.0312 11.2891 21.7734 10.0781 21.2578 8.92188C20.7266 7.76562 20.0195 6.74609 19.1367 5.86328C18.2539 4.98047 17.2344 4.27344 16.0781 3.74219C14.9219 3.22656 13.7109 2.96875 12.4453 2.96875ZM16.8047 15.3906H12C11.7969 15.3906 11.5469 15.2422 11.25 14.9453C10.9531 14.6484 10.8047 14.3984 10.8047 14.1953V7C10.8047 6.79688 10.8789 6.54688 11.0273 6.25C11.1758 5.95312 11.4141 5.80469 11.7422 5.80469C11.9922 5.80469 12.1953 5.86328 12.3516 5.98047C12.5078 6.09766 12.5938 6.25 12.6094 6.4375V13.5156H17.3906C17.5938 13.5156 17.7461 13.6055 17.8477 13.7852C17.9492 13.9648 18 14.1484 18 14.3359C18 14.6172 17.8477 14.8633 17.543 15.0742C17.2383 15.2852 16.9922 15.3906 16.8047 15.3906Z" fill="#170006"/>
</svg>
