<svg width="18" height="26" viewBox="0 0 18 26" fill="none" xmlns="http://www.w3.org/2000/svg">
<path d="M9.46875 24.6953C8.35938 24.6953 7.30469 24.4766 6.30469 24.0391C5.32031 23.6172 4.46094 23.0391 3.72656 22.3047C2.99219 21.5703 2.41406 20.7109 1.99219 19.7266C1.57031 18.7422 1.35938 17.6875 1.35938 16.5625C1.35938 15.5156 1.54688 14.5234 1.92188 13.5859C2.29688 12.6484 2.8125 11.8203 3.46875 11.1016V7.375C3.46875 6.54688 3.625 5.76562 3.9375 5.03125C4.25 4.3125 4.67969 3.67969 5.22656 3.13281C5.77344 2.58594 6.41406 2.15625 7.14844 1.84375C7.86719 1.53125 8.64062 1.375 9.46875 1.375C10.2969 1.375 11.0781 1.53125 11.8125 1.84375C12.5469 2.15625 13.1836 2.58594 13.7227 3.13281C14.2617 3.67969 14.6875 4.3125 15 5.03125C15.3125 5.76562 15.4766 6.54688 15.4922 7.375V11.1016C16.1484 11.8203 16.6641 12.6445 17.0391 13.5742C17.4141 14.5039 17.6016 15.5 17.6016 16.5625C17.6016 17.6875 17.3906 18.7422 16.9688 19.7266C16.5312 20.7109 15.9453 21.5703 15.2109 22.3047C14.4766 23.0391 13.6172 23.6172 12.6328 24.0391C11.6484 24.4766 10.5938 24.6953 9.46875 24.6953ZM13.3594 7.375C13.3594 6.29688 12.9805 5.37891 12.2227 4.62109C11.4648 3.86328 10.5469 3.48438 9.46875 3.48438C8.40625 3.48438 7.49609 3.86328 6.73828 4.62109C5.98047 5.37891 5.59375 6.29688 5.57812 7.375V9.4375C6.14062 9.125 6.75 8.87891 7.40625 8.69922C8.0625 8.51953 8.75 8.42969 9.46875 8.42969C10.1719 8.42969 10.8516 8.51562 11.5078 8.6875C12.1641 8.85938 12.7812 9.10938 13.3594 9.4375V7.375ZM9.46875 10.5625C8.64062 10.5625 7.86719 10.7188 7.14844 11.0312C6.41406 11.3438 5.77344 11.7734 5.22656 12.3203C4.67969 12.8672 4.25 13.5 3.9375 14.2188C3.625 14.9531 3.46875 15.7344 3.46875 16.5625C3.46875 17.3906 3.625 18.1719 3.9375 18.9062C4.25 19.625 4.67969 20.2578 5.22656 20.8047C5.77344 21.3516 6.41406 21.7812 7.14844 22.0938C7.86719 22.4062 8.64062 22.5625 9.46875 22.5625C10.2969 22.5625 11.0781 22.4062 11.8125 22.0938C12.5469 21.7812 13.1836 21.3516 13.7227 20.8047C14.2617 20.2578 14.6875 19.625 15 18.9062C15.3125 18.1719 15.4766 17.3906 15.4922 16.5625C15.4766 15.7344 15.3125 14.9531 15 14.2188C14.6875 13.5 14.2617 12.8672 13.7227 12.3203C13.1836 11.7734 12.5469 11.3438 11.8125 11.0312C11.0781 10.7188 10.2969 10.5625 9.46875 10.5625ZM10.5234 16.9141V18.3203C10.5234 18.3359 10.5273 18.3477 10.5352 18.3555C10.543 18.3633 10.5469 18.3672 10.5469 18.3672C10.5469 18.6641 10.4414 18.9141 10.2305 19.1172C10.0195 19.3203 9.76562 19.4219 9.46875 19.4219C9.1875 19.4219 8.94141 19.3203 8.73047 19.1172C8.51953 18.9141 8.41406 18.6641 8.41406 18.3672C8.41406 18.3672 8.41406 18.3633 8.41406 18.3555C8.41406 18.3477 8.41406 18.3359 8.41406 18.3203V16.9141C8.19531 16.7578 8.02344 16.5547 7.89844 16.3047C7.77344 16.0547 7.71094 15.7891 7.71094 15.5078C7.71094 15.0234 7.88281 14.6055 8.22656 14.2539C8.57031 13.9023 8.98438 13.7266 9.46875 13.7266C9.95312 13.7422 10.3672 13.9219 10.7109 14.2656C11.0547 14.6094 11.2266 15.0234 11.2266 15.5078C11.2266 15.7891 11.1641 16.0547 11.0391 16.3047C10.9141 16.5547 10.75 16.7578 10.5469 16.9141H10.5234Z" fill="#170006"/>
</svg>
