<svg width="49" height="49" viewBox="0 0 49 49" fill="none" xmlns="http://www.w3.org/2000/svg">
<g clip-path="url(#clip0_1796_1088)">
<path d="M30.0314 9.08387C30.0314 9.08387 34.7266 2.99007 33.3765 1.24187C32.9164 0.646113 32.524 1.45519 31.5724 1.45519C30.4543 1.45519 30.4543 0.723633 29.3361 0.723633C28.2181 0.723633 28.2181 1.45519 27.1001 1.45519C25.9822 1.45519 25.9822 0.723633 24.8643 0.723633C23.7464 0.723633 23.7464 1.45519 22.6284 1.45519C21.6756 1.45519 21.2849 0.635586 20.8217 1.23162C19.4709 2.97017 24.0975 9.08378 24.0975 9.08378C3.66441 22.5165 10.2527 40.7844 22.3168 40.7844H31.8845C43.9849 40.7844 50.5324 22.5611 30.0314 9.08387Z" fill="#FDB714"/>
<path d="M30.0311 9.08387C30.0311 9.08387 34.7263 2.99007 33.3762 1.24187C32.9161 0.646113 32.5237 1.45519 31.5721 1.45519C30.454 1.45519 30.454 0.723633 29.3358 0.723633C28.2178 0.723633 28.2178 1.45519 27.0998 1.45519C27.0448 1.45519 26.9944 1.45212 26.9446 1.44868C26.4953 3.37423 24.471 6.37414 23.3126 7.98032C23.7688 8.64977 24.0972 9.08378 24.0972 9.08378C23.8246 9.26294 23.5579 9.44314 23.2949 9.62402C42.8174 23.0427 36.2851 40.7843 24.3456 40.7843H31.8842C43.9846 40.7844 50.5321 22.5611 30.0311 9.08387Z" fill="#FDB714"/>
<path d="M30.9038 11.2512C28.1756 11.9402 25.4802 11.9403 22.7515 11.2512C21.8018 11.0114 21.2635 9.94344 21.6052 8.97273C21.609 8.96191 21.6129 8.951 21.6167 8.94019C21.9032 8.12633 22.7159 7.66963 23.5125 7.86956C25.7465 8.43047 27.9083 8.43057 30.143 7.86956C30.9395 7.66954 31.7521 8.12633 32.0388 8.94019C32.0426 8.951 32.0464 8.96191 32.0503 8.97273C32.3919 9.94354 31.8536 11.0114 30.9038 11.2512Z" fill="#FFE07D"/>
<path d="M5.25195 43.9185L15.6421 47.7859C16.5245 48.1144 17.4585 48.2825 18.4 48.2825H29.1079C30.6064 48.2825 32.074 47.8566 33.3398 47.0546L46.747 38.559C47.6316 37.7735 47.7955 36.4535 47.13 35.4755C46.4019 34.4055 45.1974 34.2194 43.872 34.8462L30.8188 40.5936L30.8342 38.4758C30.6613 36.7376 29.3229 35.3425 27.5933 35.0977L19.6443 34.1825C17.8106 33.923 16.8942 33.3085 15.2957 32.3734C13.1133 31.0967 10.6304 30.4238 8.10199 30.4238H5.25195V43.9185Z" fill="#FFDDCE"/>
<path opacity="0.2" d="M5.25195 43.9185L15.6421 47.7859C16.5245 48.1144 17.4585 48.2825 18.4 48.2825H29.1079C30.6064 48.2825 32.074 47.8566 33.3398 47.0546L46.747 38.559C47.6316 37.7735 47.7955 36.4535 47.13 35.4755C46.4019 34.4055 45.1974 34.2194 43.872 34.8462L30.8188 40.5936L30.8342 38.4758C30.6613 36.7376 29.3229 35.3425 27.5933 35.0977L19.6443 34.1825C17.8106 33.923 16.8942 33.3085 15.2957 32.3734C13.1133 31.0967 10.6304 30.4238 8.10199 30.4238H5.25195V43.9185Z" fill="#FDB714"/>
<path d="M29.8598 36.2942L29.8594 36.3453L29.8931 36.3305C29.8822 36.3181 29.8709 36.3062 29.8598 36.2942Z" fill="#F5DBCC"/>
<path d="M7.48731 45.9882C7.48731 46.742 6.87615 47.3532 6.12229 47.3532H2.8279C2.07405 47.3532 1.46289 46.742 1.46289 45.9882V29.2742C1.46289 28.5203 2.07405 27.9092 2.8279 27.9092H6.12229C6.87615 27.9092 7.48731 28.5203 7.48731 29.2742V45.9882Z" fill="#781921"/>
<path d="M47.7239 35.0718C46.8098 33.7286 45.2593 33.4006 43.575 34.1932L42.6822 34.5863C44.0898 31.586 44.2645 28.2414 43.5638 25.0823C42.759 21.4539 40.8152 17.9389 37.7864 14.6349C37.5186 14.3427 37.0647 14.323 36.7724 14.5909C36.4802 14.8587 36.4605 15.3126 36.7284 15.6049C39.5847 18.7206 41.413 22.0138 42.1626 25.393C42.952 28.9525 42.4928 32.6233 40.4781 35.5567L31.545 39.49L31.5524 38.4811C31.5525 38.4556 31.5514 38.4302 31.5488 38.4048C31.3426 36.3312 29.7575 34.6791 27.6943 34.3872C27.6882 34.3862 27.682 34.3855 27.6758 34.3848L19.7362 33.4706C16.6832 33.036 15.8969 31.2065 11.7621 30.1632C11.4764 27.7391 11.8572 25.1581 12.901 22.5705C14.4729 18.6737 17.5481 14.8877 21.8113 11.5923C23.4003 12.7189 30.4893 12.8592 32.0757 11.4058C32.8884 12.023 33.664 12.659 34.3866 13.3028C34.5234 13.4248 34.6939 13.4847 34.8638 13.4847C35.0613 13.4847 35.2581 13.4036 35.3998 13.2445C35.6635 12.9485 35.6373 12.4949 35.3413 12.2312C34.5493 11.5256 33.6973 10.8294 32.8038 10.1565C33.0132 9.26857 32.7201 8.22933 31.9468 7.6107C34.1939 4.20252 34.8474 1.97178 33.9446 0.803052C33.3246 0.000198238 32.5532 0.376981 32.2238 0.537954C31.6655 0.810516 31.361 0.824872 30.8473 0.488763C29.8672 -0.152544 28.8371 -0.173216 27.8254 0.488763C27.3051 0.829179 26.8954 0.829179 26.3754 0.488763C25.3952 -0.152544 24.3654 -0.173216 23.3536 0.488763C22.8339 0.828891 22.5283 0.807837 21.9788 0.5347C21.6498 0.371143 20.8793 -0.0118604 20.2553 0.791089C19.3728 1.92689 19.9632 4.0873 22.0586 7.37958C21.9303 7.44896 21.808 7.53041 21.6938 7.62343C20.8604 6.74334 19.495 5.82546 17.5205 6.04596C15.8827 6.22923 14.675 5.68803 13.9502 5.20185C13.6209 4.98135 13.1752 5.06921 12.9545 5.39824C12.7338 5.72746 12.8217 6.17324 13.1508 6.39393C14.0749 7.01342 15.6105 7.70305 17.6797 7.47231C19.2052 7.3012 20.2403 8.08079 20.8847 8.87417C20.8759 8.9048 20.8678 8.93561 20.8602 8.96643C20.3106 8.97504 19.4892 9.02634 18.5846 9.21449C16.4091 9.66707 14.7942 10.701 13.9144 12.2046C13.7143 12.5467 13.8293 12.9863 14.1713 13.1866C14.5135 13.3867 14.953 13.2715 15.1531 12.9295C16.4618 10.693 19.6561 10.4195 20.9248 10.4024C20.9303 10.4182 20.9367 10.4338 20.9424 10.4494C16.4149 13.9419 13.2628 17.8368 11.57 22.0334C10.5001 24.686 10.0727 27.3434 10.2896 29.8689C9.60141 29.7671 8.90526 29.7125 8.20577 29.7077V29.2737C8.20577 28.1253 7.27152 27.1912 6.12317 27.1912H2.82869C1.68035 27.1912 0.746094 28.1254 0.746094 29.2737V45.9876C0.746094 47.1361 1.68035 48.0702 2.82869 48.0702H6.12308C7.27142 48.0702 8.20567 47.136 8.20567 45.9876V45.7832L15.3921 48.458C16.3579 48.8174 17.37 48.9997 18.4004 48.9997H29.1083C30.7454 48.9997 32.3416 48.5365 33.7243 47.6603C48.0089 38.6049 47.1414 39.1683 47.2239 39.0952C48.3746 38.0739 48.5895 36.3441 47.7239 35.0718ZM30.7289 10.5554C28.1046 11.218 25.5529 11.218 22.928 10.5554C21.8016 10.2707 22.128 8.26186 23.3384 8.56543C25.6868 9.15497 27.9699 9.15497 30.3185 8.56543C31.5079 8.26684 31.8733 10.2662 30.7289 10.5554ZM21.3233 1.81186C21.329 1.81463 21.3346 1.8175 21.34 1.82018C22.3113 2.30291 23.1623 2.32913 24.1394 1.68993C25.3621 0.889567 25.4948 2.17285 27.1002 2.17285C27.8731 2.17285 28.2997 1.89378 28.6111 1.68993C29.1315 1.34942 29.5413 1.34961 30.0615 1.68993C31.0428 2.3321 31.8733 2.30042 32.8729 1.81837C33.0205 2.35067 32.6863 3.93752 30.5583 7.10587C29.5015 7.08787 27.968 8.12577 23.6267 7.15965C21.5032 3.95034 21.1749 2.34808 21.3233 1.81186ZM46.31 37.9867L32.9561 46.4485C31.8036 47.1788 30.473 47.5649 29.1084 47.5649H18.4005C17.5416 47.5649 16.6979 47.413 15.8928 47.1133L8.20567 44.2521V36.5236C8.20567 36.1272 7.8844 35.8059 7.48809 35.8059C7.09179 35.8059 6.77051 36.1272 6.77051 36.5236V45.988C6.77051 46.345 6.48005 46.6354 6.12317 46.6354H2.82869C2.47172 46.6354 2.18135 46.3449 2.18135 45.988V29.2741C2.18135 28.9171 2.47172 28.6268 2.82869 28.6268H6.12308C6.48005 28.6268 6.77041 28.9172 6.77041 29.2741V33.1686C6.77041 33.565 7.09169 33.8863 7.488 33.8863C7.8843 33.8863 8.20558 33.565 8.20558 33.1686V31.1433C14.1421 31.1888 15.4769 34.3178 19.5441 34.8931C19.5502 34.894 19.5564 34.8948 19.5625 34.8955L27.5017 35.8095C28.8919 36.0102 29.9618 37.1172 30.1166 38.5109L30.1067 39.876H22.7026C22.3063 39.876 21.9849 40.1973 21.9849 40.5937C21.9849 40.9901 22.3062 41.3114 22.7026 41.3114H30.8191C30.9097 41.3114 31.0144 41.2913 31.1055 41.2516C31.1202 41.2451 44.1463 35.5099 44.1615 35.5032C45.1005 35.0859 45.9565 35.0263 46.5371 35.8794C46.9884 36.5423 46.8885 37.4386 46.31 37.9867Z" fill="#170006"/>
<path d="M27.0173 32.5603C27.4136 32.5603 27.7349 32.2391 27.7349 31.8427V30.6531C29.7496 30.3261 30.9251 28.6955 31.1808 27.1742C31.5003 25.2738 30.5049 23.6211 28.645 22.9637C28.3163 22.8475 28.0139 22.7364 27.7349 22.6291V18.0534C28.5838 18.1941 29.0936 18.6335 29.1307 18.6663C29.4222 18.9314 29.8733 18.9118 30.1408 18.6218C30.4096 18.3305 30.3912 17.8765 30.0999 17.6078C30.0492 17.5611 29.1703 16.7697 27.7349 16.6042V15.5836C27.7349 15.1872 27.4136 14.866 27.0172 14.866C26.6209 14.866 26.2996 15.1872 26.2996 15.5836V16.6622C26.1266 16.6953 25.9493 16.7374 25.7672 16.7923C24.5499 17.1589 23.6399 18.2028 23.3923 19.5163C23.1677 20.7083 23.5456 21.8546 24.3785 22.5079C24.8568 22.8829 25.4587 23.2263 26.2996 23.5934V29.2687C25.4697 29.2336 24.9588 29.0778 24.0676 28.4948C23.736 28.2779 23.2912 28.3706 23.0742 28.7024C22.8572 29.034 22.9502 29.4789 23.2819 29.6958C24.4534 30.4622 25.2365 30.6622 26.2996 30.7035V31.8427C26.2996 32.2391 26.6209 32.5603 27.0173 32.5603ZM25.2644 21.3786C24.8547 21.0572 24.6777 20.4455 24.8028 19.7821C24.9188 19.167 25.3417 18.4195 26.1812 18.1667C26.2211 18.1546 26.2604 18.1443 26.2996 18.1338V22.0102C25.8699 21.7956 25.5329 21.5892 25.2644 21.3786ZM28.1667 24.3169C29.9525 24.9481 29.8419 26.4815 29.7654 26.9363C29.6071 27.8781 28.9157 28.8836 27.7349 29.1862V24.1614C27.8746 24.2125 28.0173 24.2641 28.1667 24.3169Z" fill="#170006"/>
</g>
<defs>
<clipPath id="clip0_1796_1088">
<rect width="49" height="49" fill="white"/>
</clipPath>
</defs>
</svg>
