<svg width="59" height="59" viewBox="0 0 59 59" fill="none" xmlns="http://www.w3.org/2000/svg">
<path d="M10.5615 48.8916H48.4297V53.1003H10.5615V48.8916Z" fill="#FDB714"/>
<path d="M48.4395 54.0835H10.5615C10.0206 54.0835 9.57812 53.641 9.57812 53.1002V48.8915C9.57812 48.3507 10.0206 47.9082 10.5615 47.9082H48.4296C48.9705 47.9082 49.413 48.3507 49.413 48.8915V53.1002C49.4228 53.641 48.9803 54.0835 48.4395 54.0835ZM11.5448 52.1169H47.4463V49.8749H11.5448V52.1169Z" fill="black"/>
<path d="M13.8652 45.4104H20.4929V48.8816H13.8652V45.4104Z" fill="#781921"/>
<path d="M20.5027 49.8748H13.8652C13.3243 49.8748 12.8818 49.4323 12.8818 48.8915V45.4203C12.8818 44.8795 13.3243 44.437 13.8652 44.437H20.4928C21.0337 44.437 21.4762 44.8795 21.4762 45.4203V48.8915C21.486 49.4323 21.0435 49.8748 20.5027 49.8748ZM14.8485 47.9082H19.5095V46.4037H14.8485V47.9082Z" fill="black"/>
<path d="M19.3035 46.3937H15.0654C14.5245 46.3937 14.082 45.9512 14.082 45.4103V32.1157C14.082 31.5748 14.5245 31.1323 15.0654 31.1323H19.3035C19.8444 31.1323 20.2869 31.5748 20.2869 32.1157V45.4103C20.2869 45.9512 19.8444 46.3937 19.3035 46.3937ZM16.0487 44.427H18.3202V33.099H16.0487V44.427Z" fill="black"/>
<path d="M26.1865 45.4104H32.8142V48.8816H26.1865V45.4104Z" fill="#781921"/>
<path d="M32.8141 49.8748H26.1865C25.6456 49.8748 25.2031 49.4323 25.2031 48.8915V45.4203C25.2031 44.8795 25.6456 44.437 26.1865 44.437H32.8141C33.355 44.437 33.7975 44.8795 33.7975 45.4203V48.8915C33.7975 49.4323 33.355 49.8748 32.8141 49.8748ZM27.1698 47.9082H31.8308V46.4037H27.1698V47.9082Z" fill="black"/>
<path d="M31.6248 46.3937H27.3867C26.8458 46.3937 26.4033 45.9512 26.4033 45.4103V32.1157C26.4033 31.5748 26.8458 31.1323 27.3867 31.1323H31.6248C32.1657 31.1323 32.6082 31.5748 32.6082 32.1157V45.4103C32.6082 45.9512 32.1657 46.3937 31.6248 46.3937ZM28.3602 44.427H30.6317V33.099H28.3602V44.427Z" fill="black"/>
<path d="M38.498 45.4104H45.1257V48.8816H38.498V45.4104Z" fill="#781921"/>
<path d="M45.1354 49.8748H38.5077C37.9669 49.8748 37.5244 49.4323 37.5244 48.8915V45.4203C37.5244 44.8795 37.9669 44.437 38.5077 44.437H45.1354C45.6762 44.437 46.1187 44.8795 46.1187 45.4203V48.8915C46.1187 49.4323 45.6762 49.8748 45.1354 49.8748ZM39.4812 47.9082H44.1422V46.4037H39.4812V47.9082Z" fill="black"/>
<path d="M11.6533 28.6446H47.3483V24.9866L29.5008 15.5466L11.6533 24.9866V28.6446Z" fill="#FDB714"/>
<path d="M47.3483 29.6279H11.6533C11.1124 29.6279 10.6699 29.1854 10.6699 28.6446V24.9866C10.6699 24.6227 10.8764 24.2884 11.1911 24.1212L29.0386 14.6812C29.3238 14.5239 29.6679 14.5239 29.9629 14.6812L47.8104 24.1212C48.1349 24.2884 48.3316 24.6227 48.3316 24.9866V28.6446C48.3316 29.1854 47.8891 29.6279 47.3483 29.6279ZM12.6366 27.6612H46.3551V25.5766L29.5008 16.6676L12.6366 25.5864V27.6612Z" fill="black"/>
<path d="M13.8652 28.6445H20.4929V32.1157H13.8652V28.6445Z" fill="#781921"/>
<path d="M20.5027 33.099H13.8652C13.3243 33.099 12.8818 32.6565 12.8818 32.1156V28.6445C12.8818 28.1036 13.3243 27.6611 13.8652 27.6611H20.4928C21.0337 27.6611 21.4762 28.1036 21.4762 28.6445V32.1156C21.486 32.6565 21.0435 33.099 20.5027 33.099ZM14.8485 31.1323H19.5095V29.6278H14.8485V31.1323Z" fill="black"/>
<path d="M26.1865 28.6445H32.8142V32.1157H26.1865V28.6445Z" fill="#781921"/>
<path d="M32.8141 33.099H26.1865C25.6456 33.099 25.2031 32.6565 25.2031 32.1156V28.6445C25.2031 28.1036 25.6456 27.6611 26.1865 27.6611H32.8141C33.355 27.6611 33.7975 28.1036 33.7975 28.6445V32.1156C33.7975 32.6565 33.355 33.099 32.8141 33.099ZM27.1698 31.1323H31.8308V29.6278H27.1698V31.1323Z" fill="black"/>
<path d="M38.498 28.6445H45.1257V32.1157H38.498V28.6445Z" fill="#781921"/>
<path d="M45.1354 33.099H38.5077C37.9669 33.099 37.5244 32.6565 37.5244 32.1156V28.6445C37.5244 28.1036 37.9669 27.6611 38.5077 27.6611H45.1354C45.6762 27.6611 46.1187 28.1036 46.1187 28.6445V32.1156C46.1187 32.6565 45.6762 33.099 45.1354 33.099ZM39.4812 31.1323H44.1422V29.6278H39.4812V31.1323Z" fill="black"/>
<path d="M43.9354 46.3937H39.6874C39.1466 46.3937 38.7041 45.9512 38.7041 45.4103V32.1157C38.7041 31.5748 39.1466 31.1323 39.6874 31.1323H43.9354C44.4763 31.1323 44.9188 31.5748 44.9188 32.1157V45.4103C44.9188 45.9512 44.4861 46.3937 43.9354 46.3937ZM40.6806 44.427H42.9619V33.099H40.6806V44.427Z" fill="black"/>
<path d="M29.5009 16.5299C28.9601 16.5299 28.5176 16.0874 28.5176 15.5466V5.90008C28.5176 5.35925 28.9601 4.91675 29.5009 4.91675C30.0417 4.91675 30.4842 5.35925 30.4842 5.90008V15.5466C30.4842 16.0972 30.0417 16.5299 29.5009 16.5299Z" fill="black"/>
<path d="M29.501 5.90015H37.23V11.9673H29.501V5.90015Z" fill="#FDB714"/>
<path d="M37.2299 12.9506H29.5009C28.9601 12.9506 28.5176 12.5081 28.5176 11.9672V5.90008C28.5176 5.35925 28.9601 4.91675 29.5009 4.91675H37.2299C37.7707 4.91675 38.2132 5.35925 38.2132 5.90008V11.9672C38.2132 12.5179 37.7707 12.9506 37.2299 12.9506ZM30.4842 10.9839H36.2466V6.88341H30.4842V10.9839Z" fill="black"/>
</svg>
