<svg width="24" height="24" viewBox="0 0 24 24" fill="none" xmlns="http://www.w3.org/2000/svg">
<path d="M19.0892 8.28578C20.4206 8.28578 21.4999 7.20647 21.4999 5.87507C21.4999 4.54367 20.4206 3.46436 19.0892 3.46436C17.7578 3.46436 16.6785 4.54367 16.6785 5.87507C16.6785 7.20647 17.7578 8.28578 19.0892 8.28578Z" fill="#0B3948"/>
<path d="M19.0892 8.28578C20.4206 8.28578 21.4999 7.20647 21.4999 5.87507C21.4999 4.54367 20.4206 3.46436 19.0892 3.46436C17.7578 3.46436 16.6785 4.54367 16.6785 5.87507C16.6785 7.20647 17.7578 8.28578 19.0892 8.28578Z" fill="#781921"/>
<path d="M20.2655 9.54879C19.5905 9.76093 18.848 9.7995 18.0766 9.60665C16.7845 9.26915 15.7334 8.23736 15.3766 6.94522C15.203 6.31843 15.1934 5.70129 15.2995 5.142C15.4248 4.52486 14.9909 3.94629 14.3738 3.94629H7.03554C4.14268 3.94629 2.21411 5.39272 2.21411 8.76772V15.5177C2.21411 18.8927 4.14268 20.3391 7.03554 20.3391H16.6784C19.5713 20.3391 21.4998 18.8927 21.4998 15.5177V10.4649C21.4998 9.82843 20.8827 9.34629 20.2655 9.54879ZM15.2513 11.3231L14.1134 12.2295C13.477 12.7406 12.667 12.9913 11.857 12.9913C11.047 12.9913 10.2273 12.7406 9.60054 12.2295L6.58233 9.81879C6.27375 9.56807 6.22554 9.10522 6.46661 8.79665C6.71733 8.48807 7.17054 8.43022 7.47911 8.68093L10.4973 11.0916C11.2302 11.6799 12.4741 11.6799 13.207 11.0916L14.3448 10.1852C14.6534 9.9345 15.1163 9.98272 15.3573 10.3009C15.608 10.6095 15.5598 11.0724 15.2513 11.3231Z" fill="#781921"/>
</svg>
