<svg width="18" height="18" viewBox="0 0 18 18" fill="none" xmlns="http://www.w3.org/2000/svg">
<path d="M16.5 7.875V11.625C16.5 14.25 15 15.375 12.75 15.375H5.25C3 15.375 1.5 14.25 1.5 11.625V6.375C1.5 3.75 3 2.625 5.25 2.625H10.5" stroke="#9A9A95" stroke-width="2" stroke-miterlimit="10" stroke-linecap="round" stroke-linejoin="round"/>
<path d="M5.25 6.75L7.5975 8.625C8.37 9.24 9.6375 9.24 10.41 8.625L11.295 7.92" stroke="#9A9A95" stroke-width="2" stroke-miterlimit="10" stroke-linecap="round" stroke-linejoin="round"/>
<path d="M14.625 6C15.6605 6 16.5 5.16053 16.5 4.125C16.5 3.08947 15.6605 2.25 14.625 2.25C13.5895 2.25 12.75 3.08947 12.75 4.125C12.75 5.16053 13.5895 6 14.625 6Z" stroke="#9A9A95" stroke-width="2" stroke-miterlimit="10" stroke-linecap="round" stroke-linejoin="round"/>
</svg>
