<svg width="28" height="28" viewBox="0 0 28 28" fill="none" xmlns="http://www.w3.org/2000/svg">
<path opacity="0.4" d="M21.4433 14.98V20.7316C21.4433 22.2133 20.2883 23.8 18.9 24.2666L15.1783 25.5033C14.525 25.725 13.4633 25.725 12.8216 25.5033L9.09997 24.2666C7.69997 23.8 6.55664 22.2133 6.55664 20.7316L6.56831 14.98L11.725 18.34C12.985 19.1683 15.0616 19.1683 16.3216 18.34L21.4433 14.98Z" fill="#781921"/>
<path d="M23.3098 7.53669L16.3214 2.95169C15.0614 2.12336 12.9848 2.12336 11.7248 2.95169L4.70145 7.53669C2.44978 8.99503 2.44978 12.2967 4.70145 13.7667L6.56811 14.98L11.7248 18.34C12.9848 19.1684 15.0614 19.1684 16.3214 18.34L21.4431 14.98L23.0414 13.93V17.5C23.0414 17.9784 23.4381 18.375 23.9164 18.375C24.3948 18.375 24.7914 17.9784 24.7914 17.5V11.76C25.2581 10.255 24.7798 8.50503 23.3098 7.53669Z" fill="#781921"/>
</svg>
