<svg width="28" height="28" viewBox="0 0 28 28" fill="none" xmlns="http://www.w3.org/2000/svg">
<path opacity="0.4" d="M25.6663 9.33337V18.8884C25.6663 23.135 23.1347 25.6667 18.888 25.6667H9.11134C4.86467 25.6667 2.33301 23.135 2.33301 18.8884V9.34504L25.6663 9.33337Z" fill="#781921"/>
<path d="M10.5004 20.7083C10.3721 20.7083 10.2321 20.6733 10.1154 20.615C9.21711 20.16 8.44711 19.4833 7.88711 18.6433C7.42044 17.9433 7.42044 17.045 7.88711 16.345C8.44711 15.505 9.21711 14.8283 10.1154 14.385C10.5471 14.1633 11.0721 14.35 11.2938 14.7816C11.5154 15.2133 11.3404 15.7383 10.8971 15.96C10.2671 16.275 9.73044 16.7533 9.34544 17.3366C9.27544 17.4416 9.27544 17.5816 9.34544 17.6983C9.73044 18.2816 10.2671 18.76 10.8971 19.075C11.3288 19.2966 11.5038 19.8216 11.2938 20.2533C11.1304 20.5333 10.8154 20.7083 10.5004 20.7083Z" fill="#781921"/>
<path d="M17.7448 20.7083C17.4181 20.7083 17.1148 20.5333 16.9631 20.23C16.7414 19.7983 16.9164 19.2733 17.3598 19.0517C17.9898 18.7367 18.5264 18.2583 18.9114 17.675C18.9814 17.57 18.9814 17.43 18.9114 17.3133C18.5264 16.73 17.9898 16.2517 17.3598 15.9367C16.9281 15.715 16.7531 15.19 16.9631 14.7583C17.1848 14.3267 17.7098 14.1517 18.1414 14.3617C19.0398 14.8167 19.8098 15.4933 20.3698 16.3333C20.8364 17.0333 20.8364 17.9317 20.3698 18.6317C19.8098 19.4717 19.0398 20.1483 18.1414 20.5917C18.0014 20.6733 17.8731 20.7083 17.7448 20.7083Z" fill="#781921"/>
<path d="M25.6663 9.11171V9.33337L2.33301 9.34504V9.11171C2.33301 4.86504 4.86467 2.33337 9.11134 2.33337H18.888C23.1347 2.33337 25.6663 4.86504 25.6663 9.11171Z" fill="#781921"/>
</svg>
