<svg width="28" height="28" viewBox="0 0 28 28" fill="none" xmlns="http://www.w3.org/2000/svg">
<path opacity="0.4" d="M20.9415 8.99503L20.7782 8.9017L19.1565 7.96837L15.8082 6.0317C14.7815 5.4367 13.2182 5.4367 12.1915 6.0317L8.8432 7.96837L7.22154 8.91337L7.01154 9.03003C4.9232 10.43 4.7832 10.6867 4.7832 12.9384V18.3167C4.7832 20.5684 4.9232 20.825 7.0582 22.26L12.1915 25.2234C12.7049 25.5267 13.3465 25.6667 13.9999 25.6667C14.6415 25.6667 15.2949 25.5267 15.8082 25.2234L20.9882 22.225C23.0765 20.825 23.2165 20.5684 23.2165 18.3167V12.9384C23.2165 10.6867 23.0765 10.43 20.9415 8.99503Z" fill="#781921"/>
<path d="M7.22168 8.91337L8.84335 7.96837L12.04 6.12504L12.1917 6.03171C13.2183 5.43671 14.7817 5.43671 15.8083 6.03171L15.96 6.12504L19.1567 7.96837L20.7783 8.90171V6.40504C20.7783 3.78004 19.3317 2.33337 16.7067 2.33337H11.2817C8.65668 2.33337 7.22168 3.78004 7.22168 6.40504V8.91337Z" fill="#781921"/>
<path d="M17.3137 15.5633L16.5904 16.45C16.4737 16.5783 16.392 16.835 16.4037 17.01L16.4737 18.1533C16.5204 18.8533 16.0187 19.215 15.3654 18.9583L14.3037 18.5383C14.1404 18.48 13.8604 18.48 13.697 18.5383L12.6354 18.9583C11.982 19.215 11.4804 18.8533 11.527 18.1533L11.597 17.01C11.6087 16.835 11.527 16.5783 11.4104 16.45L10.687 15.5633C10.232 15.0266 10.4304 14.4316 11.107 14.2566L12.2154 13.9766C12.3904 13.93 12.6004 13.7666 12.6937 13.615L13.312 12.6583C13.697 12.0633 14.3037 12.0633 14.6887 12.6583L15.307 13.615C15.4004 13.7666 15.6104 13.93 15.7854 13.9766L16.8937 14.2566C17.5704 14.4316 17.7687 15.0266 17.3137 15.5633Z" fill="#781921"/>
</svg>
