<svg width="28" height="28" viewBox="0 0 28 28" fill="none" xmlns="http://www.w3.org/2000/svg">
<path opacity="0.4" d="M24.5 2.33337V16.45C24.5 18.6667 23.3333 19.8334 21.1167 19.8334H6.88333C4.66666 19.8334 3.5 18.6667 3.5 16.45V2.33337H24.5Z" fill="#781921"/>
<path d="M25.6663 3.20837H2.33301C1.85467 3.20837 1.45801 2.81171 1.45801 2.33337C1.45801 1.85504 1.85467 1.45837 2.33301 1.45837H25.6663C26.1447 1.45837 26.5413 1.85504 26.5413 2.33337C26.5413 2.81171 26.1447 3.20837 25.6663 3.20837Z" fill="#781921"/>
<path d="M19.4487 26.0634C19.297 26.3667 18.982 26.5417 18.667 26.5417C18.5386 26.5417 18.3987 26.5067 18.282 26.4484L14.0003 24.3134L9.71863 26.4484C9.60196 26.5067 9.46198 26.5417 9.33364 26.5417C9.01864 26.5417 8.70363 26.3667 8.55196 26.0634C8.33029 25.62 8.50533 25.095 8.94866 24.885L13.1253 22.7967V19.8334H14.8753V22.7967L19.052 24.885C19.4953 25.095 19.6703 25.62 19.4487 26.0634Z" fill="#781921"/>
<path d="M8.74975 13.7084C8.50475 13.7084 8.2481 13.6034 8.0731 13.3934C7.7581 13.02 7.8164 12.4717 8.18974 12.1567L11.8648 9.08838C12.2031 8.80838 12.6347 8.69171 13.0431 8.76171C13.4631 8.83171 13.8248 9.08835 14.0464 9.46169L15.2714 11.5034L18.6897 8.65672C19.0631 8.34172 19.6114 8.40002 19.9264 8.77336C20.2414 9.14669 20.1831 9.69502 19.8098 10.01L16.1347 13.0784C15.7964 13.3584 15.3648 13.475 14.9564 13.405C14.5364 13.335 14.1747 13.0784 13.9531 12.7051L12.7281 10.6634L9.30976 13.51C9.14643 13.6384 8.94808 13.7084 8.74975 13.7084Z" fill="#781921"/>
</svg>
