<svg width="28" height="28" viewBox="0 0 28 28" fill="none" xmlns="http://www.w3.org/2000/svg">
<path opacity="0.4" d="M18.8881 2.33337H9.12306C4.87639 2.33337 2.34473 4.86504 2.34473 9.1117V18.8767C2.34473 23.1234 4.87639 25.655 9.12306 25.655H18.8881C23.1347 25.655 25.6664 23.1234 25.6664 18.8767V9.1117C25.6664 4.86504 23.1347 2.33337 18.8881 2.33337Z" fill="#781921"/>
<path d="M19.1446 16.5317C18.433 14.5017 16.5197 13.1367 14.373 13.1367C14.3613 13.1367 14.3613 13.1367 14.3497 13.1367L11.9463 13.1483C11.9463 13.1483 11.9463 13.1483 11.9347 13.1483C11.048 13.1483 10.278 12.5533 10.0447 11.7017C11.083 11.375 11.8414 10.4067 11.8414 9.26334C11.8414 7.85167 10.6864 6.69666 9.27469 6.69666C7.86302 6.69666 6.70801 7.85167 6.70801 9.26334C6.70801 10.3017 7.33799 11.2 8.22466 11.5967V16.66C7.33799 17.01 6.70801 17.8733 6.70801 18.8767C6.70801 20.195 7.78133 21.2683 9.09966 21.2683C10.418 21.2683 11.4913 20.195 11.4913 18.8767C11.4913 17.8617 10.8613 17.01 9.97466 16.66V14.3033C10.5463 14.665 11.223 14.875 11.9347 14.875H11.9463L14.3497 14.8633C15.7263 14.8167 16.9514 15.7033 17.4414 16.9867C16.8697 17.43 16.4964 18.1067 16.4964 18.8767C16.4964 20.195 17.5697 21.2683 18.888 21.2683C20.2063 21.2683 21.2797 20.195 21.2797 18.8767C21.2913 17.6633 20.3463 16.66 19.1446 16.5317Z" fill="#781921"/>
</svg>
