<svg width="28" height="28" viewBox="0 0 28 28" fill="none" xmlns="http://www.w3.org/2000/svg">
<path opacity="0.4" d="M19.6007 2.33331H7.2457C4.53904 2.33331 2.3457 4.52665 2.3457 7.22165V14.4316V14.6533C2.3457 17.36 4.53904 19.5416 7.23404 19.5416H11.434C12.0757 19.5416 12.6007 20.0666 12.6007 20.7083V21.665C12.6007 22.3066 12.0757 22.8316 11.434 22.8316H8.80904C8.35404 22.8316 7.9807 23.205 7.9807 23.66C7.9807 24.115 8.35404 24.4883 8.80904 24.4883H18.0607C18.5157 24.4883 18.889 24.115 18.889 23.66C18.889 23.205 18.5157 22.8316 18.0607 22.8316H15.4357C14.794 22.8316 14.269 22.3066 14.269 21.665V20.7083C14.269 20.0666 14.794 19.5416 15.4357 19.5416H19.6007C22.3074 19.5416 24.489 17.3483 24.489 14.6533V14.4316V7.22165C24.489 4.52665 22.2957 2.33331 19.6007 2.33331Z" fill="#781921"/>
<path d="M22.9133 11.0833H16.7416C14.7233 11.0833 13.9883 11.8183 13.9883 13.86V22.8783C13.9883 24.9316 14.7116 25.655 16.7416 25.655H22.9133C24.9316 25.655 25.6666 24.92 25.6666 22.8783V13.86C25.6666 11.8066 24.9433 11.0833 22.9133 11.0833ZM19.8333 23.7066C19.1216 23.7066 18.5499 23.135 18.5499 22.4233C18.5499 21.7116 19.1216 21.14 19.8333 21.14C20.5449 21.14 21.1166 21.7116 21.1166 22.4233C21.1166 23.135 20.5449 23.7066 19.8333 23.7066Z" fill="#781921"/>
<path opacity="0.4" d="M21.1174 22.4233C21.1174 23.135 20.5458 23.7067 19.8341 23.7067C19.1224 23.7067 18.5508 23.135 18.5508 22.4233C18.5508 21.7117 19.1224 21.14 19.8341 21.14C20.5458 21.14 21.1174 21.7233 21.1174 22.4233Z" fill="#781921"/>
</svg>
