<svg width="32" height="32" viewBox="0 0 32 32" fill="none" xmlns="http://www.w3.org/2000/svg">
<path d="M27 11C17 17.8 8.16667 13.8333 5 11L4.5 14L5.5 18.5L8.5 25L16 29.5C16.6667 29.6667 19.1 28.9 23.5 24.5C27.9 20.1 27.6667 13.6667 27 11Z" fill="#FDB714"/>
<path d="M12.332 14.6667H19.6654" stroke="#292D32" stroke-width="1.5" stroke-linecap="round"/>
<path d="M16 18.3333V11" stroke="#292D32" stroke-width="1.5" stroke-linecap="round"/>
<path d="M7.97459 5.73335C13.8013 0.253354 25.0946 2.13335 27.1746 11.3467C28.7079 18.12 24.4946 23.8534 20.8013 27.4C18.1213 29.9867 13.8813 29.9867 11.1879 27.4C7.50792 23.84 3.28125 18.1067 4.82792 11.3334" stroke="#292D32" stroke-width="1.5" stroke-linecap="round" stroke-linejoin="round"/>
</svg>
