<svg width="16" height="22" viewBox="0 0 16 22" fill="none" xmlns="http://www.w3.org/2000/svg">
<g clip-path="url(#clip0_1745_3813)">
<path d="M8.46238 21.291C8.40514 21.3483 8.33718 21.3949 8.25848 21.4307C8.17978 21.4665 8.09035 21.4844 7.99019 21.4844C7.90434 21.4844 7.82207 21.4665 7.74337 21.4307C7.66467 21.3949 7.5967 21.3483 7.53947 21.291C7.46793 21.2194 7.03867 20.7611 6.2517 19.916C5.47903 19.071 4.6384 18.0218 3.7298 16.7686C2.82121 15.5153 1.99488 14.1439 1.25084 12.6543C0.506789 11.1647 0.134766 9.73958 0.134766 8.37891C0.134766 7.29036 0.34224 6.27344 0.75719 5.32812C1.17214 4.36849 1.73375 3.53418 2.44203 2.8252C3.1503 2.11621 3.98378 1.55404 4.94246 1.13867C5.90113 0.723307 6.91705 0.515625 7.99019 0.515625C9.07765 0.515625 10.1007 0.723307 11.0594 1.13867C12.0038 1.55404 12.8337 2.11621 13.5491 2.8252C14.2645 3.53418 14.8226 4.36849 15.2232 5.32812C15.6381 6.27344 15.8456 7.29036 15.8456 8.37891C15.8456 9.73958 15.4736 11.1647 14.7295 12.6543C13.9998 14.1439 13.1806 15.5153 12.272 16.7686C11.3634 18.0218 10.5228 19.071 9.75015 19.916C8.96318 20.7611 8.53392 21.2194 8.46238 21.291ZM7.99019 1.82617C7.08875 1.82617 6.24454 1.99805 5.45757 2.3418C4.65629 2.68555 3.95874 3.15462 3.36493 3.74902C2.77113 4.34342 2.30967 5.03451 1.98058 5.82227C1.63717 6.62435 1.45831 7.47656 1.444 8.37891C1.444 9.42448 1.71587 10.5273 2.25959 11.6875C2.78901 12.862 3.41501 13.9863 4.1376 15.0605C4.86018 16.1348 5.58635 17.1016 6.31608 17.9609C7.04582 18.8203 7.60386 19.4577 7.99019 19.873C8.39083 19.4577 8.95602 18.8203 9.68576 17.9609C10.4155 17.1016 11.1381 16.1348 11.8535 15.0605C12.5689 13.9863 13.1985 12.862 13.7423 11.6875C14.2717 10.5273 14.5364 9.42448 14.5364 8.37891C14.5364 7.47656 14.3647 6.62435 14.0213 5.82227C13.6779 5.03451 13.2093 4.34342 12.6154 3.74902C12.0216 3.15462 11.3313 2.68555 10.5443 2.3418C9.743 1.99805 8.89163 1.82617 7.99019 1.82617ZM7.99019 12.3105C6.91705 12.3105 5.99772 11.9274 5.23221 11.1611C4.4667 10.3949 4.07679 9.46745 4.06248 8.37891C4.07679 7.29036 4.4667 6.36296 5.23221 5.59668C5.99772 4.8304 6.91705 4.44727 7.99019 4.44727C9.07765 4.44727 10.0041 4.8304 10.7696 5.59668C11.5351 6.36296 11.9179 7.29036 11.9179 8.37891C11.9179 9.46745 11.5351 10.3949 10.7696 11.1611C10.0041 11.9274 9.07765 12.3105 7.99019 12.3105ZM7.99019 5.75781C7.27476 5.75781 6.65949 6.01562 6.14438 6.53125C5.62927 7.04688 5.37172 7.66276 5.37172 8.37891C5.37172 9.09505 5.62927 9.71094 6.14438 10.2266C6.65949 10.7422 7.27476 11 7.99019 11C8.71993 11 9.33878 10.7422 9.84673 10.2266C10.3547 9.71094 10.6087 9.09505 10.6087 8.37891C10.6087 7.66276 10.3547 7.04688 9.84673 6.53125C9.33878 6.01562 8.71993 5.75781 7.99019 5.75781Z" fill="#170006"/>
</g>
<defs>
<clipPath id="clip0_1745_3813">
<rect width="16" height="22" fill="white" transform="matrix(1 0 0 -1 0 22)"/>
</clipPath>
</defs>
</svg>
