<svg width="32" height="32" viewBox="0 0 32 32" fill="none" xmlns="http://www.w3.org/2000/svg">
<path d="M11.9999 4.5C4.39986 4.5 2.83319 7.5 2.99986 9C14.9998 17 28.9998 9.4 28.9998 9C28.5998 5.8 24.8331 4.66667 22.9998 4.5H11.9999Z" fill="#FDB714"/>
<path d="M2.66797 11.3334C2.66797 6.66675 5.33464 4.66675 9.33464 4.66675H22.668C26.668 4.66675 29.3346 6.66675 29.3346 11.3334V15.3334" stroke="#170006" stroke-width="1.5" stroke-miterlimit="10" stroke-linecap="round" stroke-linejoin="round"/>
<path d="M16.0013 27.3334H9.33464C5.33464 27.3334 2.66797 25.3334 2.66797 20.6667V16.6267" stroke="#170006" stroke-width="1.5" stroke-miterlimit="10" stroke-linecap="round" stroke-linejoin="round"/>
<path d="M22.6654 12L18.492 15.3333C17.1187 16.4267 14.8654 16.4267 13.492 15.3333L9.33203 12" fill="#FDB714"/>
<path d="M22.6654 12L18.492 15.3333C17.1187 16.4267 14.8654 16.4267 13.492 15.3333L9.33203 12" stroke="#170006" stroke-width="1.5" stroke-miterlimit="10" stroke-linecap="round" stroke-linejoin="round"/>
<path d="M25.6121 19.6932L20.8921 24.4132C20.7054 24.5999 20.5321 24.9466 20.4921 25.1999L20.2387 26.9999C20.1454 27.6532 20.5988 28.1066 21.2521 28.0132L23.0521 27.7599C23.3054 27.7199 23.6654 27.5465 23.8388 27.3599L28.5588 22.6399C29.3721 21.8266 29.7588 20.8799 28.5588 19.6799C27.3721 18.4932 26.4254 18.8799 25.6121 19.6932Z" fill="#FDB714" stroke="#170006" stroke-width="1.5" stroke-miterlimit="10" stroke-linecap="round" stroke-linejoin="round"/>
<path d="M24.9336 20.3732C25.3336 21.8132 26.4536 22.9332 27.8936 23.3332L24.9336 20.3732Z" fill="#FDB714"/>
<path d="M24.9336 20.3732C25.3336 21.8132 26.4536 22.9332 27.8936 23.3332" stroke="#170006" stroke-width="1.5" stroke-miterlimit="10" stroke-linecap="round" stroke-linejoin="round"/>
</svg>
